G04 Layer_Color=13813960*
%FSLAX25Y25*%
%MOIN*%
G70*
G01*
G75*
%ADD22C,0.01000*%
D22*
X768898Y1059941D02*
X762900D01*
Y1056942D01*
X763899Y1055942D01*
X765899D01*
X766898Y1056942D01*
Y1059941D01*
Y1057942D02*
X768898Y1055942D01*
Y1050944D02*
Y1052943D01*
X767898Y1053943D01*
X765899D01*
X764899Y1052943D01*
Y1050944D01*
X765899Y1049944D01*
X766898D01*
Y1053943D01*
X764899Y1047945D02*
X768898Y1045945D01*
X764899Y1043946D01*
X768898Y1035949D02*
X764899D01*
X762900Y1033949D01*
X764899Y1031950D01*
X768898D01*
X765899D01*
Y1035949D01*
X752600Y1168900D02*
G03*
X748663Y1164963I0J-3937D01*
G01*
Y962837D02*
G03*
X752600Y958900I3937J0D01*
G01*
X1004523D02*
G03*
X1008663Y963040I0J4140D01*
G01*
X748663Y962837D02*
Y1164963D01*
X752600Y958900D02*
X1004523D01*
X752600Y1168900D02*
X1002682D01*
Y1168882D02*
X1008663Y1162900D01*
X1018663Y978900D02*
Y1106600D01*
Y1107900D01*
X1008663Y1117900D02*
Y1162900D01*
Y1117900D02*
X1018663Y1107900D01*
X1008663Y968900D02*
X1018663Y978900D01*
X1008663Y963040D02*
Y968900D01*
M02*
