G04 Layer_Color=8150272*
%FSLAX25Y25*%
%MOIN*%
G70*
G01*
G75*
%ADD22C,0.01000*%
%ADD48R,0.06902X0.06902*%
%ADD49C,0.06902*%
%ADD50C,0.07493*%
%ADD51R,0.07493X0.07493*%
%ADD52C,0.06800*%
%ADD53C,0.07800*%
%ADD54R,0.07800X0.07800*%
%ADD55R,0.06902X0.06902*%
%ADD56C,0.03753*%
%ADD57C,0.03300*%
D22*
X752600Y1168900D02*
G03*
X748663Y1164963I0J-3937D01*
G01*
Y962837D02*
G03*
X752600Y958900I3937J0D01*
G01*
X1004523D02*
G03*
X1008663Y963040I0J4140D01*
G01*
X748663Y962837D02*
Y1164963D01*
X752600Y958900D02*
X1004523D01*
X752600Y1168900D02*
X1002682D01*
Y1168882D02*
X1008663Y1162900D01*
X1018663Y978900D02*
Y1106600D01*
Y1107900D01*
X1008663Y1117900D02*
Y1162900D01*
Y1117900D02*
X1018663Y1107900D01*
X1008663Y968900D02*
X1018663Y978900D01*
X1008663Y963040D02*
Y968900D01*
D48*
X762500Y971000D02*
D03*
D49*
Y981000D02*
D03*
X832663Y1158900D02*
D03*
X842663D02*
D03*
X852663D02*
D03*
X862663D02*
D03*
X872663D02*
D03*
X882663D02*
D03*
X892663D02*
D03*
X902663D02*
D03*
X912663D02*
D03*
D50*
X842520Y1100500D02*
D03*
Y1110500D02*
D03*
Y1120500D02*
D03*
X822835Y1100500D02*
D03*
Y1110500D02*
D03*
Y1120500D02*
D03*
X803150Y1100500D02*
D03*
Y1110500D02*
D03*
Y1120500D02*
D03*
X783465Y1100500D02*
D03*
Y1110500D02*
D03*
Y1120500D02*
D03*
X763780Y1100500D02*
D03*
Y1110500D02*
D03*
Y1120500D02*
D03*
X909055Y1130499D02*
D03*
Y1120499D02*
D03*
Y1110499D02*
D03*
X928740Y1130499D02*
D03*
Y1120499D02*
D03*
Y1110499D02*
D03*
X948425Y1130499D02*
D03*
Y1120499D02*
D03*
Y1110499D02*
D03*
X968110Y1130499D02*
D03*
Y1120499D02*
D03*
Y1110499D02*
D03*
X987795Y1130499D02*
D03*
Y1120499D02*
D03*
Y1110499D02*
D03*
D51*
X842520Y1130500D02*
D03*
X822835D02*
D03*
X803150D02*
D03*
X783465D02*
D03*
X763780D02*
D03*
X909055Y1100499D02*
D03*
X928740D02*
D03*
X948425D02*
D03*
X968110D02*
D03*
X987795D02*
D03*
D52*
X803700Y968900D02*
D03*
X1008700Y988900D02*
D03*
Y1098900D02*
D03*
X808700Y1158900D02*
D03*
X908663Y968900D02*
D03*
X928663D02*
D03*
X918663D02*
D03*
X898663D02*
D03*
X888663D02*
D03*
X868663D02*
D03*
X878663D02*
D03*
X858663D02*
D03*
X948663Y1158900D02*
D03*
X928663D02*
D03*
X938663D02*
D03*
X958663D02*
D03*
X968663D02*
D03*
X988663D02*
D03*
X978663D02*
D03*
X998663D02*
D03*
D53*
X978663Y968900D02*
D03*
X998663D02*
D03*
X988663D02*
D03*
X968663D02*
D03*
X958663D02*
D03*
D54*
X948663D02*
D03*
D55*
X822663Y1158900D02*
D03*
D56*
X954724Y1142323D02*
D03*
X907382Y1143996D02*
D03*
X864764Y1124508D02*
D03*
Y1095768D02*
D03*
X862500Y1022441D02*
D03*
X867717Y1013386D02*
D03*
X871358Y1011122D02*
D03*
X886319Y1001772D02*
D03*
X899606Y997933D02*
D03*
X899705Y1002461D02*
D03*
X899213Y1007283D02*
D03*
X918209Y1031988D02*
D03*
X911220Y1049508D02*
D03*
X787795Y986220D02*
D03*
X906299Y986516D02*
D03*
X830128Y1027254D02*
D03*
X924311Y1026772D02*
D03*
X862402Y1084646D02*
D03*
X882382Y1094685D02*
D03*
X872933Y991043D02*
D03*
X875197Y1000984D02*
D03*
X871850Y1004331D02*
D03*
X780709Y991240D02*
D03*
X773327Y996063D02*
D03*
X764862Y998720D02*
D03*
X868406Y1057087D02*
D03*
X884252Y1013386D02*
D03*
X978642Y1031201D02*
D03*
X829429Y1034252D02*
D03*
X861811Y1034350D02*
D03*
X898917Y1030217D02*
D03*
X925098Y1033661D02*
D03*
X938976Y1040256D02*
D03*
X885279Y1059697D02*
D03*
X898622Y1059744D02*
D03*
X873032Y1065354D02*
D03*
X882663Y1068884D02*
D03*
D57*
X889075Y1028642D02*
D03*
X883827D02*
D03*
X878575D02*
D03*
X873327D02*
D03*
X889075Y1033890D02*
D03*
X883827D02*
D03*
X878575D02*
D03*
X873327Y1033891D02*
D03*
X889075Y1039142D02*
D03*
X883827D02*
D03*
X878575D02*
D03*
X873327Y1039140D02*
D03*
X889075Y1044390D02*
D03*
X883827D02*
D03*
X878575D02*
D03*
X873327D02*
D03*
M02*
