G04 Layer_Physical_Order=2*
G04 Layer_Color=11436288*
%FSLAX25Y25*%
%MOIN*%
G70*
G01*
G75*
%ADD22C,0.01000*%
%ADD23C,0.00984*%
%ADD24R,0.06102X0.06102*%
%ADD25C,0.06102*%
%ADD26C,0.06693*%
%ADD27R,0.06693X0.06693*%
%ADD28C,0.06000*%
%ADD29C,0.07000*%
%ADD30R,0.07000X0.07000*%
%ADD31R,0.06102X0.06102*%
%ADD32C,0.02953*%
%ADD33C,0.02500*%
%ADD34C,0.01969*%
G36*
X973130Y982804D02*
Y976716D01*
X972668Y976524D01*
X950445Y998748D01*
X950071Y998997D01*
X949630Y999085D01*
X901370D01*
X901125Y999452D01*
X900428Y999917D01*
X900353Y999932D01*
Y1000442D01*
X900527Y1000476D01*
X901223Y1000942D01*
X901468Y1001309D01*
X954625D01*
X973130Y982804D01*
D02*
G37*
G36*
X1003445Y1166489D02*
Y1108366D01*
Y1104199D01*
X1003421Y1104179D01*
X1002492Y1103048D01*
X1001802Y1101757D01*
X1001378Y1100356D01*
X1001234Y1098900D01*
X1001378Y1097443D01*
X1001802Y1096043D01*
X1002492Y1094752D01*
X1003421Y1093621D01*
X1003445Y1093601D01*
Y1053839D01*
X1001378Y1051772D01*
X997244Y1047638D01*
X983779D01*
X983587Y1048100D01*
X988610Y1053122D01*
X988860Y1053496D01*
X988947Y1053937D01*
Y1096522D01*
X991772D01*
Y1104475D01*
X983819D01*
Y1096522D01*
X986643D01*
Y1054414D01*
X979867Y1047638D01*
X973130D01*
Y1040901D01*
X963598Y1031369D01*
X926358D01*
X926206Y1031869D01*
X926617Y1032143D01*
X926928Y1032608D01*
X961417D01*
X961858Y1032695D01*
X962232Y1032945D01*
X968925Y1039638D01*
X969175Y1040012D01*
X969262Y1040453D01*
Y1096522D01*
X972087D01*
Y1104475D01*
X964134D01*
Y1096522D01*
X966958D01*
Y1040930D01*
X960940Y1034912D01*
X926796D01*
X926617Y1035180D01*
X925920Y1035645D01*
X925098Y1035809D01*
X924277Y1035645D01*
X923580Y1035180D01*
X923114Y1034483D01*
X922951Y1033661D01*
X923114Y1032840D01*
X923580Y1032143D01*
X923990Y1031869D01*
X923839Y1031369D01*
X923327D01*
X922886Y1031281D01*
X922512Y1031031D01*
X921176Y1029695D01*
X920096D01*
X919951Y1030174D01*
X919994Y1030203D01*
X920541Y1031022D01*
X920634Y1031488D01*
X915783D01*
X915876Y1031022D01*
X916423Y1030203D01*
X916467Y1030174D01*
X916321Y1029695D01*
X903233D01*
X901897Y1031031D01*
X901524Y1031281D01*
X901083Y1031369D01*
X900681D01*
X900436Y1031735D01*
X899739Y1032201D01*
X898917Y1032364D01*
X898096Y1032201D01*
X897399Y1031735D01*
X896933Y1031038D01*
X896770Y1030217D01*
X896933Y1029395D01*
X897399Y1028698D01*
X898096Y1028232D01*
X898917Y1028069D01*
X899739Y1028232D01*
X900436Y1028698D01*
X900924Y1028746D01*
X901756Y1027914D01*
X901549Y1027414D01*
X891516D01*
X891224Y1027914D01*
X891269Y1028142D01*
X886880D01*
X886914Y1027971D01*
X886611Y1027553D01*
X886291D01*
X885987Y1027971D01*
X886021Y1028142D01*
X881632D01*
X881668Y1027963D01*
X881367Y1027547D01*
X881035D01*
X880734Y1027963D01*
X880769Y1028142D01*
X876380D01*
X876414Y1027971D01*
X876111Y1027553D01*
X875791D01*
X875487Y1027971D01*
X875521Y1028142D01*
X871132D01*
X871177Y1027914D01*
X870886Y1027414D01*
X832244D01*
X832112Y1028076D01*
X831647Y1028772D01*
X830950Y1029238D01*
X830128Y1029401D01*
X829306Y1029238D01*
X828609Y1028772D01*
X828144Y1028076D01*
X827981Y1027254D01*
X828144Y1026432D01*
X828609Y1025735D01*
X829306Y1025270D01*
X830128Y1025106D01*
X830225Y1025126D01*
X922983D01*
X923489Y1024788D01*
X924311Y1024624D01*
X925133Y1024788D01*
X925830Y1025253D01*
X926295Y1025950D01*
X926459Y1026772D01*
X926295Y1027594D01*
X925830Y1028290D01*
X925419Y1028564D01*
X925571Y1029064D01*
X964075D01*
X964516Y1029152D01*
X964889Y1029402D01*
X972668Y1037181D01*
X973130Y1036989D01*
Y1027318D01*
X960350Y1014538D01*
X886015D01*
X885771Y1014904D01*
X885074Y1015370D01*
X884252Y1015533D01*
X883430Y1015370D01*
X882733Y1014904D01*
X882268Y1014208D01*
X882104Y1013386D01*
X882268Y1012564D01*
X882733Y1011867D01*
X883430Y1011402D01*
X884252Y1011238D01*
X885074Y1011402D01*
X885771Y1011867D01*
X886015Y1012234D01*
X960827D01*
X961268Y1012321D01*
X961641Y1012571D01*
X972668Y1023598D01*
X973130Y1023406D01*
Y996716D01*
X972668Y996524D01*
X961094Y1008098D01*
X960720Y1008348D01*
X960279Y1008436D01*
X900976D01*
X900731Y1008802D01*
X900034Y1009268D01*
X899213Y1009431D01*
X898391Y1009268D01*
X897694Y1008802D01*
X897229Y1008105D01*
X897065Y1007283D01*
X897229Y1006462D01*
X897694Y1005765D01*
X898391Y1005299D01*
X899213Y1005136D01*
X900034Y1005299D01*
X900731Y1005765D01*
X900976Y1006131D01*
X959802D01*
X973130Y992804D01*
Y986716D01*
X972668Y986524D01*
X955917Y1003275D01*
X955543Y1003525D01*
X955102Y1003613D01*
X901468D01*
X901223Y1003979D01*
X900527Y1004445D01*
X899705Y1004608D01*
X898883Y1004445D01*
X898186Y1003979D01*
X897721Y1003283D01*
X897557Y1002461D01*
X897721Y1001639D01*
X898186Y1000942D01*
X898883Y1000476D01*
X898958Y1000461D01*
Y999952D01*
X898785Y999917D01*
X898088Y999452D01*
X897622Y998755D01*
X897459Y997933D01*
X897622Y997111D01*
X897876Y996731D01*
X897609Y996231D01*
X893489D01*
X888381Y1001339D01*
X888466Y1001772D01*
X888303Y1002594D01*
X887837Y1003290D01*
X887141Y1003756D01*
X886319Y1003919D01*
X885497Y1003756D01*
X884800Y1003290D01*
X884335Y1002594D01*
X884171Y1001772D01*
X884335Y1000950D01*
X884800Y1000253D01*
X885497Y999788D01*
X886319Y999624D01*
X886751Y999710D01*
X892197Y994264D01*
X892571Y994014D01*
X893012Y993927D01*
X942007D01*
X965025Y970909D01*
X964639Y969978D01*
X964497Y968900D01*
X964639Y967822D01*
X965055Y966817D01*
X965718Y965954D01*
X966580Y965292D01*
X967585Y964876D01*
X968663Y964734D01*
X969741Y964876D01*
X970746Y965292D01*
X971609Y965954D01*
X972270Y966817D01*
X972630Y967685D01*
X973130Y967585D01*
Y960052D01*
X752600D01*
Y960056D01*
X751880Y960151D01*
X751210Y960429D01*
X750634Y960871D01*
X750192Y961447D01*
X749914Y962117D01*
X749819Y962837D01*
X749815D01*
Y1164963D01*
X749819D01*
X749914Y1165683D01*
X750192Y1166353D01*
X750634Y1166929D01*
X751210Y1167371D01*
X751880Y1167649D01*
X752600Y1167744D01*
Y1167748D01*
X1002186D01*
X1003445Y1166489D01*
D02*
G37*
G36*
X973130Y972804D02*
Y970214D01*
X972630Y970115D01*
X972270Y970983D01*
X971609Y971846D01*
X970746Y972507D01*
X969741Y972924D01*
X968663Y973066D01*
X967585Y972924D01*
X966654Y972538D01*
X943299Y995893D01*
X942925Y996143D01*
X942484Y996231D01*
X902129D01*
X901846Y996731D01*
X901876Y996781D01*
X949153D01*
X973130Y972804D01*
D02*
G37*
%LPC*%
G36*
X875521Y1043890D02*
X873827D01*
Y1042195D01*
X874205Y1042270D01*
X874949Y1042768D01*
X875446Y1043512D01*
X875521Y1043890D01*
D02*
G37*
G36*
X889575Y1041336D02*
Y1039642D01*
X891269D01*
X891194Y1040020D01*
X890697Y1040764D01*
X889953Y1041261D01*
X889575Y1041336D01*
D02*
G37*
G36*
X872827Y1043890D02*
X871132D01*
X871207Y1043512D01*
X871705Y1042768D01*
X872449Y1042270D01*
X872827Y1042195D01*
Y1043890D01*
D02*
G37*
G36*
X878075D02*
X876380D01*
X876455Y1043512D01*
X876953Y1042768D01*
X877697Y1042270D01*
X878075Y1042195D01*
Y1043890D01*
D02*
G37*
G36*
X888575D02*
X886880D01*
X886955Y1043512D01*
X887453Y1042768D01*
X888197Y1042270D01*
X888575Y1042195D01*
Y1043890D01*
D02*
G37*
G36*
X891269D02*
X889575D01*
Y1042195D01*
X889953Y1042270D01*
X890697Y1042768D01*
X891194Y1043512D01*
X891269Y1043890D01*
D02*
G37*
G36*
X872827Y1046584D02*
X872449Y1046509D01*
X871705Y1046012D01*
X871207Y1045268D01*
X871132Y1044890D01*
X872827D01*
Y1046584D01*
D02*
G37*
G36*
X880769Y1043890D02*
X879075D01*
Y1042195D01*
X879453Y1042270D01*
X880197Y1042768D01*
X880694Y1043512D01*
X880769Y1043890D01*
D02*
G37*
G36*
X883327D02*
X881632D01*
X881707Y1043512D01*
X882205Y1042768D01*
X882949Y1042270D01*
X883327Y1042195D01*
Y1043890D01*
D02*
G37*
G36*
X886021D02*
X884327D01*
Y1042195D01*
X884705Y1042270D01*
X885449Y1042768D01*
X885946Y1043512D01*
X886021Y1043890D01*
D02*
G37*
G36*
X888575Y1041336D02*
X888197Y1041261D01*
X887453Y1040764D01*
X886955Y1040020D01*
X886880Y1039642D01*
X888575D01*
Y1041336D01*
D02*
G37*
G36*
X886021Y1038642D02*
X884327D01*
Y1036947D01*
X884705Y1037022D01*
X885449Y1037519D01*
X885946Y1038264D01*
X886021Y1038642D01*
D02*
G37*
G36*
X888575D02*
X886880D01*
X886955Y1038264D01*
X887453Y1037519D01*
X888197Y1037022D01*
X888575Y1036947D01*
Y1038642D01*
D02*
G37*
G36*
X891269D02*
X889575D01*
Y1036947D01*
X889953Y1037022D01*
X890697Y1037519D01*
X891194Y1038264D01*
X891269Y1038642D01*
D02*
G37*
G36*
X878075D02*
X876380D01*
X876455Y1038264D01*
X876953Y1037519D01*
X877697Y1037022D01*
X878075Y1036947D01*
Y1038642D01*
D02*
G37*
G36*
X880769D02*
X879075D01*
Y1036947D01*
X879453Y1037022D01*
X880197Y1037519D01*
X880694Y1038264D01*
X880769Y1038642D01*
D02*
G37*
G36*
X883327D02*
X881632D01*
X881707Y1038264D01*
X882205Y1037519D01*
X882949Y1037022D01*
X883327Y1036947D01*
Y1038642D01*
D02*
G37*
G36*
X938663Y1162561D02*
X937715Y1162436D01*
X936832Y1162071D01*
X936074Y1161489D01*
X935492Y1160731D01*
X935126Y1159848D01*
X935002Y1158900D01*
X935126Y1157952D01*
X935492Y1157069D01*
X936074Y1156311D01*
X936832Y1155729D01*
X937715Y1155363D01*
X937824Y1155349D01*
Y1042019D01*
X937458Y1041774D01*
X936992Y1041078D01*
X936829Y1040256D01*
X936992Y1039434D01*
X937458Y1038737D01*
X938154Y1038272D01*
X938976Y1038108D01*
X939798Y1038272D01*
X940495Y1038737D01*
X940960Y1039434D01*
X941124Y1040256D01*
X940960Y1041078D01*
X940495Y1041774D01*
X940128Y1042019D01*
Y1155578D01*
X940494Y1155729D01*
X941252Y1156311D01*
X941834Y1157069D01*
X942200Y1157952D01*
X942324Y1158900D01*
X942200Y1159848D01*
X941834Y1160731D01*
X941252Y1161489D01*
X940494Y1162071D01*
X939611Y1162436D01*
X938663Y1162561D01*
D02*
G37*
G36*
X879075Y1041336D02*
Y1039642D01*
X880769D01*
X880694Y1040020D01*
X880197Y1040764D01*
X879453Y1041261D01*
X879075Y1041336D01*
D02*
G37*
G36*
X883327D02*
X882949Y1041261D01*
X882205Y1040764D01*
X881707Y1040020D01*
X881632Y1039642D01*
X883327D01*
Y1041336D01*
D02*
G37*
G36*
X884327D02*
Y1039642D01*
X886021D01*
X885946Y1040020D01*
X885449Y1040764D01*
X884705Y1041261D01*
X884327Y1041336D01*
D02*
G37*
G36*
X872827Y1041335D02*
X872449Y1041260D01*
X871705Y1040763D01*
X871207Y1040018D01*
X871132Y1039640D01*
X872827D01*
Y1041335D01*
D02*
G37*
G36*
X873827D02*
Y1039640D01*
X875521D01*
X875446Y1040018D01*
X874949Y1040763D01*
X874205Y1041260D01*
X873827Y1041335D01*
D02*
G37*
G36*
X878075Y1041336D02*
X877697Y1041261D01*
X876953Y1040764D01*
X876455Y1040020D01*
X876380Y1039642D01*
X878075D01*
Y1041336D01*
D02*
G37*
G36*
X873827Y1046584D02*
Y1044890D01*
X875521D01*
X875446Y1045268D01*
X874949Y1046012D01*
X874205Y1046509D01*
X873827Y1046584D01*
D02*
G37*
G36*
X932717Y1104475D02*
X924764D01*
Y1096522D01*
X932717D01*
Y1104475D01*
D02*
G37*
G36*
X952402D02*
X944449D01*
Y1096522D01*
X952402D01*
Y1104475D01*
D02*
G37*
G36*
X908555Y1109999D02*
X904737D01*
X904821Y1109364D01*
X905259Y1108307D01*
X905955Y1107399D01*
X906863Y1106702D01*
X907921Y1106264D01*
X908555Y1106181D01*
Y1109999D01*
D02*
G37*
G36*
X912663Y1162613D02*
X911702Y1162486D01*
X910807Y1162115D01*
X910038Y1161525D01*
X909448Y1160756D01*
X909077Y1159861D01*
X908950Y1158900D01*
X909077Y1157939D01*
X909448Y1157044D01*
X910038Y1156275D01*
X910807Y1155685D01*
X911702Y1155314D01*
X912663Y1155187D01*
X913624Y1155314D01*
X914328Y1155605D01*
X914891Y1155042D01*
Y1091619D01*
X889779Y1066506D01*
X883797D01*
X883645Y1067006D01*
X884182Y1067365D01*
X884647Y1068062D01*
X884811Y1068884D01*
X884647Y1069705D01*
X884182Y1070402D01*
X883534Y1070835D01*
Y1092922D01*
X883900Y1093167D01*
X884366Y1093863D01*
X884529Y1094685D01*
X884366Y1095507D01*
X883900Y1096204D01*
X883204Y1096669D01*
X882382Y1096833D01*
X881560Y1096669D01*
X880863Y1096204D01*
X880398Y1095507D01*
X880234Y1094685D01*
X880398Y1093863D01*
X880863Y1093167D01*
X881230Y1092922D01*
Y1070459D01*
X881144Y1070402D01*
X880679Y1069705D01*
X880515Y1068884D01*
X880679Y1068062D01*
X881144Y1067365D01*
X881681Y1067006D01*
X881529Y1066506D01*
X874795D01*
X874550Y1066873D01*
X873853Y1067338D01*
X873032Y1067502D01*
X872210Y1067338D01*
X871513Y1066873D01*
X871047Y1066176D01*
X870884Y1065354D01*
X871047Y1064532D01*
X871513Y1063836D01*
X872210Y1063370D01*
X873032Y1063207D01*
X873853Y1063370D01*
X874550Y1063836D01*
X874795Y1064202D01*
X890256D01*
X890697Y1064290D01*
X891070Y1064540D01*
X916858Y1090327D01*
X917108Y1090701D01*
X917195Y1091142D01*
Y1155520D01*
X917108Y1155961D01*
X916858Y1156334D01*
X915958Y1157235D01*
X916249Y1157939D01*
X916376Y1158900D01*
X916249Y1159861D01*
X915878Y1160756D01*
X915288Y1161525D01*
X914519Y1162115D01*
X913624Y1162486D01*
X912663Y1162613D01*
D02*
G37*
G36*
X864764Y1097915D02*
X863942Y1097752D01*
X863245Y1097286D01*
X863000Y1096920D01*
X848720D01*
X848280Y1096832D01*
X847906Y1096582D01*
X817394Y1066070D01*
X817144Y1065697D01*
X817057Y1065256D01*
Y1029626D01*
X817144Y1029185D01*
X817394Y1028811D01*
X824579Y1021626D01*
X824953Y1021377D01*
X825394Y1021289D01*
X860737D01*
X860981Y1020922D01*
X861678Y1020457D01*
X862500Y1020293D01*
X863322Y1020457D01*
X864019Y1020922D01*
X864484Y1021619D01*
X864648Y1022441D01*
X864484Y1023263D01*
X864019Y1023960D01*
X863322Y1024425D01*
X862500Y1024588D01*
X861678Y1024425D01*
X860981Y1023960D01*
X860737Y1023593D01*
X825871D01*
X819361Y1030103D01*
Y1064779D01*
X849198Y1094616D01*
X863000D01*
X863245Y1094249D01*
X863942Y1093784D01*
X864764Y1093620D01*
X865586Y1093784D01*
X866282Y1094249D01*
X866748Y1094946D01*
X866911Y1095768D01*
X866748Y1096590D01*
X866282Y1097286D01*
X865586Y1097752D01*
X864764Y1097915D01*
D02*
G37*
G36*
X913032Y1104475D02*
X905079D01*
Y1096522D01*
X913032D01*
Y1104475D01*
D02*
G37*
G36*
X947925Y1109999D02*
X944107D01*
X944191Y1109364D01*
X944629Y1108307D01*
X945325Y1107399D01*
X946233Y1106702D01*
X947291Y1106264D01*
X947925Y1106181D01*
Y1109999D01*
D02*
G37*
G36*
X952743D02*
X948925D01*
Y1106181D01*
X949560Y1106264D01*
X950617Y1106702D01*
X951525Y1107399D01*
X952222Y1108307D01*
X952660Y1109364D01*
X952743Y1109999D01*
D02*
G37*
G36*
X967610D02*
X963792D01*
X963876Y1109364D01*
X964314Y1108307D01*
X965010Y1107399D01*
X965918Y1106702D01*
X966975Y1106264D01*
X967610Y1106181D01*
Y1109999D01*
D02*
G37*
G36*
X913373D02*
X909555D01*
Y1106181D01*
X910190Y1106264D01*
X911247Y1106702D01*
X912155Y1107399D01*
X912852Y1108307D01*
X913290Y1109364D01*
X913373Y1109999D01*
D02*
G37*
G36*
X928240D02*
X924422D01*
X924506Y1109364D01*
X924944Y1108307D01*
X925640Y1107399D01*
X926548Y1106702D01*
X927606Y1106264D01*
X928240Y1106181D01*
Y1109999D01*
D02*
G37*
G36*
X933058D02*
X929240D01*
Y1106181D01*
X929875Y1106264D01*
X930932Y1106702D01*
X931840Y1107399D01*
X932537Y1108307D01*
X932975Y1109364D01*
X933058Y1109999D01*
D02*
G37*
G36*
X884327Y1046584D02*
Y1044890D01*
X886021D01*
X885946Y1045268D01*
X885449Y1046012D01*
X884705Y1046509D01*
X884327Y1046584D01*
D02*
G37*
G36*
X888575D02*
X888197Y1046509D01*
X887453Y1046012D01*
X886955Y1045268D01*
X886880Y1044890D01*
X888575D01*
Y1046584D01*
D02*
G37*
G36*
X889575D02*
Y1044890D01*
X891269D01*
X891194Y1045268D01*
X890697Y1046012D01*
X889953Y1046509D01*
X889575Y1046584D01*
D02*
G37*
G36*
X878075D02*
X877697Y1046509D01*
X876953Y1046012D01*
X876455Y1045268D01*
X876380Y1044890D01*
X878075D01*
Y1046584D01*
D02*
G37*
G36*
X879075D02*
Y1044890D01*
X880769D01*
X880694Y1045268D01*
X880197Y1046012D01*
X879453Y1046509D01*
X879075Y1046584D01*
D02*
G37*
G36*
X883327D02*
X882949Y1046509D01*
X882205Y1046012D01*
X881707Y1045268D01*
X881632Y1044890D01*
X883327D01*
Y1046584D01*
D02*
G37*
G36*
X911720Y1051933D02*
Y1050008D01*
X913646D01*
X913553Y1050474D01*
X913006Y1051293D01*
X912187Y1051841D01*
X911720Y1051933D01*
D02*
G37*
G36*
X862402Y1086793D02*
X861580Y1086630D01*
X860883Y1086164D01*
X860417Y1085468D01*
X860254Y1084646D01*
X860417Y1083824D01*
X860883Y1083127D01*
X861250Y1082882D01*
Y1063892D01*
X861140Y1063728D01*
X861053Y1063287D01*
X861140Y1062846D01*
X861390Y1062473D01*
X866344Y1057519D01*
X866258Y1057087D01*
X866421Y1056265D01*
X866887Y1055568D01*
X867584Y1055103D01*
X868406Y1054939D01*
X869227Y1055103D01*
X869924Y1055568D01*
X870390Y1056265D01*
X870553Y1057087D01*
X870390Y1057909D01*
X869924Y1058605D01*
X869227Y1059071D01*
X868406Y1059234D01*
X867973Y1059148D01*
X863554Y1063568D01*
Y1082882D01*
X863920Y1083127D01*
X864386Y1083824D01*
X864549Y1084646D01*
X864386Y1085468D01*
X863920Y1086164D01*
X863223Y1086630D01*
X862402Y1086793D01*
D02*
G37*
G36*
X898622Y1061892D02*
X897800Y1061728D01*
X897104Y1061263D01*
X896859Y1060896D01*
X887012D01*
X886798Y1061216D01*
X886101Y1061681D01*
X885279Y1061845D01*
X884458Y1061681D01*
X883761Y1061216D01*
X883295Y1060519D01*
X883132Y1059697D01*
X883295Y1058875D01*
X883761Y1058179D01*
X884458Y1057713D01*
X885279Y1057550D01*
X886101Y1057713D01*
X886798Y1058179D01*
X887074Y1058592D01*
X896859D01*
X897104Y1058226D01*
X897800Y1057760D01*
X898622Y1057596D01*
X899444Y1057760D01*
X900141Y1058226D01*
X900606Y1058922D01*
X900770Y1059744D01*
X900606Y1060566D01*
X900141Y1061263D01*
X899444Y1061728D01*
X898622Y1061892D01*
D02*
G37*
G36*
X910721Y1049008D02*
X908795D01*
X908888Y1048542D01*
X909435Y1047723D01*
X910254Y1047175D01*
X910721Y1047082D01*
Y1049008D01*
D02*
G37*
G36*
X913646D02*
X911720D01*
Y1047082D01*
X912187Y1047175D01*
X913006Y1047723D01*
X913553Y1048542D01*
X913646Y1049008D01*
D02*
G37*
G36*
X910721Y1051933D02*
X910254Y1051841D01*
X909435Y1051293D01*
X908888Y1050474D01*
X908795Y1050008D01*
X910721D01*
Y1051933D01*
D02*
G37*
G36*
X766520Y980500D02*
X763000D01*
Y976980D01*
X763558Y977053D01*
X764543Y977461D01*
X765389Y978111D01*
X766039Y978957D01*
X766447Y979942D01*
X766520Y980500D01*
D02*
G37*
G36*
X762000Y985020D02*
X761442Y984947D01*
X760457Y984539D01*
X759611Y983889D01*
X758961Y983043D01*
X758553Y982058D01*
X758480Y981500D01*
X762000D01*
Y985020D01*
D02*
G37*
G36*
X763000D02*
Y981500D01*
X766520D01*
X766447Y982058D01*
X766039Y983043D01*
X765389Y983889D01*
X764543Y984539D01*
X763558Y984947D01*
X763000Y985020D01*
D02*
G37*
G36*
X918163Y972869D02*
X917619Y972797D01*
X916646Y972394D01*
X915810Y971753D01*
X915169Y970917D01*
X914766Y969944D01*
X914694Y969400D01*
X918163D01*
Y972869D01*
D02*
G37*
G36*
X919163D02*
Y969400D01*
X922632D01*
X922560Y969944D01*
X922157Y970917D01*
X921516Y971753D01*
X920680Y972394D01*
X919707Y972797D01*
X919163Y972869D01*
D02*
G37*
G36*
X762000Y980500D02*
X758480D01*
X758553Y979942D01*
X758961Y978957D01*
X759611Y978111D01*
X760457Y977461D01*
X761442Y977053D01*
X762000Y976980D01*
Y980500D01*
D02*
G37*
G36*
X873827Y1030836D02*
Y1029142D01*
X875521D01*
X875446Y1029519D01*
X874949Y1030264D01*
X874205Y1030761D01*
X873827Y1030836D01*
D02*
G37*
G36*
X878075D02*
X877697Y1030761D01*
X876953Y1030264D01*
X876455Y1029519D01*
X876380Y1029142D01*
X878075D01*
Y1030836D01*
D02*
G37*
G36*
X879075D02*
Y1029142D01*
X880769D01*
X880694Y1029519D01*
X880197Y1030264D01*
X879453Y1030761D01*
X879075Y1030836D01*
D02*
G37*
G36*
X780709Y993388D02*
X779887Y993224D01*
X779190Y992759D01*
X778725Y992062D01*
X778561Y991240D01*
X778725Y990418D01*
X779190Y989722D01*
X779887Y989256D01*
X780709Y989093D01*
X781531Y989256D01*
X782227Y989722D01*
X782478Y990096D01*
X871033D01*
X871414Y989525D01*
X872111Y989059D01*
X872933Y988896D01*
X873755Y989059D01*
X874452Y989525D01*
X874917Y990222D01*
X875081Y991043D01*
X874917Y991865D01*
X874452Y992562D01*
X873755Y993027D01*
X872933Y993191D01*
X872111Y993027D01*
X871414Y992562D01*
X871296Y992384D01*
X782478D01*
X782227Y992759D01*
X781531Y993224D01*
X780709Y993388D01*
D02*
G37*
G36*
X867717Y1015533D02*
X866895Y1015370D01*
X866198Y1014904D01*
X865732Y1014208D01*
X865569Y1013386D01*
X865732Y1012564D01*
X866198Y1011867D01*
X866895Y1011402D01*
X867600Y1011261D01*
Y1010042D01*
X867688Y1009602D01*
X867937Y1009228D01*
X870643Y1006522D01*
X870594Y1006024D01*
X870332Y1005849D01*
X869866Y1005153D01*
X869703Y1004331D01*
X869791Y1003889D01*
X865766Y999864D01*
X766631D01*
X766381Y1000239D01*
X765684Y1000705D01*
X764862Y1000868D01*
X764040Y1000705D01*
X763344Y1000239D01*
X762878Y999542D01*
X762715Y998720D01*
X762878Y997899D01*
X763344Y997202D01*
X764040Y996736D01*
X764862Y996573D01*
X765684Y996736D01*
X766381Y997202D01*
X766631Y997576D01*
X771275D01*
X771510Y997136D01*
X771343Y996885D01*
X771179Y996063D01*
X771343Y995241D01*
X771808Y994544D01*
X772505Y994079D01*
X773327Y993915D01*
X774149Y994079D01*
X774845Y994544D01*
X775096Y994919D01*
X870276D01*
X870713Y995006D01*
X871084Y995254D01*
X874755Y998925D01*
X875197Y998837D01*
X876019Y999000D01*
X876715Y999466D01*
X877181Y1000162D01*
X877226Y1000388D01*
X877704Y1000533D01*
X889584Y988654D01*
X889958Y988404D01*
X890399Y988317D01*
X903965D01*
X904247Y987817D01*
X904152Y987660D01*
X789367D01*
X789314Y987739D01*
X788617Y988205D01*
X787795Y988368D01*
X786973Y988205D01*
X786277Y987739D01*
X785811Y987042D01*
X785648Y986220D01*
X785811Y985399D01*
X786277Y984702D01*
X786973Y984236D01*
X787795Y984073D01*
X788617Y984236D01*
X789314Y984702D01*
X789761Y985372D01*
X904530D01*
X904781Y984997D01*
X905477Y984532D01*
X906299Y984368D01*
X907121Y984532D01*
X907818Y984997D01*
X908283Y985694D01*
X908447Y986516D01*
X908283Y987338D01*
X907963Y987817D01*
X908227Y988317D01*
X927617D01*
X944533Y971401D01*
Y964770D01*
X952793D01*
Y972434D01*
X953293Y972641D01*
X955025Y970909D01*
X954639Y969978D01*
X954497Y968900D01*
X954639Y967822D01*
X955056Y966817D01*
X955717Y965954D01*
X956580Y965292D01*
X957585Y964876D01*
X958663Y964734D01*
X959741Y964876D01*
X960746Y965292D01*
X961609Y965954D01*
X962271Y966817D01*
X962687Y967822D01*
X962829Y968900D01*
X962687Y969978D01*
X962271Y970983D01*
X961609Y971846D01*
X960746Y972507D01*
X959741Y972924D01*
X958663Y973066D01*
X957585Y972924D01*
X956654Y972538D01*
X936842Y992350D01*
X936468Y992600D01*
X936028Y992688D01*
X891422D01*
X873420Y1010690D01*
X873506Y1011122D01*
X873342Y1011944D01*
X872877Y1012641D01*
X872180Y1013106D01*
X871358Y1013270D01*
X870536Y1013106D01*
X870285Y1012938D01*
X869835Y1013239D01*
X869864Y1013386D01*
X869701Y1014208D01*
X869235Y1014904D01*
X868538Y1015370D01*
X867717Y1015533D01*
D02*
G37*
G36*
X872827Y1030836D02*
X872449Y1030761D01*
X871705Y1030264D01*
X871207Y1029519D01*
X871132Y1029142D01*
X872827D01*
Y1030836D01*
D02*
G37*
G36*
X909163Y972869D02*
Y969400D01*
X912632D01*
X912560Y969944D01*
X912157Y970917D01*
X911516Y971753D01*
X910680Y972394D01*
X909707Y972797D01*
X909163Y972869D01*
D02*
G37*
G36*
X918163Y968400D02*
X914694D01*
X914766Y967856D01*
X915169Y966883D01*
X915810Y966047D01*
X916646Y965406D01*
X917619Y965003D01*
X918163Y964931D01*
Y968400D01*
D02*
G37*
G36*
X922632D02*
X919163D01*
Y964931D01*
X919707Y965003D01*
X920680Y965406D01*
X921516Y966047D01*
X922157Y966883D01*
X922560Y967856D01*
X922632Y968400D01*
D02*
G37*
G36*
X858663Y972561D02*
X857715Y972437D01*
X856832Y972071D01*
X856074Y971489D01*
X855492Y970731D01*
X855126Y969848D01*
X855002Y968900D01*
X855126Y967952D01*
X855492Y967069D01*
X856074Y966311D01*
X856832Y965729D01*
X857715Y965364D01*
X858663Y965239D01*
X859611Y965364D01*
X860494Y965729D01*
X861252Y966311D01*
X861834Y967069D01*
X862199Y967952D01*
X862324Y968900D01*
X862199Y969848D01*
X861834Y970731D01*
X861252Y971489D01*
X860494Y972071D01*
X859611Y972437D01*
X858663Y972561D01*
D02*
G37*
G36*
X803700Y976366D02*
X802244Y976222D01*
X800843Y975798D01*
X799552Y975108D01*
X798421Y974179D01*
X797492Y973048D01*
X796802Y971757D01*
X796378Y970356D01*
X796234Y968900D01*
X796378Y967443D01*
X796802Y966043D01*
X797492Y964752D01*
X798421Y963621D01*
X799552Y962692D01*
X800843Y962002D01*
X802244Y961578D01*
X803700Y961434D01*
X805157Y961578D01*
X806557Y962002D01*
X807848Y962692D01*
X808979Y963621D01*
X809908Y964752D01*
X810598Y966043D01*
X811022Y967443D01*
X811166Y968900D01*
X811022Y970356D01*
X810598Y971757D01*
X809908Y973048D01*
X808979Y974179D01*
X807848Y975108D01*
X806557Y975798D01*
X805157Y976222D01*
X803700Y976366D01*
D02*
G37*
G36*
X908163Y968400D02*
X904694D01*
X904766Y967856D01*
X905169Y966883D01*
X905810Y966047D01*
X906646Y965406D01*
X907619Y965003D01*
X908163Y964931D01*
Y968400D01*
D02*
G37*
G36*
X912632D02*
X909163D01*
Y964931D01*
X909707Y965003D01*
X910680Y965406D01*
X911516Y966047D01*
X912157Y966883D01*
X912560Y967856D01*
X912632Y968400D01*
D02*
G37*
G36*
X898663Y972561D02*
X897715Y972437D01*
X896832Y972071D01*
X896074Y971489D01*
X895492Y970731D01*
X895127Y969848D01*
X895002Y968900D01*
X895127Y967952D01*
X895492Y967069D01*
X896074Y966311D01*
X896832Y965729D01*
X897715Y965364D01*
X898663Y965239D01*
X899611Y965364D01*
X900494Y965729D01*
X901252Y966311D01*
X901834Y967069D01*
X902199Y967952D01*
X902324Y968900D01*
X902199Y969848D01*
X901834Y970731D01*
X901252Y971489D01*
X900494Y972071D01*
X899611Y972437D01*
X898663Y972561D01*
D02*
G37*
G36*
X918724Y980484D02*
X785236D01*
X784606Y980359D01*
X784072Y980002D01*
X776716Y972646D01*
X766181D01*
Y974681D01*
X758819D01*
Y967319D01*
X766181D01*
Y969354D01*
X777398D01*
X778027Y969479D01*
X778561Y969836D01*
X785918Y977193D01*
X918043D01*
X925203Y970032D01*
X925126Y969848D01*
X925002Y968900D01*
X925126Y967952D01*
X925492Y967069D01*
X926074Y966311D01*
X926832Y965729D01*
X927715Y965364D01*
X928663Y965239D01*
X929611Y965364D01*
X930494Y965729D01*
X931252Y966311D01*
X931834Y967069D01*
X932199Y967952D01*
X932324Y968900D01*
X932199Y969848D01*
X931834Y970731D01*
X931252Y971489D01*
X930494Y972071D01*
X929611Y972437D01*
X928663Y972561D01*
X927715Y972437D01*
X927531Y972360D01*
X919888Y980002D01*
X919354Y980359D01*
X918724Y980484D01*
D02*
G37*
G36*
X908163Y972869D02*
X907619Y972797D01*
X906646Y972394D01*
X905810Y971753D01*
X905169Y970917D01*
X904766Y969944D01*
X904694Y969400D01*
X908163D01*
Y972869D01*
D02*
G37*
G36*
X868663Y972561D02*
X867715Y972437D01*
X866832Y972071D01*
X866074Y971489D01*
X865492Y970731D01*
X865127Y969848D01*
X865002Y968900D01*
X865127Y967952D01*
X865492Y967069D01*
X866074Y966311D01*
X866832Y965729D01*
X867715Y965364D01*
X868663Y965239D01*
X869611Y965364D01*
X870494Y965729D01*
X871252Y966311D01*
X871834Y967069D01*
X872200Y967952D01*
X872324Y968900D01*
X872200Y969848D01*
X871834Y970731D01*
X871252Y971489D01*
X870494Y972071D01*
X869611Y972437D01*
X868663Y972561D01*
D02*
G37*
G36*
X878663D02*
X877715Y972437D01*
X876832Y972071D01*
X876074Y971489D01*
X875492Y970731D01*
X875126Y969848D01*
X875002Y968900D01*
X875126Y967952D01*
X875492Y967069D01*
X876074Y966311D01*
X876832Y965729D01*
X877715Y965364D01*
X878663Y965239D01*
X879611Y965364D01*
X880494Y965729D01*
X881252Y966311D01*
X881834Y967069D01*
X882199Y967952D01*
X882324Y968900D01*
X882199Y969848D01*
X881834Y970731D01*
X881252Y971489D01*
X880494Y972071D01*
X879611Y972437D01*
X878663Y972561D01*
D02*
G37*
G36*
X888663D02*
X887715Y972437D01*
X886832Y972071D01*
X886074Y971489D01*
X885492Y970731D01*
X885126Y969848D01*
X885002Y968900D01*
X885126Y967952D01*
X885492Y967069D01*
X886074Y966311D01*
X886832Y965729D01*
X887715Y965364D01*
X888663Y965239D01*
X889611Y965364D01*
X890494Y965729D01*
X891252Y966311D01*
X891834Y967069D01*
X892200Y967952D01*
X892324Y968900D01*
X892200Y969848D01*
X891834Y970731D01*
X891252Y971489D01*
X890494Y972071D01*
X889611Y972437D01*
X888663Y972561D01*
D02*
G37*
G36*
X883327Y1036084D02*
X882949Y1036009D01*
X882205Y1035512D01*
X881707Y1034768D01*
X881632Y1034390D01*
X883327D01*
Y1036084D01*
D02*
G37*
G36*
X884327D02*
Y1034390D01*
X886021D01*
X885946Y1034768D01*
X885449Y1035512D01*
X884705Y1036009D01*
X884327Y1036084D01*
D02*
G37*
G36*
X888575D02*
X888197Y1036009D01*
X887453Y1035512D01*
X886955Y1034768D01*
X886880Y1034390D01*
X888575D01*
Y1036084D01*
D02*
G37*
G36*
X918709Y1034414D02*
Y1032488D01*
X920634D01*
X920541Y1032954D01*
X919994Y1033774D01*
X919175Y1034321D01*
X918709Y1034414D01*
D02*
G37*
G36*
X878075Y1036084D02*
X877697Y1036009D01*
X876953Y1035512D01*
X876455Y1034768D01*
X876380Y1034390D01*
X878075D01*
Y1036084D01*
D02*
G37*
G36*
X879075D02*
Y1034390D01*
X880769D01*
X880694Y1034768D01*
X880197Y1035512D01*
X879453Y1036009D01*
X879075Y1036084D01*
D02*
G37*
G36*
X861811Y1036498D02*
X860989Y1036335D01*
X860293Y1035869D01*
X860048Y1035503D01*
X831127D01*
X830948Y1035771D01*
X830251Y1036236D01*
X829429Y1036399D01*
X828607Y1036236D01*
X827911Y1035771D01*
X827445Y1035074D01*
X827282Y1034252D01*
X827445Y1033430D01*
X827911Y1032733D01*
X828607Y1032268D01*
X829429Y1032104D01*
X830251Y1032268D01*
X830948Y1032733D01*
X831258Y1033198D01*
X860048D01*
X860293Y1032832D01*
X860989Y1032366D01*
X861811Y1032203D01*
X862633Y1032366D01*
X863330Y1032832D01*
X863795Y1033529D01*
X863959Y1034350D01*
X863795Y1035172D01*
X863330Y1035869D01*
X862633Y1036335D01*
X861811Y1036498D01*
D02*
G37*
G36*
X872827Y1038640D02*
X871132D01*
X871207Y1038262D01*
X871705Y1037518D01*
X872449Y1037021D01*
X872827Y1036946D01*
Y1038640D01*
D02*
G37*
G36*
X875521D02*
X873827D01*
Y1036946D01*
X874205Y1037021D01*
X874949Y1037518D01*
X875446Y1038262D01*
X875521Y1038640D01*
D02*
G37*
G36*
X889575Y1036084D02*
Y1034390D01*
X891269D01*
X891194Y1034768D01*
X890697Y1035512D01*
X889953Y1036009D01*
X889575Y1036084D01*
D02*
G37*
G36*
X872827Y1036086D02*
X872449Y1036010D01*
X871705Y1035513D01*
X871207Y1034769D01*
X871132Y1034391D01*
X872827D01*
Y1036086D01*
D02*
G37*
G36*
X873827D02*
Y1034391D01*
X875521D01*
X875446Y1034769D01*
X874949Y1035513D01*
X874205Y1036010D01*
X873827Y1036086D01*
D02*
G37*
G36*
X917709Y1034414D02*
X917242Y1034321D01*
X916423Y1033774D01*
X915876Y1032954D01*
X915783Y1032488D01*
X917709D01*
Y1034414D01*
D02*
G37*
G36*
X889575Y1030836D02*
Y1029142D01*
X891269D01*
X891194Y1029519D01*
X890697Y1030264D01*
X889953Y1030761D01*
X889575Y1030836D01*
D02*
G37*
G36*
X878075Y1033390D02*
X876380D01*
X876455Y1033012D01*
X876953Y1032268D01*
X877697Y1031770D01*
X878075Y1031695D01*
Y1033390D01*
D02*
G37*
G36*
X880769D02*
X879075D01*
Y1031695D01*
X879453Y1031770D01*
X880197Y1032268D01*
X880694Y1033012D01*
X880769Y1033390D01*
D02*
G37*
G36*
X883327Y1030836D02*
X882949Y1030761D01*
X882205Y1030264D01*
X881707Y1029519D01*
X881632Y1029142D01*
X883327D01*
Y1030836D01*
D02*
G37*
G36*
X884327D02*
Y1029142D01*
X886021D01*
X885946Y1029519D01*
X885449Y1030264D01*
X884705Y1030761D01*
X884327Y1030836D01*
D02*
G37*
G36*
X888575D02*
X888197Y1030761D01*
X887453Y1030264D01*
X886955Y1029519D01*
X886880Y1029142D01*
X888575D01*
Y1030836D01*
D02*
G37*
G36*
X891269Y1033390D02*
X889575D01*
Y1031695D01*
X889953Y1031770D01*
X890697Y1032268D01*
X891194Y1033012D01*
X891269Y1033390D01*
D02*
G37*
G36*
X872827Y1033391D02*
X871132D01*
X871207Y1033013D01*
X871705Y1032269D01*
X872449Y1031772D01*
X872827Y1031696D01*
Y1033391D01*
D02*
G37*
G36*
X875521D02*
X873827D01*
Y1031696D01*
X874205Y1031772D01*
X874949Y1032269D01*
X875446Y1033013D01*
X875521Y1033391D01*
D02*
G37*
G36*
X883327Y1033390D02*
X881632D01*
X881707Y1033012D01*
X882205Y1032268D01*
X882949Y1031770D01*
X883327Y1031695D01*
Y1033390D01*
D02*
G37*
G36*
X886021D02*
X884327D01*
Y1031695D01*
X884705Y1031770D01*
X885449Y1032268D01*
X885946Y1033012D01*
X886021Y1033390D01*
D02*
G37*
G36*
X888575D02*
X886880D01*
X886955Y1033012D01*
X887453Y1032268D01*
X888197Y1031770D01*
X888575Y1031695D01*
Y1033390D01*
D02*
G37*
G36*
X802650Y1124818D02*
X802015Y1124735D01*
X800958Y1124297D01*
X800050Y1123600D01*
X799353Y1122692D01*
X798915Y1121635D01*
X798832Y1121000D01*
X802650D01*
Y1124818D01*
D02*
G37*
G36*
X803650D02*
Y1121000D01*
X807468D01*
X807384Y1121635D01*
X806946Y1122692D01*
X806250Y1123600D01*
X805342Y1124297D01*
X804284Y1124735D01*
X803650Y1124818D01*
D02*
G37*
G36*
X822335D02*
X821700Y1124735D01*
X820643Y1124297D01*
X819735Y1123600D01*
X819038Y1122692D01*
X818600Y1121635D01*
X818517Y1121000D01*
X822335D01*
Y1124818D01*
D02*
G37*
G36*
X764280D02*
Y1121000D01*
X768098D01*
X768014Y1121635D01*
X767576Y1122692D01*
X766880Y1123600D01*
X765972Y1124297D01*
X764914Y1124735D01*
X764280Y1124818D01*
D02*
G37*
G36*
X782965D02*
X782330Y1124735D01*
X781273Y1124297D01*
X780365Y1123600D01*
X779668Y1122692D01*
X779230Y1121635D01*
X779146Y1121000D01*
X782965D01*
Y1124818D01*
D02*
G37*
G36*
X783965D02*
Y1121000D01*
X787783D01*
X787699Y1121635D01*
X787261Y1122692D01*
X786564Y1123600D01*
X785657Y1124297D01*
X784599Y1124735D01*
X783965Y1124818D01*
D02*
G37*
G36*
X909055Y1134509D02*
X908017Y1134373D01*
X907050Y1133972D01*
X906219Y1133335D01*
X905582Y1132504D01*
X905181Y1131537D01*
X905044Y1130499D01*
X905181Y1129461D01*
X905538Y1128599D01*
X878582Y1101644D01*
X846350D01*
X845993Y1102505D01*
X845356Y1103336D01*
X844525Y1103973D01*
X843558Y1104374D01*
X842520Y1104511D01*
X841482Y1104374D01*
X840514Y1103973D01*
X839684Y1103336D01*
X839046Y1102505D01*
X838690Y1101644D01*
X826665D01*
X826308Y1102505D01*
X825671Y1103336D01*
X824840Y1103973D01*
X823873Y1104374D01*
X822835Y1104511D01*
X821797Y1104374D01*
X820829Y1103973D01*
X819999Y1103336D01*
X819361Y1102505D01*
X819005Y1101644D01*
X806980D01*
X806623Y1102505D01*
X805986Y1103336D01*
X805155Y1103973D01*
X804188Y1104374D01*
X803150Y1104511D01*
X802112Y1104374D01*
X801144Y1103973D01*
X800314Y1103336D01*
X799676Y1102505D01*
X799320Y1101644D01*
X787295D01*
X786938Y1102505D01*
X786301Y1103336D01*
X785470Y1103973D01*
X784503Y1104374D01*
X783465Y1104511D01*
X782427Y1104374D01*
X781459Y1103973D01*
X780629Y1103336D01*
X779991Y1102505D01*
X779635Y1101644D01*
X767610D01*
X767253Y1102505D01*
X766616Y1103336D01*
X765785Y1103973D01*
X764818Y1104374D01*
X763780Y1104511D01*
X762742Y1104374D01*
X761774Y1103973D01*
X760944Y1103336D01*
X760306Y1102505D01*
X759906Y1101538D01*
X759769Y1100500D01*
X759906Y1099462D01*
X760306Y1098495D01*
X760944Y1097664D01*
X761774Y1097027D01*
X762742Y1096626D01*
X763780Y1096489D01*
X764818Y1096626D01*
X765785Y1097027D01*
X766616Y1097664D01*
X767253Y1098495D01*
X767610Y1099356D01*
X779635D01*
X779991Y1098495D01*
X780629Y1097664D01*
X781459Y1097027D01*
X782427Y1096626D01*
X783465Y1096489D01*
X784503Y1096626D01*
X785470Y1097027D01*
X786301Y1097664D01*
X786938Y1098495D01*
X787295Y1099356D01*
X799320D01*
X799676Y1098495D01*
X800314Y1097664D01*
X801144Y1097027D01*
X802112Y1096626D01*
X803150Y1096489D01*
X804188Y1096626D01*
X805155Y1097027D01*
X805986Y1097664D01*
X806623Y1098495D01*
X806980Y1099356D01*
X819005D01*
X819361Y1098495D01*
X819999Y1097664D01*
X820829Y1097027D01*
X821797Y1096626D01*
X822835Y1096489D01*
X823873Y1096626D01*
X824840Y1097027D01*
X825671Y1097664D01*
X826308Y1098495D01*
X826665Y1099356D01*
X838690D01*
X839046Y1098495D01*
X839684Y1097664D01*
X840514Y1097027D01*
X841482Y1096626D01*
X842520Y1096489D01*
X843558Y1096626D01*
X844525Y1097027D01*
X845356Y1097664D01*
X845993Y1098495D01*
X846350Y1099356D01*
X879056D01*
X879494Y1099443D01*
X879865Y1099691D01*
X907156Y1126982D01*
X908017Y1126625D01*
X909055Y1126488D01*
X910093Y1126625D01*
X911061Y1127025D01*
X911891Y1127663D01*
X912529Y1128493D01*
X912929Y1129461D01*
X913066Y1130499D01*
X912929Y1131537D01*
X912529Y1132504D01*
X911891Y1133335D01*
X911061Y1133972D01*
X910093Y1134373D01*
X909055Y1134509D01*
D02*
G37*
G36*
X928740D02*
X927702Y1134373D01*
X926735Y1133972D01*
X925904Y1133335D01*
X925267Y1132504D01*
X924866Y1131537D01*
X924730Y1130499D01*
X924866Y1129461D01*
X925267Y1128493D01*
X925904Y1127663D01*
X926735Y1127025D01*
X927702Y1126625D01*
X928740Y1126488D01*
X929778Y1126625D01*
X930746Y1127025D01*
X931576Y1127663D01*
X932214Y1128493D01*
X932614Y1129461D01*
X932751Y1130499D01*
X932614Y1131537D01*
X932214Y1132504D01*
X931576Y1133335D01*
X930746Y1133972D01*
X929778Y1134373D01*
X928740Y1134509D01*
D02*
G37*
G36*
X767756Y1134476D02*
X759803D01*
Y1126524D01*
X767756D01*
Y1134476D01*
D02*
G37*
G36*
X823335Y1124818D02*
Y1121000D01*
X827153D01*
X827069Y1121635D01*
X826631Y1122692D01*
X825935Y1123600D01*
X825027Y1124297D01*
X823969Y1124735D01*
X823335Y1124818D01*
D02*
G37*
G36*
X842020D02*
X841385Y1124735D01*
X840328Y1124297D01*
X839420Y1123600D01*
X838723Y1122692D01*
X838285Y1121635D01*
X838202Y1121000D01*
X842020D01*
Y1124818D01*
D02*
G37*
G36*
X843020D02*
Y1121000D01*
X846838D01*
X846754Y1121635D01*
X846316Y1122692D01*
X845619Y1123600D01*
X844712Y1124297D01*
X843654Y1124735D01*
X843020Y1124818D01*
D02*
G37*
G36*
X763280D02*
X762645Y1124735D01*
X761588Y1124297D01*
X760680Y1123600D01*
X759983Y1122692D01*
X759545Y1121635D01*
X759461Y1121000D01*
X763280D01*
Y1124818D01*
D02*
G37*
G36*
X909555Y1124817D02*
Y1120999D01*
X913373D01*
X913290Y1121634D01*
X912852Y1122691D01*
X912155Y1123599D01*
X911247Y1124295D01*
X910190Y1124733D01*
X909555Y1124817D01*
D02*
G37*
G36*
X928240D02*
X927606Y1124733D01*
X926548Y1124295D01*
X925640Y1123599D01*
X924944Y1122691D01*
X924506Y1121634D01*
X924422Y1120999D01*
X928240D01*
Y1124817D01*
D02*
G37*
G36*
X929240D02*
Y1120999D01*
X933058D01*
X932975Y1121634D01*
X932537Y1122691D01*
X931840Y1123599D01*
X930932Y1124295D01*
X929875Y1124733D01*
X929240Y1124817D01*
D02*
G37*
G36*
X842020Y1120000D02*
X838202D01*
X838285Y1119365D01*
X838723Y1118308D01*
X839420Y1117400D01*
X840328Y1116703D01*
X841385Y1116265D01*
X842020Y1116182D01*
Y1120000D01*
D02*
G37*
G36*
X846838D02*
X843020D01*
Y1116182D01*
X843654Y1116265D01*
X844712Y1116703D01*
X845619Y1117400D01*
X846316Y1118308D01*
X846754Y1119365D01*
X846838Y1120000D01*
D02*
G37*
G36*
X908555Y1124817D02*
X907921Y1124733D01*
X906863Y1124295D01*
X905955Y1123599D01*
X905259Y1122691D01*
X904821Y1121634D01*
X904737Y1120999D01*
X908555D01*
Y1124817D01*
D02*
G37*
G36*
X968610D02*
Y1120999D01*
X972428D01*
X972345Y1121634D01*
X971907Y1122691D01*
X971210Y1123599D01*
X970302Y1124295D01*
X969245Y1124733D01*
X968610Y1124817D01*
D02*
G37*
G36*
X987295D02*
X986660Y1124733D01*
X985603Y1124295D01*
X984695Y1123599D01*
X983999Y1122691D01*
X983561Y1121634D01*
X983477Y1120999D01*
X987295D01*
Y1124817D01*
D02*
G37*
G36*
X988295D02*
Y1120999D01*
X992113D01*
X992030Y1121634D01*
X991592Y1122691D01*
X990895Y1123599D01*
X989987Y1124295D01*
X988930Y1124733D01*
X988295Y1124817D01*
D02*
G37*
G36*
X947925D02*
X947291Y1124733D01*
X946233Y1124295D01*
X945325Y1123599D01*
X944629Y1122691D01*
X944191Y1121634D01*
X944107Y1120999D01*
X947925D01*
Y1124817D01*
D02*
G37*
G36*
X948925D02*
Y1120999D01*
X952743D01*
X952660Y1121634D01*
X952222Y1122691D01*
X951525Y1123599D01*
X950617Y1124295D01*
X949560Y1124733D01*
X948925Y1124817D01*
D02*
G37*
G36*
X967610D02*
X966975Y1124733D01*
X965918Y1124295D01*
X965010Y1123599D01*
X964314Y1122691D01*
X963876Y1121634D01*
X963792Y1120999D01*
X967610D01*
Y1124817D01*
D02*
G37*
G36*
X787441Y1134476D02*
X779488D01*
Y1126524D01*
X787441D01*
Y1134476D01*
D02*
G37*
G36*
X826344Y1162581D02*
X818982D01*
Y1155219D01*
X826344D01*
Y1162581D01*
D02*
G37*
G36*
X928663Y1162561D02*
X927715Y1162436D01*
X926832Y1162071D01*
X926074Y1161489D01*
X925492Y1160731D01*
X925126Y1159848D01*
X925002Y1158900D01*
X925126Y1157952D01*
X925492Y1157069D01*
X926074Y1156311D01*
X926832Y1155729D01*
X927715Y1155363D01*
X928663Y1155239D01*
X929611Y1155363D01*
X930494Y1155729D01*
X931252Y1156311D01*
X931834Y1157069D01*
X932199Y1157952D01*
X932324Y1158900D01*
X932199Y1159848D01*
X931834Y1160731D01*
X931252Y1161489D01*
X930494Y1162071D01*
X929611Y1162436D01*
X928663Y1162561D01*
D02*
G37*
G36*
X948663D02*
X947715Y1162436D01*
X946832Y1162071D01*
X946074Y1161489D01*
X945492Y1160731D01*
X945127Y1159848D01*
X945002Y1158900D01*
X945127Y1157952D01*
X945492Y1157069D01*
X946074Y1156311D01*
X946832Y1155729D01*
X947715Y1155363D01*
X948663Y1155239D01*
X949611Y1155363D01*
X950494Y1155729D01*
X951252Y1156311D01*
X951834Y1157069D01*
X952199Y1157952D01*
X952324Y1158900D01*
X952199Y1159848D01*
X951834Y1160731D01*
X951252Y1161489D01*
X950494Y1162071D01*
X949611Y1162436D01*
X948663Y1162561D01*
D02*
G37*
G36*
X882663Y1162613D02*
X881702Y1162486D01*
X880807Y1162115D01*
X880038Y1161525D01*
X879448Y1160756D01*
X879077Y1159861D01*
X878950Y1158900D01*
X879077Y1157939D01*
X879448Y1157044D01*
X880038Y1156275D01*
X880807Y1155685D01*
X881702Y1155314D01*
X882663Y1155187D01*
X883624Y1155314D01*
X884519Y1155685D01*
X885288Y1156275D01*
X885878Y1157044D01*
X886249Y1157939D01*
X886376Y1158900D01*
X886249Y1159861D01*
X885878Y1160756D01*
X885288Y1161525D01*
X884519Y1162115D01*
X883624Y1162486D01*
X882663Y1162613D01*
D02*
G37*
G36*
X892663D02*
X891702Y1162486D01*
X890807Y1162115D01*
X890038Y1161525D01*
X889448Y1160756D01*
X889077Y1159861D01*
X888950Y1158900D01*
X889077Y1157939D01*
X889448Y1157044D01*
X890038Y1156275D01*
X890807Y1155685D01*
X891702Y1155314D01*
X892663Y1155187D01*
X893624Y1155314D01*
X894519Y1155685D01*
X895288Y1156275D01*
X895878Y1157044D01*
X896249Y1157939D01*
X896376Y1158900D01*
X896249Y1159861D01*
X895878Y1160756D01*
X895288Y1161525D01*
X894519Y1162115D01*
X893624Y1162486D01*
X892663Y1162613D01*
D02*
G37*
G36*
X902663D02*
X901702Y1162486D01*
X900807Y1162115D01*
X900038Y1161525D01*
X899448Y1160756D01*
X899077Y1159861D01*
X898950Y1158900D01*
X899077Y1157939D01*
X899448Y1157044D01*
X900038Y1156275D01*
X900807Y1155685D01*
X901702Y1155314D01*
X902663Y1155187D01*
X903624Y1155314D01*
X904519Y1155685D01*
X905288Y1156275D01*
X905878Y1157044D01*
X906249Y1157939D01*
X906376Y1158900D01*
X906249Y1159861D01*
X905878Y1160756D01*
X905288Y1161525D01*
X904519Y1162115D01*
X903624Y1162486D01*
X902663Y1162613D01*
D02*
G37*
G36*
X998663Y1162561D02*
X997715Y1162436D01*
X996832Y1162071D01*
X996074Y1161489D01*
X995492Y1160731D01*
X995127Y1159848D01*
X995002Y1158900D01*
X995127Y1157952D01*
X995492Y1157069D01*
X996074Y1156311D01*
X996832Y1155729D01*
X997715Y1155363D01*
X998663Y1155239D01*
X999611Y1155363D01*
X1000494Y1155729D01*
X1001252Y1156311D01*
X1001834Y1157069D01*
X1002199Y1157952D01*
X1002324Y1158900D01*
X1002199Y1159848D01*
X1001834Y1160731D01*
X1001252Y1161489D01*
X1000494Y1162071D01*
X999611Y1162436D01*
X998663Y1162561D01*
D02*
G37*
G36*
X852163Y1162920D02*
X851605Y1162847D01*
X850620Y1162439D01*
X849774Y1161789D01*
X849124Y1160943D01*
X848716Y1159958D01*
X848643Y1159400D01*
X852163D01*
Y1162920D01*
D02*
G37*
G36*
X853163D02*
Y1159400D01*
X856683D01*
X856610Y1159958D01*
X856202Y1160943D01*
X855552Y1161789D01*
X854706Y1162439D01*
X853721Y1162847D01*
X853163Y1162920D01*
D02*
G37*
G36*
X958663Y1162561D02*
X957715Y1162436D01*
X956832Y1162071D01*
X956074Y1161489D01*
X955492Y1160731D01*
X955126Y1159848D01*
X955002Y1158900D01*
X955126Y1157952D01*
X955492Y1157069D01*
X956074Y1156311D01*
X956832Y1155729D01*
X957715Y1155363D01*
X958663Y1155239D01*
X959611Y1155363D01*
X960494Y1155729D01*
X961252Y1156311D01*
X961834Y1157069D01*
X962199Y1157952D01*
X962324Y1158900D01*
X962199Y1159848D01*
X961834Y1160731D01*
X961252Y1161489D01*
X960494Y1162071D01*
X959611Y1162436D01*
X958663Y1162561D01*
D02*
G37*
G36*
X978663D02*
X977715Y1162436D01*
X976832Y1162071D01*
X976074Y1161489D01*
X975492Y1160731D01*
X975126Y1159848D01*
X975002Y1158900D01*
X975126Y1157952D01*
X975492Y1157069D01*
X976074Y1156311D01*
X976832Y1155729D01*
X977715Y1155363D01*
X978663Y1155239D01*
X979611Y1155363D01*
X980494Y1155729D01*
X981252Y1156311D01*
X981834Y1157069D01*
X982199Y1157952D01*
X982324Y1158900D01*
X982199Y1159848D01*
X981834Y1160731D01*
X981252Y1161489D01*
X980494Y1162071D01*
X979611Y1162436D01*
X978663Y1162561D01*
D02*
G37*
G36*
X988663D02*
X987715Y1162436D01*
X986832Y1162071D01*
X986074Y1161489D01*
X985492Y1160731D01*
X985126Y1159848D01*
X985002Y1158900D01*
X985126Y1157952D01*
X985492Y1157069D01*
X986074Y1156311D01*
X986832Y1155729D01*
X987715Y1155363D01*
X988663Y1155239D01*
X989611Y1155363D01*
X990494Y1155729D01*
X991252Y1156311D01*
X991834Y1157069D01*
X992200Y1157952D01*
X992324Y1158900D01*
X992200Y1159848D01*
X991834Y1160731D01*
X991252Y1161489D01*
X990494Y1162071D01*
X989611Y1162436D01*
X988663Y1162561D01*
D02*
G37*
G36*
X872663Y1162613D02*
X871702Y1162486D01*
X870807Y1162115D01*
X870038Y1161525D01*
X869448Y1160756D01*
X869077Y1159861D01*
X868950Y1158900D01*
X869077Y1157939D01*
X869448Y1157044D01*
X870038Y1156275D01*
X870807Y1155685D01*
X871702Y1155314D01*
X872663Y1155187D01*
X873624Y1155314D01*
X874519Y1155685D01*
X875288Y1156275D01*
X875878Y1157044D01*
X876249Y1157939D01*
X876376Y1158900D01*
X876249Y1159861D01*
X875878Y1160756D01*
X875288Y1161525D01*
X874519Y1162115D01*
X873624Y1162486D01*
X872663Y1162613D01*
D02*
G37*
G36*
X987795Y1134509D02*
X986757Y1134373D01*
X985790Y1133972D01*
X984959Y1133335D01*
X984322Y1132504D01*
X983965Y1131643D01*
X971940D01*
X971583Y1132504D01*
X970946Y1133335D01*
X970115Y1133972D01*
X969148Y1134373D01*
X968110Y1134509D01*
X967072Y1134373D01*
X966105Y1133972D01*
X965274Y1133335D01*
X964637Y1132504D01*
X964280Y1131643D01*
X952255D01*
X951899Y1132504D01*
X951261Y1133335D01*
X950430Y1133972D01*
X949463Y1134373D01*
X948425Y1134509D01*
X947387Y1134373D01*
X946420Y1133972D01*
X945589Y1133335D01*
X944952Y1132504D01*
X944551Y1131537D01*
X944415Y1130499D01*
X944551Y1129461D01*
X944952Y1128493D01*
X945589Y1127663D01*
X946420Y1127025D01*
X947387Y1126625D01*
X948425Y1126488D01*
X949463Y1126625D01*
X950430Y1127025D01*
X951261Y1127663D01*
X951899Y1128493D01*
X952255Y1129355D01*
X964280D01*
X964637Y1128493D01*
X965274Y1127663D01*
X966105Y1127025D01*
X967072Y1126625D01*
X968110Y1126488D01*
X969148Y1126625D01*
X970115Y1127025D01*
X970946Y1127663D01*
X971583Y1128493D01*
X971940Y1129355D01*
X983965D01*
X984322Y1128493D01*
X984959Y1127663D01*
X985790Y1127025D01*
X986757Y1126625D01*
X987795Y1126488D01*
X988833Y1126625D01*
X989800Y1127025D01*
X990631Y1127663D01*
X991269Y1128493D01*
X991669Y1129461D01*
X991806Y1130499D01*
X991669Y1131537D01*
X991269Y1132504D01*
X990631Y1133335D01*
X989800Y1133972D01*
X988833Y1134373D01*
X987795Y1134509D01*
D02*
G37*
G36*
X907382Y1146144D02*
X906560Y1145980D01*
X905863Y1145515D01*
X905618Y1145148D01*
X884252D01*
X883811Y1145060D01*
X883437Y1144811D01*
X865196Y1126569D01*
X864764Y1126655D01*
X863942Y1126492D01*
X863245Y1126026D01*
X862780Y1125330D01*
X862616Y1124508D01*
X862780Y1123686D01*
X863245Y1122989D01*
X863942Y1122524D01*
X864764Y1122360D01*
X865586Y1122524D01*
X866282Y1122989D01*
X866748Y1123686D01*
X866911Y1124508D01*
X866825Y1124940D01*
X884729Y1142844D01*
X905618D01*
X905863Y1142478D01*
X906560Y1142012D01*
X907382Y1141848D01*
X908204Y1142012D01*
X908900Y1142478D01*
X909366Y1143174D01*
X909529Y1143996D01*
X909366Y1144818D01*
X908900Y1145515D01*
X908204Y1145980D01*
X907382Y1146144D01*
D02*
G37*
G36*
X968663Y1162561D02*
X967715Y1162436D01*
X966832Y1162071D01*
X966074Y1161489D01*
X965492Y1160731D01*
X965127Y1159848D01*
X965002Y1158900D01*
X965127Y1157952D01*
X965492Y1157069D01*
X966074Y1156311D01*
X966344Y1156104D01*
X966377Y1155605D01*
X955157Y1144384D01*
X954724Y1144470D01*
X953903Y1144307D01*
X953206Y1143841D01*
X952740Y1143145D01*
X952577Y1142323D01*
X952740Y1141501D01*
X953206Y1140804D01*
X953903Y1140339D01*
X954724Y1140175D01*
X955546Y1140339D01*
X956243Y1140804D01*
X956709Y1141501D01*
X956872Y1142323D01*
X956786Y1142755D01*
X969361Y1155331D01*
X969611Y1155363D01*
X970494Y1155729D01*
X971252Y1156311D01*
X971834Y1157069D01*
X972200Y1157952D01*
X972324Y1158900D01*
X972200Y1159848D01*
X971834Y1160731D01*
X971252Y1161489D01*
X970494Y1162071D01*
X969611Y1162436D01*
X968663Y1162561D01*
D02*
G37*
G36*
X807126Y1134476D02*
X799173D01*
Y1126524D01*
X807126D01*
Y1134476D01*
D02*
G37*
G36*
X826811D02*
X818858D01*
Y1126524D01*
X826811D01*
Y1134476D01*
D02*
G37*
G36*
X846496D02*
X838543D01*
Y1126524D01*
X846496D01*
Y1134476D01*
D02*
G37*
G36*
X832663Y1162613D02*
X831702Y1162486D01*
X830807Y1162115D01*
X830038Y1161525D01*
X829448Y1160756D01*
X829077Y1159861D01*
X828950Y1158900D01*
X829077Y1157939D01*
X829448Y1157044D01*
X830038Y1156275D01*
X830807Y1155685D01*
X831702Y1155314D01*
X832663Y1155187D01*
X833624Y1155314D01*
X834519Y1155685D01*
X835288Y1156275D01*
X835878Y1157044D01*
X836249Y1157939D01*
X836376Y1158900D01*
X836249Y1159861D01*
X835878Y1160756D01*
X835288Y1161525D01*
X834519Y1162115D01*
X833624Y1162486D01*
X832663Y1162613D01*
D02*
G37*
G36*
X842663D02*
X841702Y1162486D01*
X840807Y1162115D01*
X840038Y1161525D01*
X839448Y1160756D01*
X839077Y1159861D01*
X838950Y1158900D01*
X839077Y1157939D01*
X839448Y1157044D01*
X840038Y1156275D01*
X840807Y1155685D01*
X841702Y1155314D01*
X842663Y1155187D01*
X843624Y1155314D01*
X844519Y1155685D01*
X845288Y1156275D01*
X845878Y1157044D01*
X846249Y1157939D01*
X846376Y1158900D01*
X846249Y1159861D01*
X845878Y1160756D01*
X845288Y1161525D01*
X844519Y1162115D01*
X843624Y1162486D01*
X842663Y1162613D01*
D02*
G37*
G36*
X862663D02*
X861702Y1162486D01*
X860807Y1162115D01*
X860038Y1161525D01*
X859448Y1160756D01*
X859077Y1159861D01*
X858950Y1158900D01*
X859077Y1157939D01*
X859448Y1157044D01*
X860038Y1156275D01*
X860807Y1155685D01*
X861702Y1155314D01*
X862663Y1155187D01*
X863624Y1155314D01*
X864519Y1155685D01*
X865288Y1156275D01*
X865878Y1157044D01*
X866249Y1157939D01*
X866376Y1158900D01*
X866249Y1159861D01*
X865878Y1160756D01*
X865288Y1161525D01*
X864519Y1162115D01*
X863624Y1162486D01*
X862663Y1162613D01*
D02*
G37*
G36*
X808700Y1166366D02*
X807244Y1166222D01*
X805843Y1165798D01*
X804552Y1165108D01*
X803421Y1164179D01*
X802492Y1163048D01*
X801802Y1161757D01*
X801378Y1160357D01*
X801234Y1158900D01*
X801378Y1157444D01*
X801802Y1156043D01*
X802492Y1154752D01*
X803421Y1153621D01*
X804552Y1152692D01*
X805843Y1152002D01*
X807244Y1151578D01*
X808700Y1151434D01*
X810157Y1151578D01*
X811557Y1152002D01*
X812848Y1152692D01*
X813979Y1153621D01*
X814908Y1154752D01*
X815598Y1156043D01*
X816022Y1157444D01*
X816166Y1158900D01*
X816022Y1160357D01*
X815598Y1161757D01*
X814908Y1163048D01*
X813979Y1164179D01*
X812848Y1165108D01*
X811557Y1165798D01*
X810157Y1166222D01*
X808700Y1166366D01*
D02*
G37*
G36*
X852163Y1158400D02*
X848643D01*
X848716Y1157842D01*
X849124Y1156857D01*
X849774Y1156011D01*
X850620Y1155361D01*
X851605Y1154953D01*
X852163Y1154880D01*
Y1158400D01*
D02*
G37*
G36*
X856683D02*
X853163D01*
Y1154880D01*
X853721Y1154953D01*
X854706Y1155361D01*
X855552Y1156011D01*
X856202Y1156857D01*
X856610Y1157842D01*
X856683Y1158400D01*
D02*
G37*
G36*
X929240Y1114817D02*
Y1110999D01*
X933058D01*
X932975Y1111633D01*
X932537Y1112691D01*
X931840Y1113599D01*
X930932Y1114295D01*
X929875Y1114733D01*
X929240Y1114817D01*
D02*
G37*
G36*
X947925D02*
X947291Y1114733D01*
X946233Y1114295D01*
X945325Y1113599D01*
X944629Y1112691D01*
X944191Y1111633D01*
X944107Y1110999D01*
X947925D01*
Y1114817D01*
D02*
G37*
G36*
X948925D02*
Y1110999D01*
X952743D01*
X952660Y1111633D01*
X952222Y1112691D01*
X951525Y1113599D01*
X950617Y1114295D01*
X949560Y1114733D01*
X948925Y1114817D01*
D02*
G37*
G36*
X908555D02*
X907921Y1114733D01*
X906863Y1114295D01*
X905955Y1113599D01*
X905259Y1112691D01*
X904821Y1111633D01*
X904737Y1110999D01*
X908555D01*
Y1114817D01*
D02*
G37*
G36*
X909555D02*
Y1110999D01*
X913373D01*
X913290Y1111633D01*
X912852Y1112691D01*
X912155Y1113599D01*
X911247Y1114295D01*
X910190Y1114733D01*
X909555Y1114817D01*
D02*
G37*
G36*
X928240D02*
X927606Y1114733D01*
X926548Y1114295D01*
X925640Y1113599D01*
X924944Y1112691D01*
X924506Y1111633D01*
X924422Y1110999D01*
X928240D01*
Y1114817D01*
D02*
G37*
G36*
X988295D02*
Y1110999D01*
X992113D01*
X992030Y1111633D01*
X991592Y1112691D01*
X990895Y1113599D01*
X989987Y1114295D01*
X988930Y1114733D01*
X988295Y1114817D01*
D02*
G37*
G36*
X763280Y1114818D02*
X762645Y1114735D01*
X761588Y1114297D01*
X760680Y1113600D01*
X759983Y1112692D01*
X759545Y1111635D01*
X759461Y1111000D01*
X763280D01*
Y1114818D01*
D02*
G37*
G36*
X764280D02*
Y1111000D01*
X768098D01*
X768014Y1111635D01*
X767576Y1112692D01*
X766880Y1113600D01*
X765972Y1114297D01*
X764914Y1114735D01*
X764280Y1114818D01*
D02*
G37*
G36*
X967610Y1114817D02*
X966975Y1114733D01*
X965918Y1114295D01*
X965010Y1113599D01*
X964314Y1112691D01*
X963876Y1111633D01*
X963792Y1110999D01*
X967610D01*
Y1114817D01*
D02*
G37*
G36*
X968610D02*
Y1110999D01*
X972428D01*
X972345Y1111633D01*
X971907Y1112691D01*
X971210Y1113599D01*
X970302Y1114295D01*
X969245Y1114733D01*
X968610Y1114817D01*
D02*
G37*
G36*
X987295D02*
X986660Y1114733D01*
X985603Y1114295D01*
X984695Y1113599D01*
X983999Y1112691D01*
X983561Y1111633D01*
X983477Y1110999D01*
X987295D01*
Y1114817D01*
D02*
G37*
G36*
X846838Y1110000D02*
X843020D01*
Y1106182D01*
X843654Y1106265D01*
X844712Y1106703D01*
X845619Y1107400D01*
X846316Y1108308D01*
X846754Y1109365D01*
X846838Y1110000D01*
D02*
G37*
G36*
X763280D02*
X759461D01*
X759545Y1109365D01*
X759983Y1108308D01*
X760680Y1107400D01*
X761588Y1106703D01*
X762645Y1106265D01*
X763280Y1106182D01*
Y1110000D01*
D02*
G37*
G36*
X768098D02*
X764280D01*
Y1106182D01*
X764914Y1106265D01*
X765972Y1106703D01*
X766880Y1107400D01*
X767576Y1108308D01*
X768014Y1109365D01*
X768098Y1110000D01*
D02*
G37*
G36*
X782965D02*
X779146D01*
X779230Y1109365D01*
X779668Y1108308D01*
X780365Y1107400D01*
X781273Y1106703D01*
X782330Y1106265D01*
X782965Y1106182D01*
Y1110000D01*
D02*
G37*
G36*
X972428Y1109999D02*
X968610D01*
Y1106181D01*
X969245Y1106264D01*
X970302Y1106702D01*
X971210Y1107399D01*
X971907Y1108307D01*
X972345Y1109364D01*
X972428Y1109999D01*
D02*
G37*
G36*
X987295D02*
X983477D01*
X983561Y1109364D01*
X983999Y1108307D01*
X984695Y1107399D01*
X985603Y1106702D01*
X986660Y1106264D01*
X987295Y1106181D01*
Y1109999D01*
D02*
G37*
G36*
X992113D02*
X988295D01*
Y1106181D01*
X988930Y1106264D01*
X989987Y1106702D01*
X990895Y1107399D01*
X991592Y1108307D01*
X992030Y1109364D01*
X992113Y1109999D01*
D02*
G37*
G36*
X822335Y1110000D02*
X818517D01*
X818600Y1109365D01*
X819038Y1108308D01*
X819735Y1107400D01*
X820643Y1106703D01*
X821700Y1106265D01*
X822335Y1106182D01*
Y1110000D01*
D02*
G37*
G36*
X827153D02*
X823335D01*
Y1106182D01*
X823969Y1106265D01*
X825027Y1106703D01*
X825935Y1107400D01*
X826631Y1108308D01*
X827069Y1109365D01*
X827153Y1110000D01*
D02*
G37*
G36*
X842020D02*
X838202D01*
X838285Y1109365D01*
X838723Y1108308D01*
X839420Y1107400D01*
X840328Y1106703D01*
X841385Y1106265D01*
X842020Y1106182D01*
Y1110000D01*
D02*
G37*
G36*
X787783D02*
X783965D01*
Y1106182D01*
X784599Y1106265D01*
X785657Y1106703D01*
X786564Y1107400D01*
X787261Y1108308D01*
X787699Y1109365D01*
X787783Y1110000D01*
D02*
G37*
G36*
X802650D02*
X798832D01*
X798915Y1109365D01*
X799353Y1108308D01*
X800050Y1107400D01*
X800958Y1106703D01*
X802015Y1106265D01*
X802650Y1106182D01*
Y1110000D01*
D02*
G37*
G36*
X807468D02*
X803650D01*
Y1106182D01*
X804284Y1106265D01*
X805342Y1106703D01*
X806250Y1107400D01*
X806946Y1108308D01*
X807384Y1109365D01*
X807468Y1110000D01*
D02*
G37*
G36*
X782965Y1114818D02*
X782330Y1114735D01*
X781273Y1114297D01*
X780365Y1113600D01*
X779668Y1112692D01*
X779230Y1111635D01*
X779146Y1111000D01*
X782965D01*
Y1114818D01*
D02*
G37*
G36*
X987295Y1119999D02*
X983477D01*
X983561Y1119364D01*
X983999Y1118307D01*
X984695Y1117399D01*
X985603Y1116702D01*
X986660Y1116264D01*
X987295Y1116181D01*
Y1119999D01*
D02*
G37*
G36*
X992113D02*
X988295D01*
Y1116181D01*
X988930Y1116264D01*
X989987Y1116702D01*
X990895Y1117399D01*
X991592Y1118307D01*
X992030Y1119364D01*
X992113Y1119999D01*
D02*
G37*
G36*
X763280Y1120000D02*
X759461D01*
X759545Y1119365D01*
X759983Y1118308D01*
X760680Y1117400D01*
X761588Y1116703D01*
X762645Y1116265D01*
X763280Y1116182D01*
Y1120000D01*
D02*
G37*
G36*
X952743Y1119999D02*
X948925D01*
Y1116181D01*
X949560Y1116264D01*
X950617Y1116702D01*
X951525Y1117399D01*
X952222Y1118307D01*
X952660Y1119364D01*
X952743Y1119999D01*
D02*
G37*
G36*
X967610D02*
X963792D01*
X963876Y1119364D01*
X964314Y1118307D01*
X965010Y1117399D01*
X965918Y1116702D01*
X966975Y1116264D01*
X967610Y1116181D01*
Y1119999D01*
D02*
G37*
G36*
X972428D02*
X968610D01*
Y1116181D01*
X969245Y1116264D01*
X970302Y1116702D01*
X971210Y1117399D01*
X971907Y1118307D01*
X972345Y1119364D01*
X972428Y1119999D01*
D02*
G37*
G36*
X768098Y1120000D02*
X764280D01*
Y1116182D01*
X764914Y1116265D01*
X765972Y1116703D01*
X766880Y1117400D01*
X767576Y1118308D01*
X768014Y1119365D01*
X768098Y1120000D01*
D02*
G37*
G36*
X807468D02*
X803650D01*
Y1116182D01*
X804284Y1116265D01*
X805342Y1116703D01*
X806250Y1117400D01*
X806946Y1118308D01*
X807384Y1119365D01*
X807468Y1120000D01*
D02*
G37*
G36*
X822335D02*
X818517D01*
X818600Y1119365D01*
X819038Y1118308D01*
X819735Y1117400D01*
X820643Y1116703D01*
X821700Y1116265D01*
X822335Y1116182D01*
Y1120000D01*
D02*
G37*
G36*
X827153D02*
X823335D01*
Y1116182D01*
X823969Y1116265D01*
X825027Y1116703D01*
X825935Y1117400D01*
X826631Y1118308D01*
X827069Y1119365D01*
X827153Y1120000D01*
D02*
G37*
G36*
X782965D02*
X779146D01*
X779230Y1119365D01*
X779668Y1118308D01*
X780365Y1117400D01*
X781273Y1116703D01*
X782330Y1116265D01*
X782965Y1116182D01*
Y1120000D01*
D02*
G37*
G36*
X787783D02*
X783965D01*
Y1116182D01*
X784599Y1116265D01*
X785657Y1116703D01*
X786564Y1117400D01*
X787261Y1118308D01*
X787699Y1119365D01*
X787783Y1120000D01*
D02*
G37*
G36*
X802650D02*
X798832D01*
X798915Y1119365D01*
X799353Y1118308D01*
X800050Y1117400D01*
X800958Y1116703D01*
X802015Y1116265D01*
X802650Y1116182D01*
Y1120000D01*
D02*
G37*
G36*
X822335Y1114818D02*
X821700Y1114735D01*
X820643Y1114297D01*
X819735Y1113600D01*
X819038Y1112692D01*
X818600Y1111635D01*
X818517Y1111000D01*
X822335D01*
Y1114818D01*
D02*
G37*
G36*
X823335D02*
Y1111000D01*
X827153D01*
X827069Y1111635D01*
X826631Y1112692D01*
X825935Y1113600D01*
X825027Y1114297D01*
X823969Y1114735D01*
X823335Y1114818D01*
D02*
G37*
G36*
X842020D02*
X841385Y1114735D01*
X840328Y1114297D01*
X839420Y1113600D01*
X838723Y1112692D01*
X838285Y1111635D01*
X838202Y1111000D01*
X842020D01*
Y1114818D01*
D02*
G37*
G36*
X783965D02*
Y1111000D01*
X787783D01*
X787699Y1111635D01*
X787261Y1112692D01*
X786564Y1113600D01*
X785657Y1114297D01*
X784599Y1114735D01*
X783965Y1114818D01*
D02*
G37*
G36*
X802650D02*
X802015Y1114735D01*
X800958Y1114297D01*
X800050Y1113600D01*
X799353Y1112692D01*
X798915Y1111635D01*
X798832Y1111000D01*
X802650D01*
Y1114818D01*
D02*
G37*
G36*
X803650D02*
Y1111000D01*
X807468D01*
X807384Y1111635D01*
X806946Y1112692D01*
X806250Y1113600D01*
X805342Y1114297D01*
X804284Y1114735D01*
X803650Y1114818D01*
D02*
G37*
G36*
X843020D02*
Y1111000D01*
X846838D01*
X846754Y1111635D01*
X846316Y1112692D01*
X845619Y1113600D01*
X844712Y1114297D01*
X843654Y1114735D01*
X843020Y1114818D01*
D02*
G37*
G36*
X928240Y1119999D02*
X924422D01*
X924506Y1119364D01*
X924944Y1118307D01*
X925640Y1117399D01*
X926548Y1116702D01*
X927606Y1116264D01*
X928240Y1116181D01*
Y1119999D01*
D02*
G37*
G36*
X933058D02*
X929240D01*
Y1116181D01*
X929875Y1116264D01*
X930932Y1116702D01*
X931840Y1117399D01*
X932537Y1118307D01*
X932975Y1119364D01*
X933058Y1119999D01*
D02*
G37*
G36*
X947925D02*
X944107D01*
X944191Y1119364D01*
X944629Y1118307D01*
X945325Y1117399D01*
X946233Y1116702D01*
X947291Y1116264D01*
X947925Y1116181D01*
Y1119999D01*
D02*
G37*
G36*
X908555D02*
X904737D01*
X904821Y1119364D01*
X905259Y1118307D01*
X905955Y1117399D01*
X906863Y1116702D01*
X907921Y1116264D01*
X908555Y1116181D01*
Y1119999D01*
D02*
G37*
G36*
X913373D02*
X909555D01*
Y1116181D01*
X910190Y1116264D01*
X911247Y1116702D01*
X912155Y1117399D01*
X912852Y1118307D01*
X913290Y1119364D01*
X913373Y1119999D01*
D02*
G37*
%LPD*%
G36*
X952404Y973530D02*
X952197Y973030D01*
X946162D01*
X929309Y989883D01*
X929516Y990383D01*
X935550D01*
X952404Y973530D01*
D02*
G37*
D22*
X968663Y1156261D02*
Y1158900D01*
X954724Y1142323D02*
X968663Y1156261D01*
X884252Y1143996D02*
X907382D01*
X864764Y1124508D02*
X884252Y1143996D01*
X848720Y1095768D02*
X864764D01*
X818209Y1065256D02*
X848720Y1095768D01*
X818209Y1029626D02*
Y1065256D01*
Y1029626D02*
X825394Y1022441D01*
X862500D01*
X928094Y989468D02*
X948663Y968900D01*
X890399Y989468D02*
X928094D01*
X872930Y1006937D02*
X890399Y989468D01*
X871857Y1006937D02*
X872930D01*
X868752Y1010042D02*
X871857Y1006937D01*
X868752Y1010042D02*
Y1012350D01*
X867717Y1013386D02*
X868752Y1012350D01*
X936028Y991535D02*
X958663Y968900D01*
X890945Y991535D02*
X936028D01*
X871358Y1011122D02*
X890945Y991535D01*
X893012Y995079D02*
X942484D01*
X968663Y968900D01*
X886319Y1001772D02*
X893012Y995079D01*
X949630Y997933D02*
X978663Y968900D01*
X899606Y997933D02*
X949630D01*
X955102Y1002461D02*
X988663Y968900D01*
X899705Y1002461D02*
X955102D01*
X960279Y1007283D02*
X998663Y968900D01*
X899213Y1007283D02*
X960279D01*
X916307Y1033890D02*
X918209Y1031988D01*
X889075Y1033890D02*
X916307D01*
X923327Y1030217D02*
X964075D01*
X921653Y1028543D02*
X923327Y1030217D01*
X902756Y1028543D02*
X921653D01*
X901083Y1030217D02*
X902756Y1028543D01*
X898917Y1030217D02*
X901083D01*
X906102Y1044390D02*
X911220Y1049508D01*
X889075Y1044390D02*
X906102D01*
X912663Y1158900D02*
X916043Y1155520D01*
X890256Y1065354D02*
X916043Y1091142D01*
Y1155520D01*
X862205Y1063287D02*
X868406Y1057087D01*
X862205Y1063287D02*
X862402Y1063484D01*
Y1084646D01*
X882382Y1069165D02*
X882663Y1068884D01*
X882382Y1069165D02*
Y1094685D01*
X884252Y1013386D02*
X960827D01*
X978642Y1031201D01*
X829429Y1034252D02*
X829528Y1034350D01*
X861811D01*
X987795Y1053937D02*
Y1100499D01*
X964075Y1030217D02*
X987795Y1053937D01*
X925098Y1033760D02*
X961417D01*
X968110Y1040453D02*
Y1100499D01*
X961417Y1033760D02*
X968110Y1040453D01*
X938663Y1158900D02*
X938976Y1158587D01*
Y1040256D02*
Y1158587D01*
X885279Y1059697D02*
X885326Y1059744D01*
X898622D01*
X873032Y1065354D02*
X890256D01*
X752600Y1168900D02*
G03*
X748663Y1164963I0J-3937D01*
G01*
Y962837D02*
G03*
X752600Y958900I3937J0D01*
G01*
X1004523D02*
G03*
X1008663Y963040I0J4140D01*
G01*
X748663Y962837D02*
Y1164963D01*
X752600Y958900D02*
X1004523D01*
X752600Y1168900D02*
X1002682D01*
Y1168882D02*
X1008663Y1162900D01*
X1018663Y978900D02*
Y1106600D01*
Y1107900D01*
X1008663Y1117900D02*
Y1162900D01*
Y1117900D02*
X1018663Y1107900D01*
X1008663Y968900D02*
X1018663Y978900D01*
X1008663Y963040D02*
Y968900D01*
D23*
X787795Y986220D02*
X788091Y986516D01*
X906299D01*
X830128Y1026270D02*
X923809D01*
X830128D02*
Y1027254D01*
X923809Y1026270D02*
X924311Y1026772D01*
X879056Y1100500D02*
X909055Y1130499D01*
X842520Y1100500D02*
X879056D01*
X968110Y1130499D02*
X987795D01*
X948425D02*
X968110D01*
X822835Y1100500D02*
X842520D01*
X803150D02*
X822835D01*
X783465D02*
X803150D01*
X763780D02*
X783465D01*
X780709Y991240D02*
X872933D01*
X870276Y996063D02*
X875197Y1000984D01*
X773327Y996063D02*
X870276D01*
X764862Y998720D02*
X866240D01*
X871850Y1004331D01*
D24*
X762500Y971000D02*
D03*
D25*
Y981000D02*
D03*
X832663Y1158900D02*
D03*
X842663D02*
D03*
X852663D02*
D03*
X862663D02*
D03*
X872663D02*
D03*
X882663D02*
D03*
X892663D02*
D03*
X902663D02*
D03*
X912663D02*
D03*
D26*
X842520Y1100500D02*
D03*
Y1110500D02*
D03*
Y1120500D02*
D03*
X822835Y1100500D02*
D03*
Y1110500D02*
D03*
Y1120500D02*
D03*
X803150Y1100500D02*
D03*
Y1110500D02*
D03*
Y1120500D02*
D03*
X783465Y1100500D02*
D03*
Y1110500D02*
D03*
Y1120500D02*
D03*
X763780Y1100500D02*
D03*
Y1110500D02*
D03*
Y1120500D02*
D03*
X909055Y1130499D02*
D03*
Y1120499D02*
D03*
Y1110499D02*
D03*
X928740Y1130499D02*
D03*
Y1120499D02*
D03*
Y1110499D02*
D03*
X948425Y1130499D02*
D03*
Y1120499D02*
D03*
Y1110499D02*
D03*
X968110Y1130499D02*
D03*
Y1120499D02*
D03*
Y1110499D02*
D03*
X987795Y1130499D02*
D03*
Y1120499D02*
D03*
Y1110499D02*
D03*
D27*
X842520Y1130500D02*
D03*
X822835D02*
D03*
X803150D02*
D03*
X783465D02*
D03*
X763780D02*
D03*
X909055Y1100499D02*
D03*
X928740D02*
D03*
X948425D02*
D03*
X968110D02*
D03*
X987795D02*
D03*
D28*
X803700Y968900D02*
D03*
X1008700Y988900D02*
D03*
Y1098900D02*
D03*
X808700Y1158900D02*
D03*
X908663Y968900D02*
D03*
X928663D02*
D03*
X918663D02*
D03*
X898663D02*
D03*
X888663D02*
D03*
X868663D02*
D03*
X878663D02*
D03*
X858663D02*
D03*
X948663Y1158900D02*
D03*
X928663D02*
D03*
X938663D02*
D03*
X958663D02*
D03*
X968663D02*
D03*
X988663D02*
D03*
X978663D02*
D03*
X998663D02*
D03*
D29*
X978663Y968900D02*
D03*
X998663D02*
D03*
X988663D02*
D03*
X968663D02*
D03*
X958663D02*
D03*
D30*
X948663D02*
D03*
D31*
X822663Y1158900D02*
D03*
D32*
X954724Y1142323D02*
D03*
X907382Y1143996D02*
D03*
X864764Y1124508D02*
D03*
Y1095768D02*
D03*
X862500Y1022441D02*
D03*
X867717Y1013386D02*
D03*
X871358Y1011122D02*
D03*
X886319Y1001772D02*
D03*
X899606Y997933D02*
D03*
X899705Y1002461D02*
D03*
X899213Y1007283D02*
D03*
X918209Y1031988D02*
D03*
X911220Y1049508D02*
D03*
X787795Y986220D02*
D03*
X906299Y986516D02*
D03*
X830128Y1027254D02*
D03*
X924311Y1026772D02*
D03*
X862402Y1084646D02*
D03*
X882382Y1094685D02*
D03*
X872933Y991043D02*
D03*
X875197Y1000984D02*
D03*
X871850Y1004331D02*
D03*
X780709Y991240D02*
D03*
X773327Y996063D02*
D03*
X764862Y998720D02*
D03*
X868406Y1057087D02*
D03*
X884252Y1013386D02*
D03*
X978642Y1031201D02*
D03*
X829429Y1034252D02*
D03*
X861811Y1034350D02*
D03*
X898917Y1030217D02*
D03*
X925098Y1033661D02*
D03*
X938976Y1040256D02*
D03*
X885279Y1059697D02*
D03*
X898622Y1059744D02*
D03*
X873032Y1065354D02*
D03*
X882663Y1068884D02*
D03*
D33*
X889075Y1028642D02*
D03*
X883827D02*
D03*
X878575D02*
D03*
X873327D02*
D03*
X889075Y1033890D02*
D03*
X883827D02*
D03*
X878575D02*
D03*
X873327Y1033891D02*
D03*
X889075Y1039142D02*
D03*
X883827D02*
D03*
X878575D02*
D03*
X873327Y1039140D02*
D03*
X889075Y1044390D02*
D03*
X883827D02*
D03*
X878575D02*
D03*
X873327D02*
D03*
D34*
X918724Y978839D02*
X928663Y968900D01*
X785236Y978839D02*
X918724D01*
X777398Y971000D02*
X785236Y978839D01*
X762500Y971000D02*
X777398D01*
M02*
