M48
;Layer_Color=6321
;FILE_FORMAT=2:5
INCH,LZ
;TYPE=PLATED
T1F00S00C0.01200
T2F00S00C0.01378
T3F00S00C0.03400
T4F00S00C0.04000
T5F00S00C0.04094
T6F00S00C0.04134
T7F00S00C0.12600
%
T01
X0873327Y1028642
X0878575
Y103389
X0873327Y1033891
Y103914
X0878575Y1039142
Y104439
X0873327
X0883827
X0889075
Y1039142
X0883827
Y103389
X0889075
Y1028642
X0883827
T02
X0764862Y099872
X0773327Y0996063
X0780709Y099124
X0787795Y098622
X0830128Y1027254
X0829429Y1034252
X0861811Y103435
X08625Y1022441
X0867717Y1013386
X0871358Y1011122
X087185Y1004331
X0875197Y1000984
X0886319Y1001772
X0884252Y1013386
X0899213Y1007283
X0899705Y1002461
X0899606Y0997933
X0906299Y0986516
X0872933Y0991043
X0898917Y1030217
X0918209Y1031988
X0925098Y1033661
X0924311Y1026772
X091122Y1049508
X0898622Y1059744
X0885279Y1059697
X0882663Y1068884
X0873032Y1065354
X0868406Y1057087
X0862402Y1084646
X0938976Y1040256
X0978642Y1031201
X0954724Y1142323
X0907382Y1143996
X0864764Y1124508
Y1095768
X0882382Y1094685
T03
X0858663Y09689
X0868663
X0878663
X0888663
X0898663
X0908663
X0918663
X0928663
X0938663Y11589
X0948663
X0958663
X0968663
X0978663
X0988663
X0998663
X0928663
T04
X0948663Y09689
X0958663
X0968663
X0978663
X0988663
X0998663
T05
X07625Y0971
Y0981
X0822663Y11589
X0832663
X0842663
X0852663
X0862663
X0872663
X0882663
X0892663
X0902663
X0912663
T06
X0948425Y1100499
Y1110499
Y1120499
Y1130499
X096811
Y1120499
Y1110499
Y1100499
X0987795
Y1110499
Y1120499
Y1130499
X092874
Y1120499
Y1110499
Y1100499
X0909055
Y1110499
Y1120499
Y1130499
X084252Y11305
Y11205
Y11105
Y11005
X0822835
Y11105
Y11205
Y11305
X080315
Y11205
Y11105
Y11005
X0783465
Y11105
Y11205
Y11305
X076378
Y11205
Y11105
Y11005
T07
X08037Y09689
X10087Y09889
Y10989
X08087Y11589
M30
