G04 Layer_Color=7318015*
%FSLAX25Y25*%
%MOIN*%
G70*
G01*
G75*
%ADD10R,0.04921X0.05709*%
%ADD11R,0.03543X0.05118*%
%ADD12R,0.04921X0.06102*%
%ADD13R,0.02756X0.05118*%
G04:AMPARAMS|DCode=14|XSize=40mil|YSize=55mil|CornerRadius=5mil|HoleSize=0mil|Usage=FLASHONLY|Rotation=90.000|XOffset=0mil|YOffset=0mil|HoleType=Round|Shape=RoundedRectangle|*
%AMROUNDEDRECTD14*
21,1,0.04000,0.04500,0,0,90.0*
21,1,0.03000,0.05500,0,0,90.0*
1,1,0.01000,0.02250,0.01500*
1,1,0.01000,0.02250,-0.01500*
1,1,0.01000,-0.02250,-0.01500*
1,1,0.01000,-0.02250,0.01500*
%
%ADD14ROUNDEDRECTD14*%
%ADD15R,0.05118X0.03543*%
%ADD16R,0.05709X0.04921*%
%ADD17R,0.04331X0.02559*%
%ADD18O,0.03150X0.00984*%
%ADD19O,0.00984X0.03150*%
%ADD20R,0.20276X0.20276*%
%ADD21R,0.05512X0.11811*%
%ADD22C,0.01000*%
D10*
X904626Y1030709D02*
D03*
X911319D02*
D03*
X856004Y1074508D02*
D03*
X849311D02*
D03*
D11*
X904725Y1021457D02*
D03*
X912205D02*
D03*
X904725D02*
D03*
X912205D02*
D03*
X856496Y1056791D02*
D03*
X849016D02*
D03*
X856496D02*
D03*
X849016D02*
D03*
X856331Y1066076D02*
D03*
X848851D02*
D03*
X856331D02*
D03*
X848851D02*
D03*
D12*
X955709Y1039370D02*
D03*
X947638D02*
D03*
X955807Y1028346D02*
D03*
X947736D02*
D03*
X918701Y1060138D02*
D03*
X910630D02*
D03*
D13*
X820177Y1032185D02*
D03*
X812697D02*
D03*
Y1008760D02*
D03*
X820177D02*
D03*
D14*
X855545Y1032219D02*
D03*
Y1039219D02*
D03*
X764862Y1006835D02*
D03*
Y1013835D02*
D03*
X772786Y1006835D02*
D03*
Y1013835D02*
D03*
X780709Y1006835D02*
D03*
Y1013835D02*
D03*
D15*
X847277Y1039459D02*
D03*
Y1031979D02*
D03*
Y1039459D02*
D03*
Y1031979D02*
D03*
X855610Y1024213D02*
D03*
Y1016732D02*
D03*
Y1024213D02*
D03*
Y1016732D02*
D03*
D16*
X847933Y1024213D02*
D03*
Y1017520D02*
D03*
X839010Y1039065D02*
D03*
Y1032372D02*
D03*
D17*
X820177Y1024016D02*
D03*
Y1016535D02*
D03*
X810728D02*
D03*
Y1020276D02*
D03*
Y1024016D02*
D03*
D18*
X894980Y1025689D02*
D03*
Y1027657D02*
D03*
Y1029626D02*
D03*
Y1031594D02*
D03*
Y1033563D02*
D03*
Y1035531D02*
D03*
Y1037500D02*
D03*
Y1039468D02*
D03*
Y1041437D02*
D03*
Y1043405D02*
D03*
Y1045374D02*
D03*
Y1047342D02*
D03*
X867421D02*
D03*
Y1045374D02*
D03*
Y1043405D02*
D03*
Y1041437D02*
D03*
Y1039468D02*
D03*
Y1037500D02*
D03*
Y1035531D02*
D03*
Y1033563D02*
D03*
Y1031594D02*
D03*
Y1029626D02*
D03*
Y1027657D02*
D03*
Y1025689D02*
D03*
D19*
X892027Y1050295D02*
D03*
X890059D02*
D03*
X888091D02*
D03*
X886122D02*
D03*
X884153D02*
D03*
X882185D02*
D03*
X880216D02*
D03*
X878248D02*
D03*
X876279D02*
D03*
X874311D02*
D03*
X872342D02*
D03*
X870374D02*
D03*
Y1022736D02*
D03*
X872342D02*
D03*
X874311D02*
D03*
X876279D02*
D03*
X878248D02*
D03*
X880216D02*
D03*
X882185D02*
D03*
X884153D02*
D03*
X886122D02*
D03*
X888091D02*
D03*
X890059D02*
D03*
X892027D02*
D03*
D20*
X881201Y1036516D02*
D03*
D21*
X780709Y1054429D02*
D03*
X772835D02*
D03*
X764961D02*
D03*
X780709Y1031988D02*
D03*
X772835D02*
D03*
X764961D02*
D03*
D22*
X752600Y1168900D02*
G03*
X748663Y1164963I0J-3937D01*
G01*
Y962837D02*
G03*
X752600Y958900I3937J0D01*
G01*
X1004523D02*
G03*
X1008663Y963040I0J4140D01*
G01*
X748663Y962837D02*
Y1164963D01*
X752600Y958900D02*
X1004523D01*
X752600Y1168900D02*
X1002682D01*
Y1168882D02*
X1008663Y1162900D01*
X1018663Y978900D02*
Y1106600D01*
Y1107900D01*
X1008663Y1117900D02*
Y1162900D01*
Y1117900D02*
X1018663Y1107900D01*
X1008663Y968900D02*
X1018663Y978900D01*
X1008663Y963040D02*
Y968900D01*
M02*
