G04 Layer_Color=15132400*
%FSLAX25Y25*%
%MOIN*%
G70*
G01*
G75*
%ADD22C,0.01000*%
%ADD23C,0.00984*%
%ADD35C,0.00408*%
D22*
X906164Y1041416D02*
X905164Y1042415D01*
X903165D01*
X902165Y1041416D01*
Y1037417D01*
X903165Y1036417D01*
X905164D01*
X906164Y1037417D01*
X908163Y1036417D02*
X910163D01*
X909163D01*
Y1042415D01*
X908163Y1041416D01*
X913162D02*
X914161Y1042415D01*
X916161D01*
X917161Y1041416D01*
Y1037417D01*
X916161Y1036417D01*
X914161D01*
X913162Y1037417D01*
Y1041416D01*
X923192Y1023601D02*
X922192Y1024600D01*
X920193D01*
X919193Y1023601D01*
Y1019602D01*
X920193Y1018602D01*
X922192D01*
X923192Y1019602D01*
X929190Y1024600D02*
X927190Y1023601D01*
X925191Y1021601D01*
Y1019602D01*
X926191Y1018602D01*
X928190D01*
X929190Y1019602D01*
Y1020602D01*
X928190Y1021601D01*
X925191D01*
X963091Y1036122D02*
Y1042120D01*
X966090D01*
X967089Y1041120D01*
Y1039121D01*
X966090Y1038121D01*
X963091D01*
X965090D02*
X967089Y1036122D01*
X973087Y1042120D02*
X969089D01*
Y1039121D01*
X971088Y1040121D01*
X972088D01*
X973087Y1039121D01*
Y1037122D01*
X972088Y1036122D01*
X970088D01*
X969089Y1037122D01*
X963386Y1025295D02*
Y1031293D01*
X966385D01*
X967385Y1030294D01*
Y1028294D01*
X966385Y1027295D01*
X963386D01*
X965385D02*
X967385Y1025295D01*
X969384Y1031293D02*
X973383D01*
Y1030294D01*
X969384Y1026295D01*
Y1025295D01*
X995768Y1098327D02*
Y1100295D01*
X997736D01*
Y1098327D01*
X995768D01*
X976968D02*
Y1100295D01*
X978936D01*
Y1098327D01*
X976968D01*
X957480D02*
Y1100295D01*
X959448D01*
Y1098327D01*
X957480D01*
X938189D02*
Y1100295D01*
X940157D01*
Y1098327D01*
X938189D01*
X917618D02*
Y1100295D01*
X919586D01*
Y1098327D01*
X917618D01*
X833071Y1130709D02*
Y1132677D01*
X835039D01*
Y1130709D01*
X833071D01*
X813780D02*
Y1132677D01*
X815747D01*
Y1130709D01*
X813780D01*
X794291D02*
Y1132677D01*
X796259D01*
Y1130709D01*
X794291D01*
X773721D02*
Y1132677D01*
X775688D01*
Y1130709D01*
X773721D01*
X754134D02*
Y1132677D01*
X756102D01*
Y1130709D01*
X754134D01*
X799766Y1034428D02*
X798767Y1035427D01*
X796767D01*
X795768Y1034428D01*
Y1030429D01*
X796767Y1029429D01*
X798767D01*
X799766Y1030429D01*
X805764Y1029429D02*
X801766D01*
X805764Y1033428D01*
Y1034428D01*
X804765Y1035427D01*
X802765D01*
X801766Y1034428D01*
X804589Y1008739D02*
X803590Y1009738D01*
X801590D01*
X800591Y1008739D01*
Y1004740D01*
X801590Y1003740D01*
X803590D01*
X804589Y1004740D01*
X806589Y1003740D02*
X808588D01*
X807588D01*
Y1009738D01*
X806589Y1008739D01*
X852165Y1044390D02*
Y1050388D01*
X855164D01*
X856164Y1049388D01*
Y1047389D01*
X855164Y1046389D01*
X852165D01*
X854165D02*
X856164Y1044390D01*
X858163D02*
X860163D01*
X859163D01*
Y1050388D01*
X858163Y1049388D01*
X843073D02*
X842074Y1050388D01*
X840075D01*
X839075Y1049388D01*
Y1045389D01*
X840075Y1044390D01*
X842074D01*
X843073Y1045389D01*
X848072Y1044390D02*
Y1050388D01*
X845073Y1047389D01*
X849072D01*
X841400Y1010904D02*
X840401Y1011904D01*
X838401D01*
X837402Y1010904D01*
Y1006905D01*
X838401Y1005906D01*
X840401D01*
X841400Y1006905D01*
X843400Y1005906D02*
X845399D01*
X844399D01*
Y1011904D01*
X843400Y1010904D01*
X848398Y1005906D02*
X850397D01*
X849398D01*
Y1011904D01*
X848398Y1010904D01*
X858133D02*
X857133Y1011904D01*
X855134D01*
X854134Y1010904D01*
Y1006905D01*
X855134Y1005906D01*
X857133D01*
X858133Y1006905D01*
X860132Y1010904D02*
X861132Y1011904D01*
X863131D01*
X864131Y1010904D01*
Y1009904D01*
X863131Y1008904D01*
X864131Y1007905D01*
Y1006905D01*
X863131Y1005906D01*
X861132D01*
X860132Y1006905D01*
Y1007905D01*
X861132Y1008904D01*
X860132Y1009904D01*
Y1010904D01*
X861132Y1008904D02*
X863131D01*
X829589Y1049388D02*
X828590Y1050388D01*
X826590D01*
X825591Y1049388D01*
Y1045389D01*
X826590Y1044390D01*
X828590D01*
X829589Y1045389D01*
X831589Y1049388D02*
X832588Y1050388D01*
X834588D01*
X835587Y1049388D01*
Y1048388D01*
X834588Y1047389D01*
X833588D01*
X834588D01*
X835587Y1046389D01*
Y1045389D01*
X834588Y1044390D01*
X832588D01*
X831589Y1045389D01*
X836577Y1059132D02*
X835578Y1060132D01*
X833578D01*
X832579Y1059132D01*
Y1055134D01*
X833578Y1054134D01*
X835578D01*
X836577Y1055134D01*
X838577Y1060132D02*
X842575D01*
Y1059132D01*
X838577Y1055134D01*
Y1054134D01*
X836577Y1068089D02*
X835578Y1069089D01*
X833578D01*
X832579Y1068089D01*
Y1064090D01*
X833578Y1063091D01*
X835578D01*
X836577Y1064090D01*
X842575Y1069089D02*
X838577D01*
Y1066090D01*
X840576Y1067089D01*
X841576D01*
X842575Y1066090D01*
Y1064090D01*
X841576Y1063091D01*
X839577D01*
X838577Y1064090D01*
X836577Y1076947D02*
X835578Y1077947D01*
X833578D01*
X832579Y1076947D01*
Y1072948D01*
X833578Y1071949D01*
X835578D01*
X836577Y1072948D01*
X838577D02*
X839577Y1071949D01*
X841576D01*
X842575Y1072948D01*
Y1076947D01*
X841576Y1077947D01*
X839577D01*
X838577Y1076947D01*
Y1075947D01*
X839577Y1074948D01*
X842575D01*
X782770Y980352D02*
Y982351D01*
Y981351D01*
X777771D01*
X776772Y982351D01*
Y983351D01*
X777771Y984350D01*
X776772Y978352D02*
X782770D01*
Y975353D01*
X781770Y974354D01*
X779771D01*
X778771Y975353D01*
Y978352D01*
X776772Y972354D02*
Y970355D01*
Y971355D01*
X782770D01*
X781770Y972354D01*
X772001Y979232D02*
Y983231D01*
X770374Y970322D02*
X774373D01*
X772373Y972321D02*
Y968322D01*
X842599Y1091311D02*
X840599D01*
X841599D01*
Y1086312D01*
X840599Y1085313D01*
X839600D01*
X838600Y1086312D01*
X844598Y1090311D02*
X845598Y1091311D01*
X847597D01*
X848597Y1090311D01*
Y1086312D01*
X847597Y1085313D01*
X845598D01*
X844598Y1086312D01*
Y1090311D01*
X822933Y1091298D02*
X820934D01*
X821934D01*
Y1086300D01*
X820934Y1085300D01*
X819934D01*
X818935Y1086300D01*
X824933Y1085300D02*
X826932D01*
X825932D01*
Y1091298D01*
X824933Y1090298D01*
X803248Y1091298D02*
X801249D01*
X802249D01*
Y1086300D01*
X801249Y1085300D01*
X800249D01*
X799250Y1086300D01*
X809246Y1085300D02*
X805248D01*
X809246Y1089299D01*
Y1090298D01*
X808247Y1091298D01*
X806247D01*
X805248Y1090298D01*
X783563Y1091298D02*
X781564D01*
X782564D01*
Y1086300D01*
X781564Y1085300D01*
X780564D01*
X779565Y1086300D01*
X785563Y1090298D02*
X786562Y1091298D01*
X788562D01*
X789561Y1090298D01*
Y1089299D01*
X788562Y1088299D01*
X787562D01*
X788562D01*
X789561Y1087299D01*
Y1086300D01*
X788562Y1085300D01*
X786562D01*
X785563Y1086300D01*
X763799Y1091311D02*
X761799D01*
X762799D01*
Y1086312D01*
X761799Y1085313D01*
X760800D01*
X759800Y1086312D01*
X768797Y1085313D02*
Y1091311D01*
X765798Y1088312D01*
X769797D01*
X909142Y1091298D02*
X907143D01*
X908142D01*
Y1086300D01*
X907143Y1085300D01*
X906143D01*
X905143Y1086300D01*
X915140Y1091298D02*
X911141D01*
Y1088299D01*
X913141Y1089299D01*
X914140D01*
X915140Y1088299D01*
Y1086300D01*
X914140Y1085300D01*
X912141D01*
X911141Y1086300D01*
X928776Y1091298D02*
X926777D01*
X927776D01*
Y1086300D01*
X926777Y1085300D01*
X925777D01*
X924777Y1086300D01*
X934774Y1091298D02*
X932775Y1090298D01*
X930775Y1088299D01*
Y1086300D01*
X931775Y1085300D01*
X933774D01*
X934774Y1086300D01*
Y1087299D01*
X933774Y1088299D01*
X930775D01*
X948461Y1091298D02*
X946462D01*
X947461D01*
Y1086300D01*
X946462Y1085300D01*
X945462D01*
X944462Y1086300D01*
X950460Y1091298D02*
X954459D01*
Y1090298D01*
X950460Y1086300D01*
Y1085300D01*
X968146Y1091298D02*
X966147D01*
X967146D01*
Y1086300D01*
X966147Y1085300D01*
X965147D01*
X964147Y1086300D01*
X970145Y1090298D02*
X971145Y1091298D01*
X973144D01*
X974144Y1090298D01*
Y1089299D01*
X973144Y1088299D01*
X974144Y1087299D01*
Y1086300D01*
X973144Y1085300D01*
X971145D01*
X970145Y1086300D01*
Y1087299D01*
X971145Y1088299D01*
X970145Y1089299D01*
Y1090298D01*
X971145Y1088299D02*
X973144D01*
X987842Y1091298D02*
X985843D01*
X986842D01*
Y1086300D01*
X985843Y1085300D01*
X984843D01*
X983843Y1086300D01*
X989841D02*
X990841Y1085300D01*
X992840D01*
X993840Y1086300D01*
Y1090298D01*
X992840Y1091298D01*
X990841D01*
X989841Y1090298D01*
Y1089299D01*
X990841Y1088299D01*
X993840D01*
X753248Y1015059D02*
X759246D01*
Y1012060D01*
X758246Y1011060D01*
X756247D01*
X755247Y1012060D01*
Y1015059D01*
Y1013060D02*
X753248Y1011060D01*
Y1006062D02*
X759246D01*
X756247Y1009061D01*
Y1005062D01*
X768504Y995768D02*
Y1001766D01*
X771503D01*
X772503Y1000766D01*
Y998767D01*
X771503Y997767D01*
X768504D01*
X770503D02*
X772503Y995768D01*
X774502Y1000766D02*
X775502Y1001766D01*
X777501D01*
X778501Y1000766D01*
Y999766D01*
X777501Y998767D01*
X776501D01*
X777501D01*
X778501Y997767D01*
Y996767D01*
X777501Y995768D01*
X775502D01*
X774502Y996767D01*
X786811Y1015059D02*
X792809D01*
Y1012060D01*
X791809Y1011060D01*
X789810D01*
X788810Y1012060D01*
Y1015059D01*
Y1013060D02*
X786811Y1011060D01*
Y1005062D02*
Y1009061D01*
X790810Y1005062D01*
X791809D01*
X792809Y1006062D01*
Y1008061D01*
X791809Y1009061D01*
X766961Y1022988D02*
X762962D01*
X907150Y1068371D02*
Y1074369D01*
X910149D01*
X911148Y1073369D01*
Y1071370D01*
X910149Y1070370D01*
X907150D01*
X909149D02*
X911148Y1068371D01*
X917146Y1074369D02*
X915147Y1073369D01*
X913148Y1071370D01*
Y1069371D01*
X914147Y1068371D01*
X916147D01*
X917146Y1069371D01*
Y1070370D01*
X916147Y1071370D01*
X913148D01*
X752600Y1168900D02*
G03*
X748663Y1164963I0J-3937D01*
G01*
Y962837D02*
G03*
X752600Y958900I3937J0D01*
G01*
X1004523D02*
G03*
X1008663Y963040I0J4140D01*
G01*
X748663Y962837D02*
Y1164963D01*
X752600Y958900D02*
X1004523D01*
X752600Y1168900D02*
X1002682D01*
Y1168882D02*
X1008663Y1162900D01*
X1018663Y978900D02*
Y1106600D01*
Y1107900D01*
X1008663Y1117900D02*
Y1162900D01*
Y1117900D02*
X1018663Y1107900D01*
X1008663Y968900D02*
X1018663Y978900D01*
X1008663Y963040D02*
Y968900D01*
D23*
X811220Y1027461D02*
G03*
X811220Y1027461I-492J0D01*
G01*
X898917Y1022441D02*
G03*
X898917Y1022441I-492J0D01*
G01*
D35*
X945800Y975500D02*
Y977766D01*
X946933Y978899D01*
X948066Y977766D01*
Y975500D01*
Y977199D01*
X945800D01*
X949199Y978332D02*
X949765Y978899D01*
X950898D01*
X951465Y978332D01*
Y976066D01*
X950898Y975500D01*
X949765D01*
X949199Y976066D01*
Y978332D01*
X956400Y975500D02*
Y977766D01*
X957533Y978899D01*
X958666Y977766D01*
Y975500D01*
Y977199D01*
X956400D01*
X959799Y975500D02*
X960932D01*
X960365D01*
Y978899D01*
X959799Y978332D01*
X965500Y975500D02*
Y977766D01*
X966633Y978899D01*
X967766Y977766D01*
Y975500D01*
Y977199D01*
X965500D01*
X971165Y975500D02*
X968899D01*
X971165Y977766D01*
Y978332D01*
X970598Y978899D01*
X969465D01*
X968899Y978332D01*
X975500Y975500D02*
Y977766D01*
X976633Y978899D01*
X977766Y977766D01*
Y975500D01*
Y977199D01*
X975500D01*
X978899Y978332D02*
X979465Y978899D01*
X980598D01*
X981165Y978332D01*
Y977766D01*
X980598Y977199D01*
X980032D01*
X980598D01*
X981165Y976633D01*
Y976066D01*
X980598Y975500D01*
X979465D01*
X978899Y976066D01*
X986000Y975500D02*
Y977766D01*
X987133Y978899D01*
X988266Y977766D01*
Y975500D01*
Y977199D01*
X986000D01*
X991098Y975500D02*
Y978899D01*
X989399Y977199D01*
X991665D01*
X995800Y975500D02*
Y977766D01*
X996933Y978899D01*
X998066Y977766D01*
Y975500D01*
Y977199D01*
X995800D01*
X1001465Y978899D02*
X999199D01*
Y977199D01*
X1000332Y977766D01*
X1000898D01*
X1001465Y977199D01*
Y976066D01*
X1000898Y975500D01*
X999765D01*
X999199Y976066D01*
X924500Y978899D02*
Y976633D01*
X925633Y975500D01*
X926766Y976633D01*
Y978899D01*
X927899D02*
X929032D01*
X928465D01*
Y975500D01*
X927899D01*
X929032D01*
X930731D02*
Y978899D01*
X932997Y975500D01*
Y978899D01*
X911066Y978332D02*
X910499Y978899D01*
X909367D01*
X908800Y978332D01*
Y976066D01*
X909367Y975500D01*
X910499D01*
X911066Y976066D01*
Y977199D01*
X909933D01*
X912199Y975500D02*
Y978899D01*
X914465Y975500D01*
Y978899D01*
X915598D02*
Y975500D01*
X917297D01*
X917864Y976066D01*
Y978332D01*
X917297Y978899D01*
X915598D01*
X897966D02*
X895700D01*
Y977199D01*
X896833Y977766D01*
X897400D01*
X897966Y977199D01*
Y976066D01*
X897400Y975500D01*
X896266D01*
X895700Y976066D01*
X899099Y978899D02*
Y976633D01*
X900232Y975500D01*
X901365Y976633D01*
Y978899D01*
X889532Y984500D02*
X890099Y983934D01*
Y982800D01*
X889532Y982234D01*
X888966D01*
X888400Y982800D01*
Y983367D01*
Y982800D01*
X887833Y982234D01*
X887267D01*
X886700Y982800D01*
Y983934D01*
X887267Y984500D01*
X890099Y981101D02*
X887833D01*
X886700Y979968D01*
X887833Y978835D01*
X890099D01*
X889532Y977702D02*
X890099Y977136D01*
Y976003D01*
X889532Y975436D01*
X888966D01*
X888400Y976003D01*
Y976569D01*
Y976003D01*
X887833Y975436D01*
X887267D01*
X886700Y976003D01*
Y977136D01*
X887267Y977702D01*
X876800Y991200D02*
X880199D01*
Y989501D01*
X879632Y988934D01*
X878500D01*
X877933Y989501D01*
Y991200D01*
Y990067D02*
X876800Y988934D01*
X880199Y985535D02*
Y987801D01*
X876800D01*
Y985535D01*
X878500Y987801D02*
Y986668D01*
X879632Y982136D02*
X880199Y982703D01*
Y983836D01*
X879632Y984402D01*
X879066D01*
X878500Y983836D01*
Y982703D01*
X877933Y982136D01*
X877367D01*
X876800Y982703D01*
Y983836D01*
X877367Y984402D01*
X880199Y978737D02*
Y981003D01*
X876800D01*
Y978737D01*
X878500Y981003D02*
Y979870D01*
X880199Y977604D02*
Y975338D01*
Y976471D01*
X876800D01*
X870399Y990600D02*
Y989467D01*
Y990034D01*
X867000D01*
Y990600D01*
Y989467D01*
X870399Y986068D02*
Y987201D01*
X869832Y987768D01*
X867566D01*
X867000Y987201D01*
Y986068D01*
X867566Y985502D01*
X869832D01*
X870399Y986068D01*
X867000Y984369D02*
X870399D01*
Y982669D01*
X869832Y982103D01*
X868699D01*
X868133Y982669D01*
Y984369D01*
Y983236D02*
X867000Y982103D01*
X870399Y978704D02*
Y980970D01*
X867000D01*
Y978704D01*
X868699Y980970D02*
Y979837D01*
X870399Y975305D02*
Y977571D01*
X868699D01*
Y976438D01*
Y977571D01*
X867000D01*
X999832Y1151800D02*
X1000399Y1151233D01*
Y1150101D01*
X999832Y1149534D01*
X997567D01*
X997000Y1150101D01*
Y1151233D01*
X997567Y1151800D01*
X999832D01*
X996434Y1148401D02*
Y1146135D01*
X997000Y1145002D02*
X1000399D01*
Y1143303D01*
X999832Y1142736D01*
X998699D01*
X998133Y1143303D01*
Y1145002D01*
Y1143869D02*
X997000Y1142736D01*
X1000399Y1141603D02*
X997000Y1139337D01*
X1000399D02*
X997000Y1141603D01*
X987100Y1151800D02*
Y1150667D01*
Y1151233D01*
X990499D01*
X989932Y1151800D01*
X986534Y1148968D02*
Y1146702D01*
X990499Y1145569D02*
Y1143303D01*
Y1144436D01*
X987100D01*
X990499Y1142170D02*
X987100Y1139904D01*
X990499D02*
X987100Y1142170D01*
X977100Y1149534D02*
Y1151800D01*
X979366Y1149534D01*
X979932D01*
X980499Y1150101D01*
Y1151233D01*
X979932Y1151800D01*
X976534Y1148401D02*
Y1146135D01*
X979932Y1142736D02*
X980499Y1143303D01*
Y1144436D01*
X979932Y1145002D01*
X977666D01*
X977100Y1144436D01*
Y1143303D01*
X977666Y1142736D01*
X980499Y1141603D02*
X977100D01*
Y1139337D01*
X980499Y1138204D02*
X977100D01*
X978233D01*
X980499Y1135938D01*
X978800Y1137638D01*
X977100Y1135938D01*
Y1134805D02*
Y1133673D01*
Y1134239D01*
X980499D01*
X979932Y1134805D01*
X969732Y1151800D02*
X970299Y1151233D01*
Y1150101D01*
X969732Y1149534D01*
X969166D01*
X968600Y1150101D01*
Y1150667D01*
Y1150101D01*
X968033Y1149534D01*
X967467D01*
X966900Y1150101D01*
Y1151233D01*
X967467Y1151800D01*
X969732Y1148401D02*
X970299Y1147835D01*
Y1146702D01*
X970865Y1146135D01*
X956800Y1150101D02*
X960199D01*
X958500Y1151800D01*
Y1149534D01*
X960199Y1148401D02*
X956800Y1146135D01*
X960199D02*
X956800Y1148401D01*
X950299Y1149534D02*
Y1151800D01*
X948600D01*
X949166Y1150667D01*
Y1150101D01*
X948600Y1149534D01*
X947466D01*
X946900Y1150101D01*
Y1151233D01*
X947466Y1151800D01*
X946334Y1148401D02*
Y1146135D01*
X950299Y1145002D02*
X946900D01*
Y1143303D01*
X947466Y1142736D01*
X949732D01*
X950299Y1143303D01*
Y1145002D01*
X946900Y1141603D02*
X950299D01*
X946900Y1139337D01*
X950299D01*
X940499Y1149534D02*
X939932Y1150667D01*
X938799Y1151800D01*
X937667D01*
X937100Y1151233D01*
Y1150101D01*
X937667Y1149534D01*
X938233D01*
X938799Y1150101D01*
Y1151800D01*
X936534Y1148401D02*
Y1146135D01*
X937100Y1145002D02*
X940499D01*
Y1143303D01*
X939932Y1142736D01*
X938799D01*
X938233Y1143303D01*
Y1145002D01*
Y1143869D02*
X937100Y1142736D01*
X939932Y1139337D02*
X940499Y1139904D01*
Y1141037D01*
X939932Y1141603D01*
X939366D01*
X938799Y1141037D01*
Y1139904D01*
X938233Y1139337D01*
X937667D01*
X937100Y1139904D01*
Y1141037D01*
X937667Y1141603D01*
X940499Y1138204D02*
Y1135938D01*
Y1137071D01*
X937100D01*
Y1134805D02*
X939366D01*
Y1133106D01*
X938799Y1132540D01*
X937100D01*
X930299Y1151800D02*
Y1149534D01*
X929732D01*
X927466Y1151800D01*
X926900D01*
X930299Y1148401D02*
X926900Y1146135D01*
X930299D02*
X926900Y1148401D01*
X913732Y1151800D02*
X914299Y1151233D01*
Y1150101D01*
X913732Y1149534D01*
X913166D01*
X912599Y1150101D01*
X912033Y1149534D01*
X911467D01*
X910900Y1150101D01*
Y1151233D01*
X911467Y1151800D01*
X912033D01*
X912599Y1151233D01*
X913166Y1151800D01*
X913732D01*
X912599Y1151233D02*
Y1150101D01*
X910334Y1148401D02*
Y1146135D01*
X913732Y1142736D02*
X914299Y1143303D01*
Y1144436D01*
X913732Y1145002D01*
X911467D01*
X910900Y1144436D01*
Y1143303D01*
X911467Y1142736D01*
X910900Y1139337D02*
Y1141603D01*
X913166Y1139337D01*
X913732D01*
X914299Y1139904D01*
Y1141037D01*
X913732Y1141603D01*
X901266Y1151800D02*
X900700Y1151233D01*
Y1150101D01*
X901266Y1149534D01*
X903532D01*
X904099Y1150101D01*
Y1151233D01*
X903532Y1151800D01*
X902966D01*
X902400Y1151233D01*
Y1149534D01*
X900134Y1148401D02*
Y1146135D01*
X900700Y1145002D02*
X904099D01*
Y1143303D01*
X903532Y1142736D01*
X902400D01*
X901833Y1143303D01*
Y1145002D01*
X903532Y1139337D02*
X904099Y1139904D01*
Y1141037D01*
X903532Y1141603D01*
X902966D01*
X902400Y1141037D01*
Y1139904D01*
X901833Y1139337D01*
X901266D01*
X900700Y1139904D01*
Y1141037D01*
X901266Y1141603D01*
X900700Y1138204D02*
X902966D01*
Y1136505D01*
X902400Y1135938D01*
X900700D01*
X890800Y1151800D02*
Y1150667D01*
Y1151233D01*
X894199D01*
X893632Y1151800D01*
Y1148968D02*
X894199Y1148401D01*
Y1147268D01*
X893632Y1146702D01*
X891366D01*
X890800Y1147268D01*
Y1148401D01*
X891366Y1148968D01*
X893632D01*
X890234Y1145569D02*
Y1143303D01*
X893632Y1139904D02*
X894199Y1140470D01*
Y1141603D01*
X893632Y1142170D01*
X893066D01*
X892500Y1141603D01*
Y1140470D01*
X891933Y1139904D01*
X891366D01*
X890800Y1140470D01*
Y1141603D01*
X891366Y1142170D01*
X893632Y1136505D02*
X894199Y1137071D01*
Y1138204D01*
X893632Y1138771D01*
X893066D01*
X892500Y1138204D01*
Y1137071D01*
X891933Y1136505D01*
X891366D01*
X890800Y1137071D01*
Y1138204D01*
X891366Y1138771D01*
X890800Y1135372D02*
X893066D01*
Y1133673D01*
X892500Y1133106D01*
X890800D01*
X881100Y1151800D02*
Y1150667D01*
Y1151233D01*
X884499D01*
X883932Y1151800D01*
X881100Y1148968D02*
Y1147835D01*
Y1148401D01*
X884499D01*
X883932Y1148968D01*
X880534Y1146135D02*
Y1143869D01*
X881100Y1142736D02*
X884499D01*
X883366Y1141603D01*
X884499Y1140470D01*
X881100D01*
X884499Y1137638D02*
Y1138771D01*
X883932Y1139337D01*
X881666D01*
X881100Y1138771D01*
Y1137638D01*
X881666Y1137071D01*
X883932D01*
X884499Y1137638D01*
X883932Y1133673D02*
X884499Y1134239D01*
Y1135372D01*
X883932Y1135938D01*
X883366D01*
X882800Y1135372D01*
Y1134239D01*
X882233Y1133673D01*
X881666D01*
X881100Y1134239D01*
Y1135372D01*
X881666Y1135938D01*
X884499Y1132540D02*
Y1131407D01*
Y1131973D01*
X881100D01*
Y1132540D01*
Y1131407D01*
X871100Y1151800D02*
Y1150667D01*
Y1151233D01*
X874499D01*
X873932Y1151800D01*
X871100Y1146702D02*
Y1148968D01*
X873366Y1146702D01*
X873932D01*
X874499Y1147268D01*
Y1148401D01*
X873932Y1148968D01*
X870533Y1145569D02*
Y1143303D01*
X871100Y1142170D02*
X874499D01*
X873366Y1141037D01*
X874499Y1139904D01*
X871100D01*
X874499Y1138771D02*
Y1137638D01*
Y1138204D01*
X871100D01*
Y1138771D01*
Y1137638D01*
X873932Y1133673D02*
X874499Y1134239D01*
Y1135372D01*
X873932Y1135938D01*
X873366D01*
X872799Y1135372D01*
Y1134239D01*
X872233Y1133673D01*
X871667D01*
X871100Y1134239D01*
Y1135372D01*
X871667Y1135938D01*
X874499Y1130840D02*
Y1131973D01*
X873932Y1132540D01*
X871667D01*
X871100Y1131973D01*
Y1130840D01*
X871667Y1130274D01*
X873932D01*
X874499Y1130840D01*
X861000Y1151800D02*
Y1150667D01*
Y1151233D01*
X864399D01*
X863832Y1151800D01*
Y1148968D02*
X864399Y1148401D01*
Y1147268D01*
X863832Y1146702D01*
X863266D01*
X862700Y1147268D01*
Y1147835D01*
Y1147268D01*
X862133Y1146702D01*
X861567D01*
X861000Y1147268D01*
Y1148401D01*
X861567Y1148968D01*
X860433Y1145569D02*
Y1143303D01*
X863832Y1139904D02*
X864399Y1140470D01*
Y1141603D01*
X863832Y1142170D01*
X863266D01*
X862700Y1141603D01*
Y1140470D01*
X862133Y1139904D01*
X861567D01*
X861000Y1140470D01*
Y1141603D01*
X861567Y1142170D01*
X863832Y1136505D02*
X864399Y1137071D01*
Y1138204D01*
X863832Y1138771D01*
X861567D01*
X861000Y1138204D01*
Y1137071D01*
X861567Y1136505D01*
X864399Y1135372D02*
X861000D01*
X862133D01*
X864399Y1133106D01*
X862700Y1134805D01*
X861000Y1133106D01*
X853732Y1149534D02*
X854299Y1150101D01*
Y1151233D01*
X853732Y1151800D01*
X851466D01*
X850900Y1151233D01*
Y1150101D01*
X851466Y1149534D01*
X852600D01*
Y1150667D01*
X850900Y1148401D02*
X854299D01*
X850900Y1146135D01*
X854299D01*
Y1145002D02*
X850900D01*
Y1143303D01*
X851466Y1142736D01*
X853732D01*
X854299Y1143303D01*
Y1145002D01*
X841100Y1151800D02*
X843366D01*
X844499Y1150667D01*
X843366Y1149534D01*
X841100D01*
X842799D01*
Y1151800D01*
X841100Y1148401D02*
X844499D01*
Y1146702D01*
X843932Y1146135D01*
X842799D01*
X842233Y1146702D01*
Y1148401D01*
Y1147268D02*
X841100Y1146135D01*
X844499Y1142736D02*
Y1145002D01*
X841100D01*
Y1142736D01*
X842799Y1145002D02*
Y1143869D01*
X844499Y1139337D02*
Y1141603D01*
X842799D01*
Y1140470D01*
Y1141603D01*
X841100D01*
X823932Y1149534D02*
X824499Y1150101D01*
Y1151233D01*
X823932Y1151800D01*
X823366D01*
X822799Y1151233D01*
Y1150101D01*
X822233Y1149534D01*
X821667D01*
X821100Y1150101D01*
Y1151233D01*
X821667Y1151800D01*
X823932Y1146135D02*
X824499Y1146702D01*
Y1147835D01*
X823932Y1148401D01*
X821667D01*
X821100Y1147835D01*
Y1146702D01*
X821667Y1146135D01*
X824499Y1145002D02*
X821100D01*
Y1142736D01*
X833832Y1149534D02*
X834399Y1150101D01*
Y1151233D01*
X833832Y1151800D01*
X833266D01*
X832699Y1151233D01*
Y1150101D01*
X832133Y1149534D01*
X831567D01*
X831000Y1150101D01*
Y1151233D01*
X831567Y1151800D01*
X834399Y1148401D02*
X831000D01*
Y1146702D01*
X831567Y1146135D01*
X833832D01*
X834399Y1146702D01*
Y1148401D01*
X831000Y1145002D02*
X833266D01*
X834399Y1143869D01*
X833266Y1142736D01*
X831000D01*
X832699D01*
Y1145002D01*
M02*
