G04 Layer_Color=8150272*
%FSLAX25Y25*%
%MOIN*%
G70*
G01*
G75*
%ADD16C,0.00394*%
%ADD25C,0.02965*%
%ADD26R,0.24422X0.03162*%
G36*
X129134Y187543D02*
Y187130D01*
X126574Y186156D01*
Y186605D01*
X128139Y187171D01*
X128241Y187206D01*
X128333Y187242D01*
X128420Y187268D01*
X128486Y187293D01*
X128547Y187308D01*
X128588Y187324D01*
X128614Y187329D01*
X128624Y187334D01*
X128527Y187364D01*
X128430Y187390D01*
X128343Y187421D01*
X128267Y187446D01*
X128201Y187467D01*
X128150Y187482D01*
X128134Y187487D01*
X128119Y187492D01*
X128114Y187497D01*
X128109D01*
X126574Y188048D01*
Y188507D01*
X129134Y187543D01*
D02*
G37*
G36*
X128522Y185911D02*
X128573Y185906D01*
X128680Y185880D01*
X128767Y185845D01*
X128843Y185804D01*
X128904Y185763D01*
X128950Y185727D01*
X128976Y185702D01*
X128986Y185692D01*
X129052Y185600D01*
X129103Y185498D01*
X129139Y185386D01*
X129165Y185284D01*
X129180Y185192D01*
X129185Y185151D01*
Y185115D01*
X129190Y185085D01*
Y185064D01*
Y185049D01*
Y185044D01*
X129185Y184952D01*
X129175Y184860D01*
X129165Y184779D01*
X129149Y184707D01*
X129134Y184651D01*
X129119Y184605D01*
X129113Y184575D01*
X129108Y184565D01*
X129073Y184478D01*
X129027Y184396D01*
X128976Y184320D01*
X128930Y184243D01*
X128884Y184182D01*
X128848Y184136D01*
X128823Y184106D01*
X128813Y184100D01*
Y184095D01*
X128879Y184085D01*
X128940Y184075D01*
X128996Y184065D01*
X129042Y184049D01*
X129083Y184034D01*
X129108Y184024D01*
X129129Y184019D01*
X129134Y184014D01*
Y183560D01*
X129078Y183585D01*
X129022Y183611D01*
X128971Y183631D01*
X128925Y183642D01*
X128884Y183657D01*
X128853Y183662D01*
X128833Y183667D01*
X128828D01*
X128792Y183672D01*
X128746Y183677D01*
X128695D01*
X128639Y183682D01*
X128512Y183687D01*
X128384D01*
X128262Y183693D01*
X127385D01*
X127298Y183698D01*
X127232Y183703D01*
X127175D01*
X127135Y183708D01*
X127104Y183713D01*
X127089Y183718D01*
X127084D01*
X127017Y183733D01*
X126961Y183754D01*
X126915Y183774D01*
X126869Y183800D01*
X126839Y183820D01*
X126813Y183835D01*
X126798Y183845D01*
X126793Y183851D01*
X126752Y183891D01*
X126711Y183937D01*
X126681Y183988D01*
X126650Y184039D01*
X126630Y184085D01*
X126614Y184121D01*
X126604Y184146D01*
X126599Y184157D01*
X126574Y184238D01*
X126553Y184325D01*
X126538Y184412D01*
X126528Y184498D01*
X126523Y184575D01*
X126518Y184631D01*
Y184656D01*
Y184672D01*
Y184682D01*
Y184687D01*
X126523Y184809D01*
X126533Y184916D01*
X126548Y185019D01*
X126564Y185100D01*
X126579Y185171D01*
X126594Y185222D01*
X126599Y185243D01*
X126604Y185258D01*
X126609Y185263D01*
Y185268D01*
X126645Y185355D01*
X126691Y185432D01*
X126732Y185498D01*
X126773Y185554D01*
X126813Y185595D01*
X126844Y185625D01*
X126864Y185646D01*
X126869Y185651D01*
X126936Y185697D01*
X127007Y185738D01*
X127079Y185768D01*
X127145Y185794D01*
X127211Y185814D01*
X127257Y185829D01*
X127278Y185835D01*
X127293D01*
X127298Y185840D01*
X127303D01*
X127359Y185416D01*
X127267Y185386D01*
X127186Y185355D01*
X127119Y185319D01*
X127068Y185289D01*
X127028Y185258D01*
X127002Y185233D01*
X126987Y185212D01*
X126982Y185207D01*
X126946Y185146D01*
X126920Y185075D01*
X126900Y184998D01*
X126890Y184927D01*
X126880Y184855D01*
X126875Y184804D01*
Y184784D01*
Y184769D01*
Y184758D01*
Y184753D01*
X126880Y184636D01*
X126895Y184534D01*
X126920Y184452D01*
X126946Y184381D01*
X126977Y184330D01*
X126997Y184289D01*
X127017Y184264D01*
X127023Y184259D01*
X127068Y184218D01*
X127125Y184187D01*
X127186Y184162D01*
X127247Y184146D01*
X127303Y184136D01*
X127354Y184131D01*
X127461D01*
X127492Y184136D01*
X127507D01*
X127522Y184187D01*
X127538Y184243D01*
X127568Y184361D01*
X127594Y184493D01*
X127619Y184616D01*
X127629Y184677D01*
X127635Y184733D01*
X127645Y184784D01*
X127650Y184825D01*
X127655Y184860D01*
Y184886D01*
X127660Y184906D01*
Y184911D01*
X127670Y185003D01*
X127685Y185080D01*
X127696Y185146D01*
X127706Y185197D01*
X127711Y185238D01*
X127721Y185268D01*
X127726Y185289D01*
Y185294D01*
X127747Y185360D01*
X127767Y185416D01*
X127793Y185472D01*
X127813Y185518D01*
X127833Y185559D01*
X127854Y185585D01*
X127864Y185605D01*
X127869Y185610D01*
X127905Y185661D01*
X127946Y185702D01*
X127986Y185743D01*
X128027Y185773D01*
X128063Y185799D01*
X128094Y185819D01*
X128114Y185829D01*
X128119Y185835D01*
X128175Y185860D01*
X128236Y185880D01*
X128292Y185896D01*
X128349Y185906D01*
X128394Y185911D01*
X128430Y185916D01*
X128461D01*
X128522Y185911D01*
D02*
G37*
G36*
X129134Y181127D02*
X127701D01*
Y180225D01*
X127696Y180092D01*
X127685Y179964D01*
X127670Y179852D01*
X127650Y179750D01*
X127629Y179653D01*
X127604Y179572D01*
X127573Y179495D01*
X127543Y179429D01*
X127517Y179373D01*
X127487Y179322D01*
X127461Y179281D01*
X127436Y179250D01*
X127420Y179225D01*
X127405Y179210D01*
X127395Y179199D01*
X127390Y179194D01*
X127329Y179143D01*
X127267Y179097D01*
X127206Y179062D01*
X127140Y179026D01*
X127074Y178995D01*
X127012Y178975D01*
X126895Y178939D01*
X126839Y178929D01*
X126788Y178919D01*
X126742Y178914D01*
X126706Y178909D01*
X126671Y178904D01*
X126630D01*
X126533Y178909D01*
X126441Y178919D01*
X126359Y178939D01*
X126288Y178955D01*
X126227Y178975D01*
X126181Y178995D01*
X126155Y179006D01*
X126145Y179011D01*
X126069Y179051D01*
X126003Y179103D01*
X125941Y179148D01*
X125895Y179194D01*
X125860Y179235D01*
X125829Y179266D01*
X125814Y179286D01*
X125809Y179296D01*
X125768Y179363D01*
X125732Y179439D01*
X125702Y179510D01*
X125676Y179577D01*
X125661Y179638D01*
X125651Y179684D01*
X125640Y179720D01*
Y179725D01*
Y179730D01*
X125630Y179806D01*
X125620Y179893D01*
X125615Y179985D01*
X125610Y180071D01*
X125605Y180148D01*
Y180184D01*
Y180214D01*
Y180235D01*
Y180255D01*
Y180265D01*
Y180270D01*
Y181596D01*
X129134D01*
Y181127D01*
D02*
G37*
G36*
X127991Y191123D02*
X128099Y191113D01*
X128201Y191098D01*
X128292Y191077D01*
X128379Y191052D01*
X128461Y191026D01*
X128532Y190996D01*
X128598Y190965D01*
X128655Y190935D01*
X128706Y190904D01*
X128746Y190878D01*
X128782Y190853D01*
X128813Y190832D01*
X128833Y190817D01*
X128843Y190807D01*
X128848Y190802D01*
X128910Y190736D01*
X128961Y190669D01*
X129006Y190598D01*
X129047Y190521D01*
X129078Y190450D01*
X129108Y190374D01*
X129149Y190231D01*
X129159Y190164D01*
X129170Y190103D01*
X129180Y190047D01*
X129185Y190001D01*
X129190Y189965D01*
Y189935D01*
Y189915D01*
Y189909D01*
X129180Y189751D01*
X129154Y189609D01*
X129124Y189481D01*
X129103Y189430D01*
X129083Y189379D01*
X129062Y189333D01*
X129042Y189292D01*
X129027Y189262D01*
X129011Y189231D01*
X128996Y189211D01*
X128986Y189195D01*
X128976Y189185D01*
Y189180D01*
X128884Y189078D01*
X128787Y188997D01*
X128685Y188925D01*
X128588Y188874D01*
X128501Y188833D01*
X128461Y188818D01*
X128430Y188803D01*
X128400Y188793D01*
X128379Y188787D01*
X128369Y188782D01*
X128364D01*
X128308Y189231D01*
X128405Y189272D01*
X128486Y189318D01*
X128558Y189364D01*
X128614Y189404D01*
X128655Y189440D01*
X128685Y189471D01*
X128706Y189496D01*
X128711Y189501D01*
X128751Y189568D01*
X128782Y189634D01*
X128802Y189705D01*
X128818Y189767D01*
X128828Y189823D01*
X128833Y189869D01*
Y189899D01*
Y189904D01*
Y189909D01*
X128828Y189971D01*
X128823Y190027D01*
X128797Y190129D01*
X128762Y190220D01*
X128721Y190302D01*
X128685Y190363D01*
X128649Y190409D01*
X128624Y190440D01*
X128614Y190445D01*
Y190450D01*
X128522Y190521D01*
X128420Y190577D01*
X128308Y190618D01*
X128206Y190649D01*
X128114Y190664D01*
X128073Y190674D01*
X128037Y190680D01*
X128007D01*
X127986Y190685D01*
X127966D01*
Y188772D01*
X127915Y188767D01*
X127854D01*
X127736Y188772D01*
X127629Y188782D01*
X127527Y188798D01*
X127430Y188818D01*
X127344Y188844D01*
X127262Y188869D01*
X127191Y188900D01*
X127125Y188930D01*
X127063Y188961D01*
X127012Y188991D01*
X126971Y189017D01*
X126936Y189042D01*
X126905Y189063D01*
X126885Y189078D01*
X126875Y189088D01*
X126869Y189093D01*
X126808Y189155D01*
X126752Y189221D01*
X126706Y189292D01*
X126665Y189364D01*
X126630Y189435D01*
X126604Y189501D01*
X126579Y189573D01*
X126564Y189634D01*
X126548Y189700D01*
X126538Y189756D01*
X126528Y189807D01*
X126523Y189848D01*
X126518Y189884D01*
Y189915D01*
Y189930D01*
Y189935D01*
X126523Y190032D01*
X126533Y190124D01*
X126548Y190210D01*
X126574Y190292D01*
X126599Y190368D01*
X126630Y190440D01*
X126660Y190506D01*
X126696Y190562D01*
X126727Y190618D01*
X126762Y190664D01*
X126793Y190705D01*
X126819Y190736D01*
X126844Y190761D01*
X126859Y190781D01*
X126869Y190792D01*
X126875Y190797D01*
X126946Y190853D01*
X127023Y190904D01*
X127099Y190950D01*
X127181Y190991D01*
X127267Y191021D01*
X127349Y191047D01*
X127512Y191087D01*
X127584Y191103D01*
X127655Y191113D01*
X127716Y191118D01*
X127772Y191123D01*
X127818Y191128D01*
X127879D01*
X127991Y191123D01*
D02*
G37*
G36*
X124016Y165874D02*
Y165461D01*
X121456Y164487D01*
Y164936D01*
X123021Y165502D01*
X123123Y165538D01*
X123215Y165573D01*
X123302Y165599D01*
X123368Y165624D01*
X123429Y165640D01*
X123470Y165655D01*
X123496Y165660D01*
X123506Y165665D01*
X123409Y165696D01*
X123312Y165721D01*
X123225Y165752D01*
X123149Y165777D01*
X123082Y165798D01*
X123031Y165813D01*
X123016Y165818D01*
X123001Y165823D01*
X122996Y165828D01*
X122991D01*
X121456Y166379D01*
Y166838D01*
X124016Y165874D01*
D02*
G37*
G36*
X121746Y162442D02*
X121711Y162365D01*
X121675Y162289D01*
X121639Y162217D01*
X121608Y162156D01*
X121583Y162105D01*
X121563Y162075D01*
X121557Y162070D01*
Y162065D01*
X121501Y161973D01*
X121445Y161891D01*
X121394Y161820D01*
X121349Y161764D01*
X121313Y161713D01*
X121282Y161682D01*
X121262Y161656D01*
X121257Y161651D01*
X124016D01*
Y161218D01*
X120471D01*
Y161498D01*
X120558Y161549D01*
X120640Y161606D01*
X120721Y161672D01*
X120793Y161733D01*
X120854Y161794D01*
X120905Y161840D01*
X120920Y161861D01*
X120935Y161876D01*
X120940Y161881D01*
X120946Y161886D01*
X121032Y161993D01*
X121114Y162100D01*
X121185Y162202D01*
X121241Y162304D01*
X121292Y162391D01*
X121313Y162427D01*
X121328Y162457D01*
X121343Y162483D01*
X121349Y162503D01*
X121359Y162513D01*
Y162518D01*
X121777D01*
X121746Y162442D01*
D02*
G37*
G36*
X127578Y194872D02*
X127757Y194846D01*
X127839Y194831D01*
X127915Y194816D01*
X127991Y194795D01*
X128058Y194775D01*
X128119Y194754D01*
X128170Y194734D01*
X128221Y194719D01*
X128257Y194703D01*
X128292Y194688D01*
X128313Y194678D01*
X128328Y194668D01*
X128333D01*
X128481Y194576D01*
X128609Y194474D01*
X128721Y194367D01*
X128813Y194265D01*
X128884Y194168D01*
X128910Y194132D01*
X128935Y194097D01*
X128950Y194066D01*
X128966Y194045D01*
X128971Y194030D01*
X128976Y194025D01*
X129017Y193944D01*
X129047Y193862D01*
X129103Y193699D01*
X129139Y193541D01*
X129170Y193393D01*
X129175Y193326D01*
X129185Y193265D01*
X129190Y193209D01*
Y193163D01*
X129195Y193128D01*
Y193102D01*
Y193082D01*
Y193077D01*
X129190Y192934D01*
X129175Y192796D01*
X129149Y192668D01*
X129124Y192556D01*
X129113Y192510D01*
X129103Y192464D01*
X129088Y192424D01*
X129078Y192388D01*
X129068Y192362D01*
X129062Y192342D01*
X129057Y192332D01*
Y192327D01*
X129001Y192189D01*
X128935Y192062D01*
X128864Y191939D01*
X128797Y191832D01*
X128767Y191786D01*
X128736Y191740D01*
X128711Y191705D01*
X128690Y191674D01*
X128670Y191648D01*
X128655Y191628D01*
X128649Y191618D01*
X128644Y191613D01*
X127334D01*
Y193112D01*
X127752D01*
Y192072D01*
X128415D01*
X128466Y192133D01*
X128512Y192204D01*
X128552Y192281D01*
X128588Y192352D01*
X128619Y192413D01*
X128644Y192470D01*
X128655Y192490D01*
X128660Y192500D01*
X128665Y192510D01*
Y192516D01*
X128700Y192623D01*
X128731Y192730D01*
X128751Y192827D01*
X128762Y192918D01*
X128772Y192995D01*
Y193026D01*
X128777Y193056D01*
Y193077D01*
Y193092D01*
Y193102D01*
Y193107D01*
X128772Y193235D01*
X128751Y193357D01*
X128726Y193469D01*
X128700Y193571D01*
X128670Y193653D01*
X128660Y193688D01*
X128649Y193714D01*
X128639Y193739D01*
X128629Y193755D01*
X128624Y193765D01*
Y193770D01*
X128558Y193877D01*
X128486Y193974D01*
X128410Y194056D01*
X128333Y194122D01*
X128262Y194178D01*
X128206Y194214D01*
X128185Y194229D01*
X128170Y194234D01*
X128160Y194244D01*
X128155D01*
X128027Y194295D01*
X127895Y194336D01*
X127762Y194362D01*
X127635Y194382D01*
X127578Y194387D01*
X127527Y194392D01*
X127476Y194397D01*
X127436D01*
X127405Y194403D01*
X127359D01*
X127216Y194397D01*
X127089Y194382D01*
X126966Y194362D01*
X126859Y194336D01*
X126813Y194326D01*
X126773Y194311D01*
X126737Y194300D01*
X126706Y194290D01*
X126681Y194280D01*
X126665Y194275D01*
X126655Y194270D01*
X126650D01*
X126579Y194234D01*
X126513Y194199D01*
X126451Y194163D01*
X126400Y194127D01*
X126359Y194097D01*
X126324Y194071D01*
X126303Y194051D01*
X126298Y194045D01*
X126242Y193989D01*
X126191Y193928D01*
X126150Y193862D01*
X126110Y193801D01*
X126084Y193750D01*
X126059Y193709D01*
X126048Y193678D01*
X126043Y193668D01*
X126008Y193576D01*
X125982Y193484D01*
X125967Y193388D01*
X125952Y193301D01*
X125946Y193224D01*
Y193194D01*
X125941Y193168D01*
Y193143D01*
Y193128D01*
Y193117D01*
Y193112D01*
X125946Y193015D01*
X125957Y192923D01*
X125972Y192842D01*
X125987Y192771D01*
X126008Y192709D01*
X126023Y192663D01*
X126033Y192638D01*
X126038Y192628D01*
X126074Y192551D01*
X126115Y192485D01*
X126155Y192424D01*
X126196Y192378D01*
X126232Y192342D01*
X126258Y192312D01*
X126278Y192296D01*
X126283Y192291D01*
X126344Y192245D01*
X126416Y192209D01*
X126482Y192174D01*
X126553Y192143D01*
X126614Y192123D01*
X126660Y192107D01*
X126681Y192102D01*
X126696Y192097D01*
X126701Y192092D01*
X126706D01*
X126594Y191669D01*
X126467Y191705D01*
X126354Y191751D01*
X126252Y191796D01*
X126171Y191837D01*
X126104Y191878D01*
X126059Y191909D01*
X126028Y191929D01*
X126018Y191939D01*
X125936Y192011D01*
X125870Y192087D01*
X125809Y192169D01*
X125758Y192245D01*
X125722Y192317D01*
X125691Y192373D01*
X125681Y192393D01*
X125676Y192408D01*
X125671Y192419D01*
Y192424D01*
X125630Y192541D01*
X125600Y192663D01*
X125574Y192776D01*
X125559Y192883D01*
X125549Y192980D01*
Y193020D01*
X125543Y193051D01*
Y193082D01*
Y193102D01*
Y193112D01*
Y193117D01*
Y193214D01*
X125554Y193306D01*
X125579Y193484D01*
X125594Y193566D01*
X125615Y193643D01*
X125630Y193714D01*
X125651Y193780D01*
X125671Y193842D01*
X125691Y193893D01*
X125712Y193938D01*
X125727Y193979D01*
X125742Y194010D01*
X125753Y194030D01*
X125758Y194045D01*
X125763Y194051D01*
X125809Y194122D01*
X125855Y194193D01*
X125962Y194316D01*
X126069Y194423D01*
X126181Y194510D01*
X126278Y194581D01*
X126319Y194606D01*
X126359Y194627D01*
X126390Y194647D01*
X126410Y194658D01*
X126426Y194663D01*
X126431Y194668D01*
X126599Y194739D01*
X126768Y194790D01*
X126931Y194831D01*
X127007Y194841D01*
X127079Y194856D01*
X127145Y194861D01*
X127201Y194872D01*
X127257Y194877D01*
X127303D01*
X127339Y194882D01*
X127390D01*
X127578Y194872D01*
D02*
G37*
G36*
X127573Y167780D02*
X127742Y167770D01*
X127895Y167755D01*
X128037Y167729D01*
X128170Y167704D01*
X128287Y167673D01*
X128394Y167643D01*
X128486Y167612D01*
X128568Y167582D01*
X128639Y167546D01*
X128700Y167520D01*
X128746Y167495D01*
X128787Y167469D01*
X128813Y167454D01*
X128828Y167444D01*
X128833Y167439D01*
X128894Y167383D01*
X128950Y167322D01*
X129001Y167255D01*
X129042Y167189D01*
X129078Y167123D01*
X129108Y167056D01*
X129129Y166990D01*
X129149Y166929D01*
X129165Y166868D01*
X129175Y166812D01*
X129185Y166761D01*
X129190Y166720D01*
X129195Y166684D01*
Y166653D01*
Y166638D01*
Y166633D01*
X129185Y166495D01*
X129165Y166368D01*
X129129Y166261D01*
X129093Y166169D01*
X129057Y166092D01*
X129037Y166067D01*
X129022Y166041D01*
X129011Y166021D01*
X129001Y166006D01*
X128991Y166001D01*
Y165996D01*
X128904Y165904D01*
X128813Y165827D01*
X128711Y165761D01*
X128619Y165710D01*
X128532Y165669D01*
X128496Y165649D01*
X128461Y165638D01*
X128435Y165628D01*
X128415Y165618D01*
X128405Y165613D01*
X128400D01*
X128323Y165587D01*
X128246Y165567D01*
X128083Y165536D01*
X127915Y165511D01*
X127752Y165496D01*
X127680Y165491D01*
X127614Y165486D01*
X127553D01*
X127497Y165480D01*
X127298D01*
X127206Y165486D01*
X127125D01*
X127043Y165491D01*
X126971Y165501D01*
X126900Y165506D01*
X126839Y165511D01*
X126783Y165521D01*
X126732Y165526D01*
X126686Y165536D01*
X126650Y165542D01*
X126620Y165547D01*
X126594Y165552D01*
X126579Y165557D01*
X126569Y165562D01*
X126564D01*
X126451Y165593D01*
X126349Y165628D01*
X126263Y165669D01*
X126186Y165700D01*
X126120Y165735D01*
X126074Y165756D01*
X126048Y165776D01*
X126038Y165781D01*
X125962Y165837D01*
X125895Y165893D01*
X125839Y165955D01*
X125788Y166011D01*
X125753Y166062D01*
X125727Y166103D01*
X125712Y166128D01*
X125707Y166133D01*
Y166138D01*
X125666Y166220D01*
X125640Y166307D01*
X125620Y166388D01*
X125605Y166465D01*
X125594Y166531D01*
X125589Y166587D01*
Y166607D01*
Y166623D01*
Y166628D01*
Y166633D01*
X125600Y166771D01*
X125620Y166898D01*
X125656Y167005D01*
X125691Y167097D01*
X125732Y167174D01*
X125748Y167204D01*
X125768Y167230D01*
X125778Y167250D01*
X125788Y167265D01*
X125798Y167271D01*
Y167276D01*
X125880Y167367D01*
X125977Y167444D01*
X126074Y167510D01*
X126166Y167561D01*
X126252Y167602D01*
X126288Y167622D01*
X126324Y167633D01*
X126349Y167643D01*
X126370Y167653D01*
X126380Y167658D01*
X126385D01*
X126462Y167678D01*
X126538Y167699D01*
X126706Y167729D01*
X126875Y167755D01*
X127033Y167770D01*
X127109Y167775D01*
X127175Y167780D01*
X127237D01*
X127293Y167786D01*
X127395D01*
X127573Y167780D01*
D02*
G37*
G36*
X126864Y164634D02*
X126829Y164557D01*
X126793Y164481D01*
X126757Y164409D01*
X126727Y164348D01*
X126701Y164297D01*
X126681Y164267D01*
X126676Y164261D01*
Y164256D01*
X126620Y164165D01*
X126564Y164083D01*
X126513Y164012D01*
X126467Y163955D01*
X126431Y163905D01*
X126400Y163874D01*
X126380Y163848D01*
X126375Y163843D01*
X129134D01*
Y163410D01*
X125589D01*
Y163690D01*
X125676Y163741D01*
X125758Y163797D01*
X125839Y163864D01*
X125911Y163925D01*
X125972Y163986D01*
X126023Y164032D01*
X126038Y164052D01*
X126054Y164068D01*
X126059Y164073D01*
X126064Y164078D01*
X126150Y164185D01*
X126232Y164292D01*
X126303Y164394D01*
X126359Y164496D01*
X126410Y164583D01*
X126431Y164619D01*
X126446Y164649D01*
X126462Y164675D01*
X126467Y164695D01*
X126477Y164705D01*
Y164710D01*
X126895D01*
X126864Y164634D01*
D02*
G37*
G36*
X127650Y162313D02*
X127803Y162303D01*
X127946Y162288D01*
X128078Y162262D01*
X128196Y162237D01*
X128303Y162211D01*
X128400Y162181D01*
X128486Y162145D01*
X128558Y162114D01*
X128624Y162084D01*
X128675Y162058D01*
X128721Y162028D01*
X128756Y162007D01*
X128777Y161992D01*
X128792Y161982D01*
X128797Y161977D01*
X128869Y161910D01*
X128930Y161839D01*
X128981Y161768D01*
X129027Y161696D01*
X129068Y161620D01*
X129098Y161548D01*
X129124Y161477D01*
X129144Y161406D01*
X129159Y161344D01*
X129175Y161283D01*
X129185Y161232D01*
X129190Y161186D01*
Y161145D01*
X129195Y161120D01*
Y161100D01*
Y161094D01*
X129190Y160977D01*
X129170Y160870D01*
X129149Y160773D01*
X129119Y160686D01*
X129093Y160620D01*
X129068Y160569D01*
X129062Y160549D01*
X129052Y160533D01*
X129047Y160528D01*
Y160523D01*
X128986Y160436D01*
X128915Y160355D01*
X128843Y160289D01*
X128772Y160232D01*
X128706Y160187D01*
X128655Y160156D01*
X128634Y160146D01*
X128619Y160136D01*
X128614Y160131D01*
X128609D01*
X128501Y160080D01*
X128389Y160044D01*
X128287Y160018D01*
X128190Y160003D01*
X128109Y159988D01*
X128078D01*
X128048Y159983D01*
X127991D01*
X127900Y159988D01*
X127813Y159998D01*
X127726Y160013D01*
X127650Y160029D01*
X127578Y160054D01*
X127507Y160080D01*
X127446Y160105D01*
X127390Y160136D01*
X127339Y160166D01*
X127293Y160192D01*
X127257Y160217D01*
X127221Y160243D01*
X127196Y160258D01*
X127181Y160273D01*
X127170Y160284D01*
X127165Y160289D01*
X127109Y160345D01*
X127058Y160406D01*
X127017Y160472D01*
X126982Y160533D01*
X126946Y160595D01*
X126920Y160656D01*
X126885Y160773D01*
X126869Y160824D01*
X126859Y160875D01*
X126854Y160916D01*
X126849Y160957D01*
X126844Y160987D01*
Y161008D01*
Y161023D01*
Y161028D01*
X126849Y161120D01*
X126864Y161207D01*
X126880Y161288D01*
X126900Y161360D01*
X126926Y161421D01*
X126941Y161467D01*
X126956Y161497D01*
X126961Y161502D01*
Y161507D01*
X127012Y161589D01*
X127068Y161661D01*
X127125Y161727D01*
X127186Y161778D01*
X127237Y161824D01*
X127278Y161859D01*
X127308Y161880D01*
X127313Y161885D01*
X127221D01*
X127130Y161880D01*
X127048Y161875D01*
X126966Y161864D01*
X126895Y161859D01*
X126829Y161849D01*
X126768Y161839D01*
X126711Y161824D01*
X126660Y161813D01*
X126620Y161803D01*
X126584Y161793D01*
X126553Y161788D01*
X126533Y161778D01*
X126518Y161773D01*
X126507Y161768D01*
X126502D01*
X126400Y161717D01*
X126309Y161666D01*
X126237Y161609D01*
X126176Y161558D01*
X126125Y161513D01*
X126089Y161477D01*
X126069Y161451D01*
X126064Y161441D01*
X126023Y161380D01*
X125997Y161319D01*
X125977Y161258D01*
X125962Y161196D01*
X125952Y161151D01*
X125946Y161110D01*
Y161084D01*
Y161074D01*
X125957Y160982D01*
X125977Y160896D01*
X126008Y160824D01*
X126038Y160758D01*
X126074Y160707D01*
X126104Y160671D01*
X126125Y160651D01*
X126135Y160641D01*
X126181Y160605D01*
X126237Y160569D01*
X126298Y160538D01*
X126359Y160518D01*
X126416Y160498D01*
X126462Y160482D01*
X126492Y160477D01*
X126497Y160472D01*
X126502D01*
X126467Y160039D01*
X126324Y160069D01*
X126196Y160115D01*
X126084Y160166D01*
X125992Y160222D01*
X125921Y160278D01*
X125890Y160299D01*
X125865Y160324D01*
X125849Y160340D01*
X125834Y160355D01*
X125829Y160360D01*
X125824Y160365D01*
X125783Y160416D01*
X125748Y160472D01*
X125686Y160584D01*
X125645Y160697D01*
X125620Y160804D01*
X125600Y160901D01*
X125594Y160941D01*
Y160977D01*
X125589Y161008D01*
Y161028D01*
Y161043D01*
Y161048D01*
X125594Y161151D01*
X125605Y161247D01*
X125625Y161339D01*
X125651Y161426D01*
X125686Y161502D01*
X125717Y161579D01*
X125758Y161645D01*
X125793Y161706D01*
X125829Y161757D01*
X125870Y161808D01*
X125900Y161849D01*
X125931Y161880D01*
X125962Y161905D01*
X125982Y161926D01*
X125992Y161936D01*
X125997Y161941D01*
X126089Y162007D01*
X126196Y162063D01*
X126309Y162114D01*
X126426Y162160D01*
X126548Y162196D01*
X126671Y162227D01*
X126798Y162252D01*
X126915Y162273D01*
X127033Y162288D01*
X127140Y162298D01*
X127237Y162308D01*
X127318Y162313D01*
X127390D01*
X127441Y162318D01*
X127487D01*
X127650Y162313D01*
D02*
G37*
G36*
X129134Y168250D02*
X128716D01*
Y169989D01*
X128629Y169928D01*
X128593Y169897D01*
X128558Y169871D01*
X128527Y169846D01*
X128507Y169826D01*
X128491Y169810D01*
X128486Y169805D01*
X128461Y169780D01*
X128435Y169749D01*
X128369Y169678D01*
X128292Y169596D01*
X128216Y169509D01*
X128150Y169428D01*
X128119Y169392D01*
X128088Y169361D01*
X128068Y169336D01*
X128053Y169316D01*
X128042Y169305D01*
X128037Y169300D01*
X127966Y169219D01*
X127900Y169137D01*
X127833Y169066D01*
X127777Y168999D01*
X127721Y168938D01*
X127670Y168887D01*
X127624Y168836D01*
X127584Y168795D01*
X127543Y168755D01*
X127512Y168724D01*
X127487Y168699D01*
X127461Y168673D01*
X127430Y168648D01*
X127420Y168637D01*
X127334Y168566D01*
X127257Y168505D01*
X127181Y168454D01*
X127119Y168413D01*
X127063Y168382D01*
X127023Y168362D01*
X126997Y168352D01*
X126987Y168347D01*
X126910Y168316D01*
X126834Y168296D01*
X126762Y168275D01*
X126701Y168265D01*
X126645Y168260D01*
X126604Y168255D01*
X126569D01*
X126492Y168260D01*
X126421Y168270D01*
X126349Y168280D01*
X126288Y168301D01*
X126166Y168352D01*
X126069Y168403D01*
X126023Y168433D01*
X125987Y168459D01*
X125952Y168484D01*
X125926Y168510D01*
X125906Y168530D01*
X125885Y168540D01*
X125880Y168551D01*
X125875Y168556D01*
X125824Y168612D01*
X125778Y168673D01*
X125742Y168739D01*
X125712Y168806D01*
X125661Y168938D01*
X125625Y169071D01*
X125615Y169127D01*
X125605Y169183D01*
X125600Y169234D01*
X125594Y169275D01*
X125589Y169310D01*
Y169341D01*
Y169356D01*
Y169361D01*
X125594Y169453D01*
X125600Y169540D01*
X125615Y169622D01*
X125630Y169698D01*
X125651Y169770D01*
X125671Y169836D01*
X125697Y169897D01*
X125722Y169953D01*
X125748Y170004D01*
X125773Y170045D01*
X125793Y170081D01*
X125814Y170111D01*
X125829Y170137D01*
X125844Y170152D01*
X125849Y170162D01*
X125855Y170167D01*
X125906Y170218D01*
X125962Y170264D01*
X126023Y170310D01*
X126084Y170346D01*
X126207Y170407D01*
X126329Y170448D01*
X126385Y170463D01*
X126441Y170478D01*
X126487Y170489D01*
X126528Y170499D01*
X126564Y170504D01*
X126589D01*
X126604Y170509D01*
X126609D01*
X126655Y170065D01*
X126538Y170055D01*
X126436Y170035D01*
X126344Y170004D01*
X126273Y169968D01*
X126212Y169938D01*
X126171Y169907D01*
X126145Y169887D01*
X126135Y169877D01*
X126074Y169800D01*
X126028Y169719D01*
X125992Y169632D01*
X125972Y169555D01*
X125957Y169484D01*
X125952Y169423D01*
X125946Y169402D01*
Y169387D01*
Y169377D01*
Y169372D01*
X125952Y169265D01*
X125972Y169168D01*
X126003Y169086D01*
X126033Y169015D01*
X126069Y168959D01*
X126094Y168923D01*
X126115Y168897D01*
X126125Y168887D01*
X126196Y168826D01*
X126268Y168780D01*
X126339Y168744D01*
X126410Y168724D01*
X126467Y168709D01*
X126518Y168704D01*
X126548Y168699D01*
X126558D01*
X126650Y168709D01*
X126747Y168729D01*
X126834Y168765D01*
X126915Y168800D01*
X126982Y168841D01*
X127038Y168877D01*
X127058Y168887D01*
X127074Y168897D01*
X127079Y168908D01*
X127084D01*
X127140Y168948D01*
X127196Y168999D01*
X127257Y169055D01*
X127318Y169117D01*
X127441Y169244D01*
X127563Y169372D01*
X127619Y169438D01*
X127670Y169494D01*
X127716Y169550D01*
X127757Y169596D01*
X127787Y169632D01*
X127813Y169662D01*
X127828Y169683D01*
X127833Y169688D01*
X127940Y169815D01*
X128042Y169933D01*
X128134Y170030D01*
X128211Y170106D01*
X128277Y170172D01*
X128323Y170218D01*
X128354Y170244D01*
X128359Y170254D01*
X128364D01*
X128451Y170325D01*
X128532Y170381D01*
X128614Y170432D01*
X128685Y170473D01*
X128746Y170504D01*
X128792Y170524D01*
X128823Y170535D01*
X128828Y170540D01*
X128833D01*
X128889Y170560D01*
X128940Y170570D01*
X128991Y170580D01*
X129037Y170586D01*
X129078Y170591D01*
X129134D01*
Y168250D01*
D02*
G37*
G36*
X128522Y178506D02*
X128573Y178501D01*
X128680Y178475D01*
X128767Y178439D01*
X128843Y178399D01*
X128904Y178358D01*
X128950Y178322D01*
X128976Y178297D01*
X128986Y178287D01*
X129052Y178195D01*
X129103Y178093D01*
X129139Y177980D01*
X129165Y177878D01*
X129180Y177787D01*
X129185Y177746D01*
Y177710D01*
X129190Y177680D01*
Y177659D01*
Y177644D01*
Y177639D01*
X129185Y177547D01*
X129175Y177455D01*
X129165Y177374D01*
X129149Y177302D01*
X129134Y177246D01*
X129119Y177200D01*
X129113Y177170D01*
X129108Y177159D01*
X129073Y177073D01*
X129027Y176991D01*
X128976Y176915D01*
X128930Y176838D01*
X128884Y176777D01*
X128848Y176731D01*
X128823Y176700D01*
X128813Y176695D01*
Y176690D01*
X128879Y176680D01*
X128940Y176670D01*
X128996Y176660D01*
X129042Y176644D01*
X129083Y176629D01*
X129108Y176619D01*
X129129Y176614D01*
X129134Y176609D01*
Y176155D01*
X129078Y176180D01*
X129022Y176206D01*
X128971Y176226D01*
X128925Y176236D01*
X128884Y176252D01*
X128853Y176257D01*
X128833Y176262D01*
X128828D01*
X128792Y176267D01*
X128746Y176272D01*
X128695D01*
X128639Y176277D01*
X128512Y176282D01*
X128384D01*
X128262Y176287D01*
X127385D01*
X127298Y176292D01*
X127232Y176297D01*
X127175D01*
X127135Y176303D01*
X127104Y176308D01*
X127089Y176313D01*
X127084D01*
X127017Y176328D01*
X126961Y176348D01*
X126915Y176369D01*
X126869Y176394D01*
X126839Y176415D01*
X126813Y176430D01*
X126798Y176440D01*
X126793Y176445D01*
X126752Y176486D01*
X126711Y176532D01*
X126681Y176583D01*
X126650Y176634D01*
X126630Y176680D01*
X126614Y176716D01*
X126604Y176741D01*
X126599Y176751D01*
X126574Y176833D01*
X126553Y176920D01*
X126538Y177006D01*
X126528Y177093D01*
X126523Y177170D01*
X126518Y177226D01*
Y177251D01*
Y177267D01*
Y177277D01*
Y177282D01*
X126523Y177404D01*
X126533Y177511D01*
X126548Y177613D01*
X126564Y177695D01*
X126579Y177766D01*
X126594Y177817D01*
X126599Y177838D01*
X126604Y177853D01*
X126609Y177858D01*
Y177863D01*
X126645Y177950D01*
X126691Y178026D01*
X126732Y178093D01*
X126773Y178149D01*
X126813Y178190D01*
X126844Y178220D01*
X126864Y178241D01*
X126869Y178246D01*
X126936Y178292D01*
X127007Y178332D01*
X127079Y178363D01*
X127145Y178389D01*
X127211Y178409D01*
X127257Y178424D01*
X127278Y178429D01*
X127293D01*
X127298Y178434D01*
X127303D01*
X127359Y178011D01*
X127267Y177980D01*
X127186Y177950D01*
X127119Y177914D01*
X127068Y177884D01*
X127028Y177853D01*
X127002Y177828D01*
X126987Y177807D01*
X126982Y177802D01*
X126946Y177741D01*
X126920Y177669D01*
X126900Y177593D01*
X126890Y177522D01*
X126880Y177450D01*
X126875Y177399D01*
Y177379D01*
Y177363D01*
Y177353D01*
Y177348D01*
X126880Y177231D01*
X126895Y177129D01*
X126920Y177047D01*
X126946Y176976D01*
X126977Y176925D01*
X126997Y176884D01*
X127017Y176858D01*
X127023Y176853D01*
X127068Y176813D01*
X127125Y176782D01*
X127186Y176757D01*
X127247Y176741D01*
X127303Y176731D01*
X127354Y176726D01*
X127461D01*
X127492Y176731D01*
X127507D01*
X127522Y176782D01*
X127538Y176838D01*
X127568Y176955D01*
X127594Y177088D01*
X127619Y177210D01*
X127629Y177272D01*
X127635Y177328D01*
X127645Y177379D01*
X127650Y177419D01*
X127655Y177455D01*
Y177481D01*
X127660Y177501D01*
Y177506D01*
X127670Y177598D01*
X127685Y177674D01*
X127696Y177741D01*
X127706Y177792D01*
X127711Y177833D01*
X127721Y177863D01*
X127726Y177884D01*
Y177889D01*
X127747Y177955D01*
X127767Y178011D01*
X127793Y178067D01*
X127813Y178113D01*
X127833Y178154D01*
X127854Y178179D01*
X127864Y178200D01*
X127869Y178205D01*
X127905Y178256D01*
X127946Y178297D01*
X127986Y178338D01*
X128027Y178368D01*
X128063Y178394D01*
X128094Y178414D01*
X128114Y178424D01*
X128119Y178429D01*
X128175Y178455D01*
X128236Y178475D01*
X128292Y178490D01*
X128349Y178501D01*
X128394Y178506D01*
X128430Y178511D01*
X128461D01*
X128522Y178506D01*
D02*
G37*
G36*
X126910Y175548D02*
X128522D01*
X128578Y175543D01*
X128634Y175538D01*
X128680D01*
X128721Y175532D01*
X128787Y175522D01*
X128838Y175512D01*
X128874Y175507D01*
X128894Y175497D01*
X128899D01*
X128945Y175476D01*
X128981Y175446D01*
X129017Y175415D01*
X129042Y175390D01*
X129068Y175359D01*
X129083Y175339D01*
X129093Y175323D01*
X129098Y175318D01*
X129124Y175262D01*
X129139Y175206D01*
X129154Y175145D01*
X129159Y175084D01*
X129165Y175033D01*
X129170Y174992D01*
Y174961D01*
Y174951D01*
X129165Y174839D01*
X129159Y174783D01*
X129149Y174732D01*
X129144Y174686D01*
X129139Y174650D01*
X129134Y174630D01*
Y174620D01*
X128751Y174676D01*
X128756Y174716D01*
X128762Y174757D01*
Y174793D01*
X128767Y174819D01*
Y174839D01*
Y174854D01*
Y174864D01*
Y174870D01*
X128762Y174936D01*
X128751Y174982D01*
X128741Y175007D01*
X128736Y175017D01*
X128711Y175053D01*
X128685Y175074D01*
X128665Y175089D01*
X128655Y175094D01*
X128629Y175099D01*
X128593Y175104D01*
X128512Y175109D01*
X128476Y175114D01*
X126910D01*
Y174676D01*
X126574D01*
Y175114D01*
X125681D01*
X125941Y175548D01*
X126574D01*
Y175869D01*
X126910D01*
Y175548D01*
D02*
G37*
G36*
X129134Y172218D02*
X128762D01*
Y173401D01*
X128767Y173594D01*
X128772Y173686D01*
Y173773D01*
X128777Y173844D01*
X128782Y173900D01*
X128787Y173921D01*
Y173936D01*
Y173946D01*
Y173951D01*
X128486Y173681D01*
X126864Y172294D01*
X126574D01*
Y174385D01*
X126926D01*
Y173345D01*
Y173263D01*
X126920Y173176D01*
Y173095D01*
X126915Y173018D01*
Y172952D01*
X126910Y172901D01*
Y172880D01*
Y172865D01*
Y172860D01*
Y172855D01*
X128787Y174482D01*
X129134D01*
Y172218D01*
D02*
G37*
G36*
X122873Y184810D02*
X122980Y184800D01*
X123082Y184785D01*
X123174Y184765D01*
X123261Y184739D01*
X123343Y184714D01*
X123414Y184683D01*
X123480Y184652D01*
X123536Y184622D01*
X123587Y184591D01*
X123628Y184566D01*
X123664Y184540D01*
X123695Y184520D01*
X123715Y184504D01*
X123725Y184494D01*
X123730Y184489D01*
X123791Y184423D01*
X123842Y184357D01*
X123888Y184285D01*
X123929Y184209D01*
X123960Y184137D01*
X123990Y184061D01*
X124031Y183918D01*
X124041Y183852D01*
X124051Y183791D01*
X124062Y183734D01*
X124067Y183688D01*
X124072Y183653D01*
Y183622D01*
Y183602D01*
Y183597D01*
X124062Y183439D01*
X124036Y183296D01*
X124005Y183168D01*
X123985Y183117D01*
X123965Y183066D01*
X123944Y183020D01*
X123924Y182980D01*
X123909Y182949D01*
X123893Y182918D01*
X123878Y182898D01*
X123868Y182883D01*
X123858Y182872D01*
Y182867D01*
X123766Y182765D01*
X123669Y182684D01*
X123567Y182612D01*
X123470Y182561D01*
X123383Y182521D01*
X123343Y182505D01*
X123312Y182490D01*
X123281Y182480D01*
X123261Y182475D01*
X123251Y182470D01*
X123246D01*
X123190Y182918D01*
X123286Y182959D01*
X123368Y183005D01*
X123440Y183051D01*
X123496Y183092D01*
X123536Y183127D01*
X123567Y183158D01*
X123587Y183184D01*
X123592Y183189D01*
X123633Y183255D01*
X123664Y183321D01*
X123684Y183393D01*
X123699Y183454D01*
X123710Y183510D01*
X123715Y183556D01*
Y183587D01*
Y183592D01*
Y183597D01*
X123710Y183658D01*
X123705Y183714D01*
X123679Y183816D01*
X123644Y183908D01*
X123603Y183989D01*
X123567Y184051D01*
X123531Y184097D01*
X123506Y184127D01*
X123496Y184132D01*
Y184137D01*
X123404Y184209D01*
X123302Y184265D01*
X123190Y184306D01*
X123088Y184336D01*
X122996Y184352D01*
X122955Y184362D01*
X122919Y184367D01*
X122889D01*
X122868Y184372D01*
X122848D01*
Y182459D01*
X122797Y182454D01*
X122736D01*
X122618Y182459D01*
X122511Y182470D01*
X122409Y182485D01*
X122312Y182505D01*
X122226Y182531D01*
X122144Y182556D01*
X122073Y182587D01*
X122006Y182617D01*
X121945Y182648D01*
X121894Y182679D01*
X121853Y182704D01*
X121818Y182730D01*
X121787Y182750D01*
X121767Y182765D01*
X121756Y182776D01*
X121751Y182781D01*
X121690Y182842D01*
X121634Y182908D01*
X121588Y182980D01*
X121547Y183051D01*
X121512Y183122D01*
X121486Y183189D01*
X121461Y183260D01*
X121445Y183321D01*
X121430Y183388D01*
X121420Y183444D01*
X121410Y183495D01*
X121405Y183536D01*
X121399Y183571D01*
Y183602D01*
Y183617D01*
Y183622D01*
X121405Y183719D01*
X121415Y183811D01*
X121430Y183898D01*
X121456Y183979D01*
X121481Y184056D01*
X121512Y184127D01*
X121542Y184193D01*
X121578Y184249D01*
X121608Y184306D01*
X121644Y184352D01*
X121675Y184392D01*
X121700Y184423D01*
X121726Y184448D01*
X121741Y184469D01*
X121751Y184479D01*
X121756Y184484D01*
X121828Y184540D01*
X121904Y184591D01*
X121981Y184637D01*
X122062Y184678D01*
X122149Y184708D01*
X122231Y184734D01*
X122394Y184775D01*
X122465Y184790D01*
X122537Y184800D01*
X122598Y184805D01*
X122654Y184810D01*
X122700Y184816D01*
X122761D01*
X122873Y184810D01*
D02*
G37*
G36*
X124016Y181490D02*
X122537D01*
X122450Y181480D01*
X122379Y181470D01*
X122312Y181460D01*
X122251Y181445D01*
X122195Y181429D01*
X122144Y181409D01*
X122103Y181388D01*
X122068Y181373D01*
X122037Y181353D01*
X122011Y181337D01*
X121991Y181322D01*
X121966Y181302D01*
X121955Y181291D01*
X121894Y181215D01*
X121853Y181133D01*
X121823Y181052D01*
X121797Y180980D01*
X121787Y180914D01*
X121782Y180863D01*
X121777Y180843D01*
Y180827D01*
Y180822D01*
Y180817D01*
X121782Y180756D01*
X121787Y180695D01*
X121802Y180644D01*
X121818Y180603D01*
X121833Y180567D01*
X121843Y180537D01*
X121853Y180521D01*
X121858Y180516D01*
X121889Y180470D01*
X121925Y180430D01*
X121960Y180399D01*
X121991Y180374D01*
X122022Y180358D01*
X122047Y180343D01*
X122062Y180333D01*
X122068D01*
X122124Y180317D01*
X122185Y180302D01*
X122251Y180292D01*
X122318Y180287D01*
X122374Y180282D01*
X124016D01*
Y179848D01*
X122338D01*
X122251Y179853D01*
X122180Y179858D01*
X122119D01*
X122078Y179864D01*
X122047Y179869D01*
X122027Y179874D01*
X122022D01*
X121955Y179889D01*
X121894Y179914D01*
X121843Y179935D01*
X121792Y179955D01*
X121756Y179981D01*
X121731Y179996D01*
X121711Y180006D01*
X121705Y180011D01*
X121654Y180052D01*
X121614Y180098D01*
X121573Y180144D01*
X121542Y180195D01*
X121517Y180236D01*
X121501Y180271D01*
X121491Y180292D01*
X121486Y180302D01*
X121456Y180374D01*
X121435Y180450D01*
X121420Y180521D01*
X121410Y180588D01*
X121405Y180644D01*
X121399Y180685D01*
Y180715D01*
Y180720D01*
Y180725D01*
X121405Y180822D01*
X121420Y180914D01*
X121440Y180996D01*
X121466Y181077D01*
X121496Y181149D01*
X121532Y181215D01*
X121573Y181276D01*
X121608Y181327D01*
X121649Y181378D01*
X121690Y181419D01*
X121726Y181455D01*
X121756Y181485D01*
X121782Y181506D01*
X121802Y181521D01*
X121818Y181531D01*
X121823Y181536D01*
X121456D01*
Y181924D01*
X124016D01*
Y181490D01*
D02*
G37*
G36*
X123394Y179318D02*
X123521Y179272D01*
X123623Y179216D01*
X123710Y179160D01*
X123781Y179109D01*
X123827Y179063D01*
X123858Y179032D01*
X123863Y179027D01*
X123868Y179022D01*
X123904Y178971D01*
X123934Y178915D01*
X123985Y178793D01*
X124021Y178665D01*
X124046Y178543D01*
X124056Y178487D01*
X124062Y178436D01*
X124067Y178384D01*
Y178344D01*
X124072Y178308D01*
Y178282D01*
Y178267D01*
Y178262D01*
X124067Y178150D01*
X124056Y178053D01*
X124041Y177961D01*
X124021Y177880D01*
X124001Y177813D01*
X123985Y177762D01*
X123975Y177732D01*
X123970Y177727D01*
Y177722D01*
X123924Y177635D01*
X123878Y177563D01*
X123827Y177502D01*
X123781Y177446D01*
X123740Y177405D01*
X123705Y177380D01*
X123684Y177359D01*
X123674Y177354D01*
X123603Y177313D01*
X123526Y177283D01*
X123460Y177257D01*
X123399Y177242D01*
X123343Y177232D01*
X123302Y177227D01*
X123266D01*
X123184Y177232D01*
X123113Y177242D01*
X123052Y177262D01*
X122996Y177278D01*
X122950Y177298D01*
X122919Y177319D01*
X122899Y177329D01*
X122894Y177334D01*
X122843Y177375D01*
X122797Y177421D01*
X122756Y177466D01*
X122725Y177512D01*
X122700Y177558D01*
X122685Y177589D01*
X122675Y177609D01*
X122669Y177620D01*
X122654Y177655D01*
X122639Y177696D01*
X122603Y177793D01*
X122567Y177900D01*
X122537Y178007D01*
X122506Y178104D01*
X122496Y178150D01*
X122486Y178186D01*
X122476Y178216D01*
X122470Y178242D01*
X122465Y178257D01*
Y178262D01*
X122450Y178318D01*
X122435Y178369D01*
X122424Y178415D01*
X122409Y178456D01*
X122394Y178522D01*
X122379Y178573D01*
X122363Y178609D01*
X122358Y178629D01*
X122353Y178639D01*
Y178645D01*
X122333Y178685D01*
X122318Y178721D01*
X122297Y178752D01*
X122282Y178772D01*
X122266Y178793D01*
X122251Y178803D01*
X122246Y178808D01*
X122241Y178813D01*
X122190Y178843D01*
X122139Y178859D01*
X122119D01*
X122103Y178864D01*
X122088D01*
X122042Y178859D01*
X121996Y178843D01*
X121955Y178823D01*
X121925Y178798D01*
X121894Y178777D01*
X121874Y178757D01*
X121864Y178742D01*
X121858Y178736D01*
X121823Y178680D01*
X121797Y178614D01*
X121782Y178543D01*
X121767Y178476D01*
X121762Y178410D01*
X121756Y178359D01*
Y178339D01*
Y178323D01*
Y178313D01*
Y178308D01*
X121762Y178221D01*
X121772Y178140D01*
X121792Y178073D01*
X121813Y178022D01*
X121833Y177977D01*
X121853Y177946D01*
X121864Y177926D01*
X121869Y177920D01*
X121915Y177869D01*
X121966Y177834D01*
X122017Y177803D01*
X122062Y177778D01*
X122108Y177762D01*
X122144Y177752D01*
X122164Y177747D01*
X122175D01*
X122119Y177324D01*
X122032Y177344D01*
X121955Y177365D01*
X121889Y177390D01*
X121828Y177416D01*
X121787Y177441D01*
X121751Y177461D01*
X121731Y177472D01*
X121726Y177477D01*
X121675Y177523D01*
X121629Y177574D01*
X121588Y177630D01*
X121552Y177686D01*
X121527Y177737D01*
X121507Y177778D01*
X121496Y177803D01*
X121491Y177808D01*
Y177813D01*
X121461Y177900D01*
X121440Y177992D01*
X121420Y178078D01*
X121410Y178160D01*
X121405Y178237D01*
X121399Y178293D01*
Y178313D01*
Y178328D01*
Y178339D01*
Y178344D01*
Y178415D01*
X121410Y178487D01*
X121415Y178548D01*
X121425Y178604D01*
X121435Y178650D01*
X121445Y178685D01*
X121450Y178706D01*
X121456Y178716D01*
X121476Y178777D01*
X121496Y178833D01*
X121517Y178879D01*
X121537Y178920D01*
X121552Y178951D01*
X121568Y178971D01*
X121573Y178986D01*
X121578Y178991D01*
X121614Y179042D01*
X121654Y179083D01*
X121700Y179119D01*
X121736Y179149D01*
X121772Y179175D01*
X121797Y179190D01*
X121818Y179200D01*
X121823Y179206D01*
X121879Y179231D01*
X121930Y179252D01*
X121986Y179262D01*
X122032Y179272D01*
X122078Y179277D01*
X122108Y179282D01*
X122139D01*
X122210Y179277D01*
X122272Y179267D01*
X122333Y179252D01*
X122384Y179236D01*
X122424Y179221D01*
X122460Y179206D01*
X122481Y179195D01*
X122486Y179190D01*
X122542Y179149D01*
X122588Y179104D01*
X122628Y179058D01*
X122664Y179012D01*
X122690Y178971D01*
X122710Y178940D01*
X122720Y178920D01*
X122725Y178910D01*
X122741Y178874D01*
X122761Y178828D01*
X122797Y178726D01*
X122827Y178619D01*
X122863Y178507D01*
X122889Y178410D01*
X122904Y178364D01*
X122914Y178323D01*
X122924Y178293D01*
X122929Y178267D01*
X122934Y178252D01*
Y178247D01*
X122950Y178181D01*
X122965Y178124D01*
X122980Y178073D01*
X122996Y178027D01*
X123006Y177987D01*
X123021Y177951D01*
X123042Y177890D01*
X123057Y177849D01*
X123072Y177823D01*
X123077Y177808D01*
X123082Y177803D01*
X123113Y177757D01*
X123154Y177727D01*
X123190Y177701D01*
X123225Y177686D01*
X123261Y177676D01*
X123286Y177671D01*
X123312D01*
X123373Y177676D01*
X123424Y177691D01*
X123475Y177716D01*
X123516Y177742D01*
X123552Y177772D01*
X123577Y177793D01*
X123592Y177813D01*
X123598Y177818D01*
X123638Y177880D01*
X123664Y177946D01*
X123684Y178022D01*
X123699Y178094D01*
X123710Y178160D01*
X123715Y178211D01*
Y178232D01*
Y178247D01*
Y178257D01*
Y178262D01*
X123710Y178369D01*
X123695Y178461D01*
X123674Y178537D01*
X123649Y178604D01*
X123623Y178655D01*
X123603Y178696D01*
X123587Y178716D01*
X123582Y178726D01*
X123526Y178782D01*
X123460Y178828D01*
X123394Y178859D01*
X123332Y178884D01*
X123276Y178905D01*
X123225Y178915D01*
X123195Y178925D01*
X123184D01*
X123251Y179353D01*
X123394Y179318D01*
D02*
G37*
G36*
X124016Y192838D02*
X120487D01*
Y193307D01*
X124016D01*
Y192838D01*
D02*
G37*
G36*
Y191537D02*
X122450D01*
Y190997D01*
Y190936D01*
X122455Y190879D01*
Y190839D01*
X122460Y190803D01*
X122465Y190778D01*
Y190757D01*
X122470Y190747D01*
Y190742D01*
X122496Y190660D01*
X122511Y190624D01*
X122527Y190594D01*
X122542Y190563D01*
X122552Y190543D01*
X122557Y190533D01*
X122562Y190528D01*
X122593Y190487D01*
X122628Y190446D01*
X122705Y190369D01*
X122741Y190334D01*
X122771Y190308D01*
X122792Y190293D01*
X122797Y190288D01*
X122868Y190237D01*
X122945Y190181D01*
X123026Y190125D01*
X123103Y190069D01*
X123174Y190023D01*
X123230Y189987D01*
X123251Y189972D01*
X123266Y189962D01*
X123276Y189951D01*
X123281D01*
X124016Y189487D01*
Y188906D01*
X123057Y189513D01*
X122955Y189584D01*
X122863Y189650D01*
X122787Y189717D01*
X122715Y189773D01*
X122664Y189824D01*
X122624Y189865D01*
X122598Y189890D01*
X122588Y189900D01*
X122557Y189941D01*
X122521Y189987D01*
X122465Y190079D01*
X122445Y190120D01*
X122424Y190150D01*
X122414Y190171D01*
X122409Y190181D01*
X122394Y190089D01*
X122379Y190002D01*
X122353Y189926D01*
X122333Y189849D01*
X122307Y189783D01*
X122277Y189722D01*
X122251Y189666D01*
X122226Y189615D01*
X122195Y189574D01*
X122170Y189533D01*
X122149Y189503D01*
X122129Y189477D01*
X122113Y189457D01*
X122098Y189441D01*
X122093Y189436D01*
X122088Y189431D01*
X122037Y189390D01*
X121986Y189349D01*
X121879Y189288D01*
X121772Y189248D01*
X121670Y189217D01*
X121583Y189197D01*
X121547Y189191D01*
X121512D01*
X121486Y189186D01*
X121450D01*
X121343Y189191D01*
X121247Y189207D01*
X121155Y189232D01*
X121078Y189258D01*
X121012Y189288D01*
X120961Y189309D01*
X120930Y189329D01*
X120925Y189334D01*
X120920D01*
X120838Y189395D01*
X120767Y189457D01*
X120706Y189523D01*
X120660Y189584D01*
X120624Y189640D01*
X120604Y189686D01*
X120589Y189717D01*
X120583Y189722D01*
Y189727D01*
X120568Y189773D01*
X120553Y189829D01*
X120527Y189941D01*
X120512Y190064D01*
X120497Y190176D01*
X120492Y190283D01*
Y190329D01*
X120487Y190369D01*
Y190400D01*
Y190426D01*
Y190441D01*
Y190446D01*
Y192007D01*
X124016D01*
Y191537D01*
D02*
G37*
G36*
X123394Y187274D02*
X123521Y187228D01*
X123623Y187172D01*
X123710Y187116D01*
X123781Y187065D01*
X123827Y187019D01*
X123858Y186988D01*
X123863Y186983D01*
X123868Y186978D01*
X123904Y186927D01*
X123934Y186871D01*
X123985Y186749D01*
X124021Y186621D01*
X124046Y186499D01*
X124056Y186442D01*
X124062Y186391D01*
X124067Y186340D01*
Y186300D01*
X124072Y186264D01*
Y186239D01*
Y186223D01*
Y186218D01*
X124067Y186106D01*
X124056Y186009D01*
X124041Y185917D01*
X124021Y185836D01*
X124001Y185769D01*
X123985Y185718D01*
X123975Y185688D01*
X123970Y185683D01*
Y185678D01*
X123924Y185591D01*
X123878Y185519D01*
X123827Y185458D01*
X123781Y185402D01*
X123740Y185361D01*
X123705Y185336D01*
X123684Y185315D01*
X123674Y185310D01*
X123603Y185269D01*
X123526Y185239D01*
X123460Y185213D01*
X123399Y185198D01*
X123343Y185188D01*
X123302Y185183D01*
X123266D01*
X123184Y185188D01*
X123113Y185198D01*
X123052Y185219D01*
X122996Y185234D01*
X122950Y185254D01*
X122919Y185275D01*
X122899Y185285D01*
X122894Y185290D01*
X122843Y185331D01*
X122797Y185377D01*
X122756Y185423D01*
X122725Y185468D01*
X122700Y185514D01*
X122685Y185545D01*
X122675Y185565D01*
X122669Y185575D01*
X122654Y185611D01*
X122639Y185652D01*
X122603Y185749D01*
X122567Y185856D01*
X122537Y185963D01*
X122506Y186060D01*
X122496Y186106D01*
X122486Y186142D01*
X122476Y186172D01*
X122470Y186198D01*
X122465Y186213D01*
Y186218D01*
X122450Y186274D01*
X122435Y186325D01*
X122424Y186371D01*
X122409Y186412D01*
X122394Y186478D01*
X122379Y186529D01*
X122363Y186565D01*
X122358Y186585D01*
X122353Y186595D01*
Y186601D01*
X122333Y186641D01*
X122318Y186677D01*
X122297Y186708D01*
X122282Y186728D01*
X122266Y186749D01*
X122251Y186759D01*
X122246Y186764D01*
X122241Y186769D01*
X122190Y186800D01*
X122139Y186815D01*
X122119D01*
X122103Y186820D01*
X122088D01*
X122042Y186815D01*
X121996Y186800D01*
X121955Y186779D01*
X121925Y186754D01*
X121894Y186733D01*
X121874Y186713D01*
X121864Y186697D01*
X121858Y186692D01*
X121823Y186636D01*
X121797Y186570D01*
X121782Y186499D01*
X121767Y186432D01*
X121762Y186366D01*
X121756Y186315D01*
Y186295D01*
Y186279D01*
Y186269D01*
Y186264D01*
X121762Y186177D01*
X121772Y186096D01*
X121792Y186029D01*
X121813Y185978D01*
X121833Y185933D01*
X121853Y185902D01*
X121864Y185881D01*
X121869Y185876D01*
X121915Y185825D01*
X121966Y185790D01*
X122017Y185759D01*
X122062Y185734D01*
X122108Y185718D01*
X122144Y185708D01*
X122164Y185703D01*
X122175D01*
X122119Y185280D01*
X122032Y185300D01*
X121955Y185320D01*
X121889Y185346D01*
X121828Y185371D01*
X121787Y185397D01*
X121751Y185417D01*
X121731Y185428D01*
X121726Y185433D01*
X121675Y185479D01*
X121629Y185530D01*
X121588Y185586D01*
X121552Y185642D01*
X121527Y185693D01*
X121507Y185734D01*
X121496Y185759D01*
X121491Y185764D01*
Y185769D01*
X121461Y185856D01*
X121440Y185948D01*
X121420Y186035D01*
X121410Y186116D01*
X121405Y186193D01*
X121399Y186249D01*
Y186269D01*
Y186284D01*
Y186295D01*
Y186300D01*
Y186371D01*
X121410Y186442D01*
X121415Y186504D01*
X121425Y186560D01*
X121435Y186606D01*
X121445Y186641D01*
X121450Y186662D01*
X121456Y186672D01*
X121476Y186733D01*
X121496Y186789D01*
X121517Y186835D01*
X121537Y186876D01*
X121552Y186907D01*
X121568Y186927D01*
X121573Y186942D01*
X121578Y186947D01*
X121614Y186998D01*
X121654Y187039D01*
X121700Y187075D01*
X121736Y187106D01*
X121772Y187131D01*
X121797Y187146D01*
X121818Y187156D01*
X121823Y187162D01*
X121879Y187187D01*
X121930Y187207D01*
X121986Y187218D01*
X122032Y187228D01*
X122078Y187233D01*
X122108Y187238D01*
X122139D01*
X122210Y187233D01*
X122272Y187223D01*
X122333Y187207D01*
X122384Y187192D01*
X122424Y187177D01*
X122460Y187162D01*
X122481Y187151D01*
X122486Y187146D01*
X122542Y187106D01*
X122588Y187060D01*
X122628Y187014D01*
X122664Y186968D01*
X122690Y186927D01*
X122710Y186896D01*
X122720Y186876D01*
X122725Y186866D01*
X122741Y186830D01*
X122761Y186784D01*
X122797Y186682D01*
X122827Y186575D01*
X122863Y186463D01*
X122889Y186366D01*
X122904Y186320D01*
X122914Y186279D01*
X122924Y186249D01*
X122929Y186223D01*
X122934Y186208D01*
Y186203D01*
X122950Y186136D01*
X122965Y186080D01*
X122980Y186029D01*
X122996Y185984D01*
X123006Y185943D01*
X123021Y185907D01*
X123042Y185846D01*
X123057Y185805D01*
X123072Y185780D01*
X123077Y185764D01*
X123082Y185759D01*
X123113Y185713D01*
X123154Y185683D01*
X123190Y185657D01*
X123225Y185642D01*
X123261Y185632D01*
X123286Y185626D01*
X123312D01*
X123373Y185632D01*
X123424Y185647D01*
X123475Y185672D01*
X123516Y185698D01*
X123552Y185729D01*
X123577Y185749D01*
X123592Y185769D01*
X123598Y185774D01*
X123638Y185836D01*
X123664Y185902D01*
X123684Y185978D01*
X123699Y186050D01*
X123710Y186116D01*
X123715Y186167D01*
Y186188D01*
Y186203D01*
Y186213D01*
Y186218D01*
X123710Y186325D01*
X123695Y186417D01*
X123674Y186494D01*
X123649Y186560D01*
X123623Y186611D01*
X123603Y186652D01*
X123587Y186672D01*
X123582Y186682D01*
X123526Y186738D01*
X123460Y186784D01*
X123394Y186815D01*
X123332Y186840D01*
X123276Y186861D01*
X123225Y186871D01*
X123195Y186881D01*
X123184D01*
X123251Y187310D01*
X123394Y187274D01*
D02*
G37*
G36*
X122853Y176870D02*
X122965Y176860D01*
X123067Y176844D01*
X123164Y176824D01*
X123251Y176798D01*
X123332Y176773D01*
X123409Y176742D01*
X123475Y176712D01*
X123536Y176681D01*
X123587Y176651D01*
X123628Y176625D01*
X123664Y176600D01*
X123695Y176579D01*
X123715Y176564D01*
X123725Y176554D01*
X123730Y176549D01*
X123791Y176482D01*
X123842Y176416D01*
X123888Y176345D01*
X123929Y176273D01*
X123960Y176202D01*
X123990Y176125D01*
X124031Y175988D01*
X124041Y175926D01*
X124051Y175865D01*
X124062Y175814D01*
X124067Y175768D01*
X124072Y175727D01*
Y175702D01*
Y175681D01*
Y175676D01*
X124067Y175554D01*
X124046Y175442D01*
X124021Y175335D01*
X123995Y175248D01*
X123965Y175171D01*
X123954Y175141D01*
X123944Y175115D01*
X123934Y175090D01*
X123924Y175075D01*
X123919Y175069D01*
Y175064D01*
X123853Y174962D01*
X123781Y174876D01*
X123710Y174799D01*
X123638Y174738D01*
X123577Y174692D01*
X123526Y174656D01*
X123506Y174646D01*
X123491Y174636D01*
X123485Y174631D01*
X123480D01*
X123363Y174580D01*
X123235Y174544D01*
X123108Y174514D01*
X122980Y174498D01*
X122924Y174488D01*
X122873D01*
X122822Y174483D01*
X122782Y174478D01*
X122700D01*
X122588Y174483D01*
X122486Y174493D01*
X122389Y174509D01*
X122297Y174529D01*
X122210Y174554D01*
X122134Y174585D01*
X122057Y174616D01*
X121996Y174646D01*
X121940Y174677D01*
X121889Y174707D01*
X121843Y174738D01*
X121807Y174764D01*
X121782Y174784D01*
X121762Y174799D01*
X121751Y174809D01*
X121746Y174814D01*
X121685Y174881D01*
X121634Y174947D01*
X121583Y175019D01*
X121547Y175090D01*
X121512Y175161D01*
X121486Y175233D01*
X121440Y175370D01*
X121430Y175437D01*
X121420Y175493D01*
X121410Y175544D01*
X121405Y175590D01*
X121399Y175625D01*
Y175651D01*
Y175671D01*
Y175676D01*
X121405Y175763D01*
X121410Y175845D01*
X121445Y176003D01*
X121491Y176140D01*
X121517Y176202D01*
X121542Y176258D01*
X121568Y176309D01*
X121593Y176350D01*
X121619Y176390D01*
X121639Y176421D01*
X121660Y176446D01*
X121675Y176467D01*
X121680Y176477D01*
X121685Y176482D01*
X121751Y176554D01*
X121828Y176610D01*
X121909Y176666D01*
X121991Y176707D01*
X122078Y176747D01*
X122170Y176778D01*
X122256Y176804D01*
X122338Y176824D01*
X122420Y176844D01*
X122491Y176855D01*
X122562Y176865D01*
X122618Y176870D01*
X122669D01*
X122705Y176875D01*
X122736D01*
X122853Y176870D01*
D02*
G37*
G36*
X124016Y173539D02*
X122679D01*
X122578Y173534D01*
X122486Y173529D01*
X122399Y173519D01*
X122323Y173504D01*
X122261Y173488D01*
X122215Y173478D01*
X122185Y173473D01*
X122175Y173468D01*
X122119Y173448D01*
X122073Y173422D01*
X122032Y173397D01*
X121996Y173371D01*
X121971Y173346D01*
X121950Y173330D01*
X121940Y173315D01*
X121935Y173310D01*
X121904Y173269D01*
X121884Y173223D01*
X121869Y173177D01*
X121858Y173142D01*
X121853Y173106D01*
X121848Y173081D01*
Y173060D01*
Y173055D01*
X121853Y172999D01*
X121864Y172943D01*
X121879Y172887D01*
X121894Y172841D01*
X121909Y172800D01*
X121925Y172769D01*
X121935Y172749D01*
X121940Y172744D01*
X121542Y172586D01*
X121496Y172672D01*
X121461Y172754D01*
X121435Y172826D01*
X121415Y172892D01*
X121405Y172948D01*
X121399Y172994D01*
Y173019D01*
Y173029D01*
X121405Y173086D01*
X121415Y173137D01*
X121430Y173188D01*
X121445Y173228D01*
X121461Y173259D01*
X121476Y173290D01*
X121486Y173305D01*
X121491Y173310D01*
X121532Y173356D01*
X121583Y173402D01*
X121644Y173448D01*
X121700Y173488D01*
X121756Y173529D01*
X121802Y173555D01*
X121838Y173575D01*
X121843Y173580D01*
X121456D01*
Y173973D01*
X124016D01*
Y173539D01*
D02*
G37*
G36*
Y170525D02*
X122679D01*
X122578Y170520D01*
X122486Y170515D01*
X122399Y170505D01*
X122323Y170490D01*
X122261Y170474D01*
X122215Y170464D01*
X122185Y170459D01*
X122175Y170454D01*
X122119Y170434D01*
X122073Y170408D01*
X122032Y170383D01*
X121996Y170357D01*
X121971Y170332D01*
X121950Y170316D01*
X121940Y170301D01*
X121935Y170296D01*
X121904Y170255D01*
X121884Y170209D01*
X121869Y170163D01*
X121858Y170128D01*
X121853Y170092D01*
X121848Y170066D01*
Y170046D01*
Y170041D01*
X121853Y169985D01*
X121864Y169929D01*
X121879Y169873D01*
X121894Y169827D01*
X121909Y169786D01*
X121925Y169755D01*
X121935Y169735D01*
X121940Y169730D01*
X121542Y169572D01*
X121496Y169658D01*
X121461Y169740D01*
X121435Y169811D01*
X121415Y169878D01*
X121405Y169934D01*
X121399Y169980D01*
Y170005D01*
Y170015D01*
X121405Y170071D01*
X121415Y170123D01*
X121430Y170174D01*
X121445Y170214D01*
X121461Y170245D01*
X121476Y170275D01*
X121486Y170291D01*
X121491Y170296D01*
X121532Y170342D01*
X121583Y170388D01*
X121644Y170434D01*
X121700Y170474D01*
X121756Y170515D01*
X121802Y170541D01*
X121838Y170561D01*
X121843Y170566D01*
X121456D01*
Y170959D01*
X124016D01*
Y170525D01*
D02*
G37*
G36*
X122873Y169454D02*
X122980Y169444D01*
X123082Y169429D01*
X123174Y169409D01*
X123261Y169383D01*
X123343Y169358D01*
X123414Y169327D01*
X123480Y169296D01*
X123536Y169266D01*
X123587Y169235D01*
X123628Y169210D01*
X123664Y169184D01*
X123695Y169164D01*
X123715Y169148D01*
X123725Y169138D01*
X123730Y169133D01*
X123791Y169067D01*
X123842Y169000D01*
X123888Y168929D01*
X123929Y168853D01*
X123960Y168781D01*
X123990Y168705D01*
X124031Y168562D01*
X124041Y168496D01*
X124051Y168434D01*
X124062Y168378D01*
X124067Y168332D01*
X124072Y168297D01*
Y168266D01*
Y168246D01*
Y168241D01*
X124062Y168082D01*
X124036Y167940D01*
X124005Y167812D01*
X123985Y167761D01*
X123965Y167710D01*
X123944Y167664D01*
X123924Y167623D01*
X123909Y167593D01*
X123893Y167562D01*
X123878Y167542D01*
X123868Y167527D01*
X123858Y167516D01*
Y167511D01*
X123766Y167409D01*
X123669Y167328D01*
X123567Y167256D01*
X123470Y167205D01*
X123383Y167165D01*
X123343Y167149D01*
X123312Y167134D01*
X123281Y167124D01*
X123261Y167119D01*
X123251Y167113D01*
X123246D01*
X123190Y167562D01*
X123286Y167603D01*
X123368Y167649D01*
X123440Y167695D01*
X123496Y167736D01*
X123536Y167771D01*
X123567Y167802D01*
X123587Y167827D01*
X123592Y167833D01*
X123633Y167899D01*
X123664Y167965D01*
X123684Y168037D01*
X123699Y168098D01*
X123710Y168154D01*
X123715Y168200D01*
Y168230D01*
Y168236D01*
Y168241D01*
X123710Y168302D01*
X123705Y168358D01*
X123679Y168460D01*
X123644Y168552D01*
X123603Y168633D01*
X123567Y168694D01*
X123531Y168740D01*
X123506Y168771D01*
X123496Y168776D01*
Y168781D01*
X123404Y168853D01*
X123302Y168909D01*
X123190Y168949D01*
X123088Y168980D01*
X122996Y168995D01*
X122955Y169006D01*
X122919Y169011D01*
X122889D01*
X122868Y169016D01*
X122848D01*
Y167103D01*
X122797Y167098D01*
X122736D01*
X122618Y167103D01*
X122511Y167113D01*
X122409Y167129D01*
X122312Y167149D01*
X122226Y167175D01*
X122144Y167200D01*
X122073Y167231D01*
X122006Y167261D01*
X121945Y167292D01*
X121894Y167323D01*
X121853Y167348D01*
X121818Y167374D01*
X121787Y167394D01*
X121767Y167409D01*
X121756Y167420D01*
X121751Y167425D01*
X121690Y167486D01*
X121634Y167552D01*
X121588Y167623D01*
X121547Y167695D01*
X121512Y167766D01*
X121486Y167833D01*
X121461Y167904D01*
X121445Y167965D01*
X121430Y168032D01*
X121420Y168088D01*
X121410Y168139D01*
X121405Y168179D01*
X121399Y168215D01*
Y168246D01*
Y168261D01*
Y168266D01*
X121405Y168363D01*
X121415Y168455D01*
X121430Y168542D01*
X121456Y168623D01*
X121481Y168700D01*
X121512Y168771D01*
X121542Y168837D01*
X121578Y168893D01*
X121608Y168949D01*
X121644Y168995D01*
X121675Y169036D01*
X121700Y169067D01*
X121726Y169092D01*
X121741Y169113D01*
X121751Y169123D01*
X121756Y169128D01*
X121828Y169184D01*
X121904Y169235D01*
X121981Y169281D01*
X122062Y169322D01*
X122149Y169352D01*
X122231Y169378D01*
X122394Y169419D01*
X122465Y169434D01*
X122537Y169444D01*
X122598Y169449D01*
X122654Y169454D01*
X122700Y169459D01*
X122761D01*
X122873Y169454D01*
D02*
G37*
%LPC*%
G36*
X127476Y167342D02*
X127395D01*
X127237Y167337D01*
X127094Y167332D01*
X126961Y167322D01*
X126839Y167306D01*
X126732Y167291D01*
X126635Y167271D01*
X126548Y167250D01*
X126472Y167230D01*
X126405Y167209D01*
X126349Y167194D01*
X126303Y167174D01*
X126263Y167158D01*
X126237Y167143D01*
X126217Y167133D01*
X126207Y167123D01*
X126201D01*
X126155Y167087D01*
X126115Y167051D01*
X126084Y167010D01*
X126054Y166970D01*
X126008Y166888D01*
X125977Y166812D01*
X125962Y166745D01*
X125952Y166689D01*
X125946Y166669D01*
Y166653D01*
Y166643D01*
Y166638D01*
X125952Y166582D01*
X125957Y166526D01*
X125972Y166475D01*
X125992Y166429D01*
X126038Y166342D01*
X126089Y166266D01*
X126145Y166210D01*
X126191Y166164D01*
X126212Y166148D01*
X126227Y166138D01*
X126232Y166128D01*
X126237D01*
X126298Y166092D01*
X126370Y166062D01*
X126451Y166031D01*
X126538Y166011D01*
X126630Y165990D01*
X126727Y165975D01*
X126920Y165950D01*
X127017Y165939D01*
X127104Y165934D01*
X127186Y165929D01*
X127252D01*
X127313Y165924D01*
X127553D01*
X127696Y165934D01*
X127823Y165945D01*
X127946Y165955D01*
X128048Y165970D01*
X128145Y165990D01*
X128226Y166011D01*
X128303Y166026D01*
X128364Y166047D01*
X128415Y166067D01*
X128461Y166082D01*
X128496Y166103D01*
X128522Y166113D01*
X128537Y166123D01*
X128547Y166133D01*
X128552D01*
X128603Y166174D01*
X128644Y166215D01*
X128685Y166256D01*
X128716Y166296D01*
X128767Y166383D01*
X128802Y166460D01*
X128823Y166531D01*
X128833Y166582D01*
X128838Y166602D01*
Y166618D01*
Y166628D01*
Y166633D01*
X128833Y166689D01*
X128828Y166740D01*
X128792Y166837D01*
X128746Y166924D01*
X128695Y167000D01*
X128644Y167056D01*
X128598Y167102D01*
X128563Y167128D01*
X128558Y167138D01*
X128552D01*
X128491Y167174D01*
X128420Y167204D01*
X128338Y167235D01*
X128252Y167255D01*
X128160Y167276D01*
X128063Y167291D01*
X127864Y167316D01*
X127772Y167327D01*
X127685Y167332D01*
X127604Y167337D01*
X127538D01*
X127476Y167342D01*
D02*
G37*
G36*
X128027Y161819D02*
X127991D01*
X127869Y161808D01*
X127762Y161788D01*
X127665Y161752D01*
X127589Y161717D01*
X127522Y161681D01*
X127476Y161645D01*
X127451Y161625D01*
X127441Y161615D01*
X127369Y161533D01*
X127318Y161451D01*
X127278Y161365D01*
X127252Y161288D01*
X127237Y161217D01*
X127232Y161166D01*
X127226Y161145D01*
Y161130D01*
Y161120D01*
Y161115D01*
X127237Y161008D01*
X127262Y160911D01*
X127293Y160829D01*
X127334Y160758D01*
X127374Y160702D01*
X127405Y160661D01*
X127430Y160635D01*
X127441Y160625D01*
X127527Y160559D01*
X127619Y160508D01*
X127716Y160472D01*
X127808Y160452D01*
X127890Y160436D01*
X127925Y160431D01*
X127956D01*
X127981Y160426D01*
X128017D01*
X128155Y160436D01*
X128272Y160457D01*
X128374Y160487D01*
X128461Y160523D01*
X128527Y160564D01*
X128578Y160595D01*
X128609Y160615D01*
X128614Y160625D01*
X128619D01*
X128660Y160661D01*
X128690Y160702D01*
X128746Y160783D01*
X128782Y160865D01*
X128813Y160936D01*
X128828Y161003D01*
X128833Y161054D01*
X128838Y161074D01*
Y161089D01*
Y161094D01*
Y161100D01*
X128833Y161171D01*
X128823Y161237D01*
X128802Y161298D01*
X128782Y161349D01*
X128767Y161395D01*
X128746Y161431D01*
X128736Y161451D01*
X128731Y161462D01*
X128685Y161523D01*
X128639Y161574D01*
X128583Y161620D01*
X128537Y161655D01*
X128491Y161686D01*
X128456Y161706D01*
X128430Y161722D01*
X128420Y161727D01*
X128343Y161757D01*
X128267Y161778D01*
X128196Y161798D01*
X128129Y161808D01*
X128073Y161813D01*
X128027Y161819D01*
D02*
G37*
G36*
X122047Y191537D02*
X120879D01*
Y190426D01*
X120884Y190288D01*
X120905Y190171D01*
X120930Y190069D01*
X120961Y189992D01*
X120992Y189926D01*
X121017Y189885D01*
X121037Y189859D01*
X121043Y189849D01*
X121109Y189788D01*
X121175Y189742D01*
X121247Y189712D01*
X121308Y189686D01*
X121369Y189676D01*
X121415Y189671D01*
X121445Y189666D01*
X121456D01*
X121517Y189671D01*
X121578Y189681D01*
X121629Y189696D01*
X121675Y189712D01*
X121716Y189732D01*
X121746Y189747D01*
X121767Y189758D01*
X121772Y189763D01*
X121823Y189798D01*
X121869Y189844D01*
X121904Y189890D01*
X121935Y189936D01*
X121955Y189977D01*
X121971Y190007D01*
X121981Y190028D01*
X121986Y190038D01*
X122006Y190109D01*
X122022Y190191D01*
X122032Y190273D01*
X122037Y190354D01*
X122042Y190426D01*
X122047Y190487D01*
Y190507D01*
Y190523D01*
Y190533D01*
Y190538D01*
Y191537D01*
D02*
G37*
G36*
X122491Y168990D02*
X122374Y168975D01*
X122266Y168944D01*
X122175Y168909D01*
X122103Y168868D01*
X122042Y168832D01*
X121996Y168797D01*
X121971Y168776D01*
X121960Y168766D01*
X121894Y168684D01*
X121843Y168603D01*
X121807Y168516D01*
X121782Y168434D01*
X121767Y168368D01*
X121762Y168312D01*
X121756Y168292D01*
Y168276D01*
Y168266D01*
Y168261D01*
X121762Y168200D01*
X121767Y168144D01*
X121797Y168037D01*
X121838Y167945D01*
X121884Y167868D01*
X121930Y167807D01*
X121971Y167761D01*
X122001Y167736D01*
X122006Y167726D01*
X122011D01*
X122078Y167680D01*
X122154Y167639D01*
X122231Y167613D01*
X122312Y167588D01*
X122379Y167572D01*
X122440Y167562D01*
X122460D01*
X122476Y167557D01*
X122491D01*
Y168990D01*
D02*
G37*
G36*
X127283Y181127D02*
X126023D01*
Y180230D01*
Y180117D01*
X126028Y180026D01*
X126033Y179949D01*
X126038Y179888D01*
X126048Y179847D01*
X126054Y179816D01*
X126059Y179796D01*
Y179791D01*
X126084Y179725D01*
X126115Y179669D01*
X126145Y179618D01*
X126181Y179572D01*
X126217Y179541D01*
X126242Y179516D01*
X126263Y179500D01*
X126268Y179495D01*
X126329Y179460D01*
X126390Y179429D01*
X126456Y179409D01*
X126513Y179398D01*
X126564Y179388D01*
X126609Y179383D01*
X126645D01*
X126752Y179393D01*
X126844Y179414D01*
X126926Y179444D01*
X126992Y179480D01*
X127043Y179516D01*
X127084Y179546D01*
X127104Y179567D01*
X127114Y179577D01*
X127145Y179613D01*
X127170Y179658D01*
X127211Y179755D01*
X127242Y179862D01*
X127262Y179970D01*
X127272Y180066D01*
X127278Y180107D01*
Y180143D01*
X127283Y180179D01*
Y180199D01*
Y180214D01*
Y180219D01*
Y181127D01*
D02*
G37*
G36*
X122782Y176431D02*
X122736D01*
X122649Y176426D01*
X122562Y176421D01*
X122486Y176411D01*
X122414Y176395D01*
X122348Y176380D01*
X122287Y176365D01*
X122236Y176345D01*
X122185Y176324D01*
X122144Y176304D01*
X122103Y176283D01*
X122073Y176268D01*
X122047Y176253D01*
X122027Y176237D01*
X122011Y176227D01*
X122006Y176217D01*
X122001D01*
X121960Y176176D01*
X121920Y176130D01*
X121858Y176044D01*
X121818Y175952D01*
X121787Y175865D01*
X121767Y175789D01*
X121762Y175733D01*
X121756Y175707D01*
Y175692D01*
Y175681D01*
Y175676D01*
X121762Y175615D01*
X121767Y175559D01*
X121792Y175457D01*
X121833Y175365D01*
X121879Y175289D01*
X121925Y175228D01*
X121960Y175182D01*
X121991Y175151D01*
X121996Y175141D01*
X122001D01*
X122047Y175100D01*
X122103Y175069D01*
X122215Y175013D01*
X122338Y174973D01*
X122450Y174947D01*
X122557Y174932D01*
X122603Y174927D01*
X122644D01*
X122675Y174922D01*
X122812D01*
X122899Y174932D01*
X122975Y174942D01*
X123052Y174957D01*
X123118Y174973D01*
X123179Y174993D01*
X123235Y175008D01*
X123286Y175029D01*
X123327Y175049D01*
X123368Y175069D01*
X123399Y175090D01*
X123424Y175105D01*
X123445Y175120D01*
X123460Y175131D01*
X123465Y175136D01*
X123470Y175141D01*
X123511Y175182D01*
X123552Y175228D01*
X123613Y175314D01*
X123654Y175406D01*
X123684Y175488D01*
X123699Y175564D01*
X123710Y175620D01*
X123715Y175646D01*
Y175661D01*
Y175671D01*
Y175676D01*
X123710Y175738D01*
X123705Y175794D01*
X123679Y175901D01*
X123638Y175993D01*
X123592Y176069D01*
X123552Y176130D01*
X123511Y176176D01*
X123485Y176207D01*
X123475Y176212D01*
Y176217D01*
X123424Y176253D01*
X123373Y176288D01*
X123256Y176339D01*
X123133Y176380D01*
X123011Y176406D01*
X122904Y176421D01*
X122858Y176426D01*
X122817D01*
X122782Y176431D01*
D02*
G37*
G36*
X128476Y185452D02*
X128445D01*
X128405Y185447D01*
X128364Y185442D01*
X128333Y185432D01*
X128303Y185421D01*
X128277Y185411D01*
X128257Y185406D01*
X128246Y185396D01*
X128241D01*
X128180Y185345D01*
X128139Y185284D01*
X128124Y185263D01*
X128114Y185243D01*
X128104Y185228D01*
Y185222D01*
X128083Y185171D01*
X128068Y185115D01*
X128053Y185054D01*
X128042Y184993D01*
X128032Y184937D01*
X128022Y184886D01*
X128017Y184855D01*
Y184850D01*
Y184845D01*
X128002Y184758D01*
X127991Y184677D01*
X127976Y184605D01*
X127961Y184534D01*
X127946Y184468D01*
X127930Y184412D01*
X127920Y184355D01*
X127905Y184310D01*
X127895Y184269D01*
X127884Y184233D01*
X127874Y184203D01*
X127864Y184177D01*
X127859Y184157D01*
X127854Y184141D01*
X127849Y184136D01*
Y184131D01*
X128012Y184136D01*
X128114Y184141D01*
X128201Y184146D01*
X128272Y184157D01*
X128333Y184172D01*
X128379Y184187D01*
X128415Y184197D01*
X128435Y184203D01*
X128440Y184208D01*
X128507Y184248D01*
X128568Y184289D01*
X128619Y184340D01*
X128660Y184386D01*
X128695Y184427D01*
X128721Y184463D01*
X128736Y184483D01*
X128741Y184493D01*
X128777Y184570D01*
X128802Y184646D01*
X128823Y184718D01*
X128833Y184789D01*
X128843Y184845D01*
X128848Y184896D01*
Y184927D01*
Y184932D01*
Y184937D01*
X128843Y185029D01*
X128833Y185105D01*
X128813Y185171D01*
X128792Y185228D01*
X128772Y185268D01*
X128751Y185299D01*
X128741Y185319D01*
X128736Y185325D01*
X128690Y185365D01*
X128639Y185396D01*
X128593Y185421D01*
X128547Y185437D01*
X128507Y185447D01*
X128476Y185452D01*
D02*
G37*
G36*
X122491Y184346D02*
X122374Y184331D01*
X122266Y184300D01*
X122175Y184265D01*
X122103Y184224D01*
X122042Y184188D01*
X121996Y184153D01*
X121971Y184132D01*
X121960Y184122D01*
X121894Y184040D01*
X121843Y183959D01*
X121807Y183872D01*
X121782Y183791D01*
X121767Y183724D01*
X121762Y183668D01*
X121756Y183648D01*
Y183632D01*
Y183622D01*
Y183617D01*
X121762Y183556D01*
X121767Y183500D01*
X121797Y183393D01*
X121838Y183301D01*
X121884Y183224D01*
X121930Y183163D01*
X121971Y183117D01*
X122001Y183092D01*
X122006Y183082D01*
X122011D01*
X122078Y183036D01*
X122154Y182995D01*
X122231Y182969D01*
X122312Y182944D01*
X122379Y182929D01*
X122440Y182918D01*
X122460D01*
X122476Y182913D01*
X122491D01*
Y184346D01*
D02*
G37*
G36*
X127609Y190659D02*
X127492Y190644D01*
X127385Y190613D01*
X127293Y190577D01*
X127221Y190537D01*
X127160Y190501D01*
X127114Y190465D01*
X127089Y190445D01*
X127079Y190435D01*
X127012Y190353D01*
X126961Y190271D01*
X126926Y190185D01*
X126900Y190103D01*
X126885Y190037D01*
X126880Y189981D01*
X126875Y189960D01*
Y189945D01*
Y189935D01*
Y189930D01*
X126880Y189869D01*
X126885Y189813D01*
X126915Y189705D01*
X126956Y189614D01*
X127002Y189537D01*
X127048Y189476D01*
X127089Y189430D01*
X127119Y189404D01*
X127125Y189394D01*
X127130D01*
X127196Y189348D01*
X127272Y189308D01*
X127349Y189282D01*
X127430Y189257D01*
X127497Y189241D01*
X127558Y189231D01*
X127578D01*
X127594Y189226D01*
X127609D01*
Y190659D01*
D02*
G37*
G36*
X128476Y178047D02*
X128445D01*
X128405Y178042D01*
X128364Y178037D01*
X128333Y178026D01*
X128303Y178016D01*
X128277Y178006D01*
X128257Y178001D01*
X128246Y177991D01*
X128241D01*
X128180Y177940D01*
X128139Y177878D01*
X128124Y177858D01*
X128114Y177838D01*
X128104Y177822D01*
Y177817D01*
X128083Y177766D01*
X128068Y177710D01*
X128053Y177649D01*
X128042Y177588D01*
X128032Y177532D01*
X128022Y177481D01*
X128017Y177450D01*
Y177445D01*
Y177440D01*
X128002Y177353D01*
X127991Y177272D01*
X127976Y177200D01*
X127961Y177129D01*
X127946Y177062D01*
X127930Y177006D01*
X127920Y176950D01*
X127905Y176904D01*
X127895Y176864D01*
X127884Y176828D01*
X127874Y176797D01*
X127864Y176772D01*
X127859Y176751D01*
X127854Y176736D01*
X127849Y176731D01*
Y176726D01*
X128012Y176731D01*
X128114Y176736D01*
X128201Y176741D01*
X128272Y176751D01*
X128333Y176767D01*
X128379Y176782D01*
X128415Y176792D01*
X128435Y176797D01*
X128440Y176802D01*
X128507Y176843D01*
X128568Y176884D01*
X128619Y176935D01*
X128660Y176981D01*
X128695Y177022D01*
X128721Y177057D01*
X128736Y177078D01*
X128741Y177088D01*
X128777Y177164D01*
X128802Y177241D01*
X128823Y177312D01*
X128833Y177384D01*
X128843Y177440D01*
X128848Y177491D01*
Y177522D01*
Y177527D01*
Y177532D01*
X128843Y177623D01*
X128833Y177700D01*
X128813Y177766D01*
X128792Y177822D01*
X128772Y177863D01*
X128751Y177894D01*
X128741Y177914D01*
X128736Y177919D01*
X128690Y177960D01*
X128639Y177991D01*
X128593Y178016D01*
X128547Y178032D01*
X128507Y178042D01*
X128476Y178047D01*
D02*
G37*
%LPD*%
D16*
X118110Y196850D02*
X157480D01*
X118110Y157480D02*
Y196850D01*
X157480Y157480D02*
Y196850D01*
X118110Y157480D02*
X157480D01*
D25*
X147441Y177165D02*
D03*
X151969Y192520D02*
D03*
X135433Y188189D02*
D03*
X154724Y167559D02*
D03*
D26*
X143307Y162520D02*
D03*
Y172520D02*
D03*
Y182520D02*
D03*
Y192520D02*
D03*
M02*
