G04 Layer_Physical_Order=1*
G04 Layer_Color=25308*
%FSLAX25Y25*%
%MOIN*%
G70*
G01*
G75*
%ADD10C,0.00787*%
%ADD11R,0.02441X0.02598*%
%ADD12R,0.02598X0.02441*%
%ADD13R,0.02677X0.02520*%
%ADD14R,0.07874X0.07874*%
%ADD15C,0.01000*%
%ADD16C,0.00394*%
%ADD17C,0.02165*%
G36*
X156677Y166570D02*
Y158283D01*
X145970D01*
X145951Y158307D01*
X145789Y158783D01*
X147243Y160237D01*
X147243Y160237D01*
X147484Y160598D01*
X147569Y161024D01*
X147569Y161024D01*
Y162913D01*
X148268D01*
Y163691D01*
X149370D01*
Y162913D01*
X152992D01*
Y166240D01*
X153409Y166389D01*
X153492Y166392D01*
X153518Y166353D01*
X154072Y165983D01*
X154724Y165853D01*
X155377Y165983D01*
X155931Y166353D01*
X156177Y166722D01*
X156677Y166570D01*
D02*
G37*
G36*
X137676Y158783D02*
X137514Y158307D01*
X137494Y158283D01*
X133299D01*
X132874Y158465D01*
Y161880D01*
X134579D01*
X137676Y158783D01*
D02*
G37*
G36*
X156677Y180961D02*
X154988D01*
Y178740D01*
X153988D01*
Y180961D01*
X152189D01*
Y180551D01*
X151647D01*
X151495Y181051D01*
X151574Y181104D01*
X152755Y182285D01*
X152755Y182285D01*
X152899Y182501D01*
X152996Y182645D01*
X153080Y183071D01*
Y184173D01*
X153779D01*
Y187638D01*
Y191417D01*
X153775D01*
X153582Y191778D01*
X153555Y191917D01*
X153674Y192520D01*
X153545Y193173D01*
X153175Y193726D01*
X152621Y194096D01*
X151969Y194226D01*
X151316Y194096D01*
X150762Y193726D01*
X150392Y193173D01*
X150262Y192520D01*
X150382Y191917D01*
X150355Y191778D01*
X150162Y191417D01*
X150157D01*
Y187638D01*
Y184173D01*
X150857D01*
Y183531D01*
X150327Y183002D01*
X149606D01*
X149606Y183002D01*
X149181Y182917D01*
X148820Y182676D01*
X148820Y182676D01*
X146783Y180640D01*
X144882D01*
X144456Y180555D01*
X144449Y180550D01*
X143918Y180532D01*
X143755Y180642D01*
X143457Y180840D01*
X143413Y180849D01*
Y179528D01*
X142413D01*
Y180966D01*
X142057Y181187D01*
Y181823D01*
X142587Y182353D01*
X143465D01*
X143465Y182353D01*
X143890Y182437D01*
X144251Y182678D01*
X145746Y184173D01*
X147874D01*
Y187228D01*
X148284D01*
Y189028D01*
X146063D01*
Y189528D01*
X145563D01*
Y191827D01*
X143842D01*
Y191827D01*
X143559Y191827D01*
Y191827D01*
X141839D01*
Y189528D01*
X141339D01*
Y189028D01*
X139118D01*
Y187228D01*
X139528D01*
Y185825D01*
X137009Y183306D01*
X136768Y182945D01*
X136683Y182520D01*
X136683Y182520D01*
Y178347D01*
X136683Y178347D01*
X136768Y177921D01*
X137009Y177560D01*
X137796Y176773D01*
X137796Y176773D01*
X138013Y176628D01*
X138157Y176532D01*
X138583Y176447D01*
X139604D01*
X139836Y176128D01*
X139904Y175947D01*
X139833Y175591D01*
Y169055D01*
X139833Y169055D01*
X139918Y168630D01*
X139921Y168624D01*
Y167102D01*
X139512D01*
Y165303D01*
X143953D01*
Y166643D01*
X144453Y166892D01*
X144646Y166747D01*
Y166378D01*
Y162913D01*
X145345D01*
Y161484D01*
X144421Y160561D01*
X139043D01*
X135826Y163778D01*
X135465Y164019D01*
X135039Y164104D01*
X135039Y164104D01*
X132874D01*
Y167520D01*
X123819D01*
Y158465D01*
X123394Y158283D01*
X118913D01*
Y196048D01*
X123409D01*
Y191839D01*
X133283D01*
Y196048D01*
X156677D01*
Y180961D01*
D02*
G37*
%LPC*%
G36*
X133283Y190839D02*
X128847D01*
Y186402D01*
X133283D01*
Y186757D01*
X133783Y186909D01*
X133932Y186688D01*
X134620Y186227D01*
X134933Y186165D01*
Y188189D01*
Y190213D01*
X134620Y190151D01*
X133932Y189690D01*
X133783Y189469D01*
X133283Y189621D01*
Y190839D01*
D02*
G37*
G36*
X141232Y164303D02*
X139512D01*
Y162504D01*
X141232D01*
Y164303D01*
D02*
G37*
G36*
X143953D02*
X142232D01*
Y162504D01*
X143953D01*
Y164303D01*
D02*
G37*
G36*
X148284Y191827D02*
X146563D01*
Y190028D01*
X148284D01*
Y191827D01*
D02*
G37*
G36*
X140839Y191827D02*
X139118D01*
Y190028D01*
X140839D01*
Y191827D01*
D02*
G37*
G36*
X135933Y190213D02*
Y188689D01*
X137457D01*
X137395Y189002D01*
X136935Y189690D01*
X136246Y190151D01*
X135933Y190213D01*
D02*
G37*
G36*
X137457Y187689D02*
X135933D01*
Y186165D01*
X136246Y186227D01*
X136935Y186688D01*
X137395Y187376D01*
X137457Y187689D01*
D02*
G37*
G36*
X127847Y190839D02*
X123409D01*
Y186402D01*
X127847D01*
Y190839D01*
D02*
G37*
%LPD*%
D10*
X140945Y179528D02*
D03*
X142913D02*
D03*
X144882D02*
D03*
X140945Y177559D02*
D03*
X142913D02*
D03*
X144882D02*
D03*
X140945Y175591D02*
D03*
X142913D02*
D03*
X144882D02*
D03*
D11*
X151969Y189528D02*
D03*
Y186063D02*
D03*
X146063Y186063D02*
D03*
Y189528D02*
D03*
X141339Y186063D02*
D03*
Y189528D02*
D03*
X151181Y168268D02*
D03*
Y164803D02*
D03*
X146457Y164803D02*
D03*
Y168268D02*
D03*
X141732Y164803D02*
D03*
Y168268D02*
D03*
D12*
X154488Y178740D02*
D03*
X151024D02*
D03*
D13*
X154488Y174016D02*
D03*
X151024D02*
D03*
D14*
X128347Y162992D02*
D03*
Y191339D02*
D03*
D15*
X146850Y177559D02*
X147244Y177165D01*
X147244Y179528D02*
X149606Y181890D01*
X144882Y179528D02*
X147244D01*
X144882Y177559D02*
X146850D01*
X149606Y181890D02*
X150787D01*
X151969Y189528D02*
Y192520D01*
X154488Y167559D02*
Y174016D01*
X151024D02*
Y178740D01*
X146457Y174016D02*
X151024D01*
X144882Y175591D02*
X146457Y174016D01*
X151969Y183071D02*
Y186063D01*
X150787Y181890D02*
X151969Y183071D01*
X140945Y179528D02*
Y182283D01*
X142126Y183465D01*
X143465D01*
X146063Y186063D01*
X142913Y177559D02*
Y179528D01*
X147795Y171653D02*
X151181Y168268D01*
X145669Y171653D02*
X147795D01*
X142913Y174409D02*
X145669Y171653D01*
X142913Y174409D02*
Y175591D01*
X140945Y169055D02*
Y175591D01*
Y169055D02*
X141732Y168268D01*
X146457D01*
X151181Y164803D02*
X151181Y164803D01*
X146457Y164803D02*
X151181D01*
X146457Y161024D02*
Y164803D01*
X144882Y159449D02*
X146457Y161024D01*
X138583Y159449D02*
X144882D01*
X135039Y162992D02*
X138583Y159449D01*
X128347Y162992D02*
X135039D01*
X138583Y177559D02*
X140945D01*
X137795Y178347D02*
X138583Y177559D01*
X137795Y178347D02*
Y182520D01*
X141339Y186063D01*
D16*
X118110Y196850D02*
X157480D01*
X118110Y157480D02*
Y196850D01*
X157480Y157480D02*
Y196850D01*
X118110Y157480D02*
X157480D01*
D17*
X147441Y177165D02*
D03*
X151969Y192520D02*
D03*
X135433Y188189D02*
D03*
X154724Y167559D02*
D03*
M02*
