G04 Layer_Color=13813960*
%FSLAX25Y25*%
%MOIN*%
G70*
G01*
G75*
%ADD16C,0.00394*%
G36*
X134213Y176772D02*
X133055D01*
X132892Y176782D01*
X132744Y176802D01*
X132612Y176833D01*
X132550Y176848D01*
X132499Y176869D01*
X132448Y176884D01*
X132407Y176899D01*
X132367Y176915D01*
X132336Y176930D01*
X132311Y176945D01*
X132295Y176950D01*
X132285Y176960D01*
X132280D01*
X132163Y177037D01*
X132066Y177129D01*
X131979Y177220D01*
X131908Y177307D01*
X131852Y177389D01*
X131831Y177425D01*
X131811Y177455D01*
X131801Y177480D01*
X131790Y177501D01*
X131780Y177511D01*
Y177516D01*
X131724Y177664D01*
X131678Y177812D01*
X131648Y177965D01*
X131627Y178108D01*
X131622Y178174D01*
X131617Y178230D01*
X131612Y178286D01*
X131607Y178332D01*
Y178368D01*
Y178393D01*
Y178414D01*
Y178419D01*
X131612Y178608D01*
X131632Y178776D01*
X131648Y178852D01*
X131658Y178924D01*
X131673Y178990D01*
X131688Y179051D01*
X131709Y179107D01*
X131724Y179158D01*
X131734Y179199D01*
X131750Y179235D01*
X131760Y179260D01*
X131770Y179281D01*
X131775Y179291D01*
Y179296D01*
X131846Y179424D01*
X131923Y179536D01*
X132005Y179628D01*
X132081Y179704D01*
X132152Y179765D01*
X132209Y179806D01*
X132229Y179822D01*
X132244Y179832D01*
X132255Y179842D01*
X132260D01*
X132382Y179903D01*
X132510Y179949D01*
X132637Y179985D01*
X132759Y180005D01*
X132810Y180015D01*
X132861Y180020D01*
X132907Y180025D01*
X132943D01*
X132979Y180031D01*
X134213D01*
Y176772D01*
D02*
G37*
G36*
X139593Y180076D02*
X139741Y180056D01*
X139874Y180020D01*
X139935Y180000D01*
X139991Y179985D01*
X140042Y179964D01*
X140088Y179944D01*
X140129Y179929D01*
X140159Y179908D01*
X140185Y179898D01*
X140205Y179888D01*
X140216Y179877D01*
X140221D01*
X140343Y179791D01*
X140450Y179699D01*
X140542Y179602D01*
X140619Y179505D01*
X140680Y179424D01*
X140705Y179383D01*
X140726Y179352D01*
X140741Y179327D01*
X140751Y179306D01*
X140761Y179296D01*
Y179291D01*
X140823Y179143D01*
X140868Y178995D01*
X140904Y178847D01*
X140925Y178710D01*
X140935Y178648D01*
X140940Y178592D01*
X140945Y178541D01*
Y178500D01*
X140950Y178465D01*
Y178434D01*
Y178419D01*
Y178414D01*
X140940Y178220D01*
X140919Y178047D01*
X140909Y177965D01*
X140894Y177889D01*
X140874Y177817D01*
X140858Y177756D01*
X140843Y177695D01*
X140823Y177644D01*
X140807Y177603D01*
X140797Y177562D01*
X140782Y177537D01*
X140777Y177511D01*
X140766Y177501D01*
Y177496D01*
X140690Y177363D01*
X140603Y177246D01*
X140511Y177149D01*
X140425Y177067D01*
X140343Y177001D01*
X140307Y176976D01*
X140277Y176955D01*
X140256Y176940D01*
X140236Y176930D01*
X140226Y176920D01*
X140221D01*
X140083Y176853D01*
X139935Y176802D01*
X139792Y176772D01*
X139660Y176746D01*
X139599Y176736D01*
X139542Y176731D01*
X139491Y176726D01*
X139445D01*
X139410Y176721D01*
X139364D01*
X139231Y176726D01*
X139109Y176741D01*
X138992Y176761D01*
X138884Y176782D01*
X138798Y176802D01*
X138762Y176812D01*
X138732Y176823D01*
X138706Y176833D01*
X138686Y176838D01*
X138675Y176843D01*
X138670D01*
X138548Y176894D01*
X138431Y176950D01*
X138334Y177006D01*
X138242Y177062D01*
X138171Y177113D01*
X138119Y177154D01*
X138099Y177170D01*
X138084Y177180D01*
X138079Y177190D01*
X138074D01*
Y178434D01*
X139400D01*
Y178042D01*
X138492D01*
Y177374D01*
X138553Y177328D01*
X138619Y177292D01*
X138691Y177256D01*
X138752Y177225D01*
X138808Y177200D01*
X138854Y177180D01*
X138884Y177170D01*
X138890Y177164D01*
X138895D01*
X138987Y177139D01*
X139073Y177119D01*
X139150Y177103D01*
X139221Y177093D01*
X139282Y177088D01*
X139328Y177083D01*
X139369D01*
X139502Y177088D01*
X139619Y177108D01*
X139721Y177134D01*
X139813Y177164D01*
X139884Y177190D01*
X139915Y177205D01*
X139940Y177215D01*
X139961Y177225D01*
X139976Y177236D01*
X139981Y177241D01*
X139986D01*
X140073Y177307D01*
X140149Y177378D01*
X140216Y177455D01*
X140272Y177526D01*
X140313Y177593D01*
X140343Y177644D01*
X140353Y177664D01*
X140364Y177679D01*
X140369Y177690D01*
Y177695D01*
X140415Y177812D01*
X140445Y177929D01*
X140471Y178052D01*
X140486Y178164D01*
X140496Y178261D01*
Y178302D01*
X140501Y178337D01*
Y178368D01*
Y178388D01*
Y178404D01*
Y178409D01*
X140496Y178551D01*
X140481Y178684D01*
X140460Y178801D01*
X140440Y178898D01*
X140430Y178944D01*
X140420Y178985D01*
X140409Y179016D01*
X140399Y179046D01*
X140389Y179067D01*
X140384Y179082D01*
X140379Y179092D01*
Y179097D01*
X140328Y179204D01*
X140267Y179291D01*
X140205Y179373D01*
X140149Y179434D01*
X140093Y179485D01*
X140052Y179521D01*
X140022Y179546D01*
X140017Y179551D01*
X140012D01*
X139920Y179607D01*
X139823Y179648D01*
X139726Y179674D01*
X139634Y179694D01*
X139558Y179704D01*
X139522Y179709D01*
X139497Y179714D01*
X139440D01*
X139318Y179709D01*
X139206Y179689D01*
X139109Y179658D01*
X139027Y179628D01*
X138961Y179597D01*
X138910Y179567D01*
X138879Y179546D01*
X138869Y179541D01*
X138788Y179470D01*
X138721Y179388D01*
X138665Y179301D01*
X138624Y179220D01*
X138589Y179148D01*
X138563Y179087D01*
X138558Y179062D01*
X138553Y179046D01*
X138548Y179036D01*
Y179031D01*
X138125Y179133D01*
X138150Y179220D01*
X138181Y179296D01*
X138216Y179373D01*
X138252Y179439D01*
X138288Y179505D01*
X138329Y179561D01*
X138364Y179612D01*
X138405Y179663D01*
X138441Y179704D01*
X138477Y179740D01*
X138507Y179771D01*
X138533Y179796D01*
X138558Y179816D01*
X138573Y179832D01*
X138584Y179837D01*
X138589Y179842D01*
X138655Y179883D01*
X138721Y179923D01*
X138859Y179985D01*
X139002Y180025D01*
X139134Y180056D01*
X139196Y180066D01*
X139257Y180076D01*
X139308Y180081D01*
X139349D01*
X139384Y180087D01*
X139435D01*
X139593Y180076D01*
D02*
G37*
G36*
X137426Y176772D02*
X137013D01*
Y179317D01*
X137008D01*
X135365Y176772D01*
X134927D01*
Y180031D01*
X135335D01*
Y177486D01*
X135345D01*
X136982Y180031D01*
X137426D01*
Y176772D01*
D02*
G37*
G36*
X137579Y190313D02*
X137727Y190292D01*
X137865Y190257D01*
X137926Y190236D01*
X137982Y190221D01*
X138033Y190200D01*
X138079Y190180D01*
X138120Y190165D01*
X138155Y190144D01*
X138181Y190134D01*
X138201Y190124D01*
X138211Y190114D01*
X138216D01*
X138344Y190027D01*
X138456Y189930D01*
X138553Y189833D01*
X138630Y189736D01*
X138696Y189650D01*
X138721Y189614D01*
X138742Y189583D01*
X138757Y189553D01*
X138767Y189532D01*
X138777Y189522D01*
Y189517D01*
X138844Y189369D01*
X138895Y189216D01*
X138930Y189068D01*
X138956Y188931D01*
X138966Y188869D01*
X138971Y188808D01*
X138976Y188757D01*
Y188716D01*
X138981Y188681D01*
Y188650D01*
Y188635D01*
Y188630D01*
X138971Y188451D01*
X138951Y188283D01*
X138915Y188135D01*
X138900Y188069D01*
X138880Y188007D01*
X138859Y187951D01*
X138844Y187900D01*
X138823Y187855D01*
X138808Y187819D01*
X138798Y187793D01*
X138788Y187768D01*
X138777Y187758D01*
Y187752D01*
X138696Y187620D01*
X138604Y187497D01*
X138512Y187396D01*
X138420Y187314D01*
X138344Y187248D01*
X138308Y187222D01*
X138278Y187202D01*
X138257Y187181D01*
X138237Y187171D01*
X138227Y187166D01*
X138222Y187161D01*
X138084Y187095D01*
X137946Y187044D01*
X137809Y187008D01*
X137686Y186982D01*
X137630Y186972D01*
X137579Y186967D01*
X137533Y186962D01*
X137492D01*
X137462Y186957D01*
X137416D01*
X137253Y186967D01*
X137105Y186987D01*
X136967Y187023D01*
X136906Y187039D01*
X136850Y187059D01*
X136799Y187079D01*
X136753Y187095D01*
X136717Y187115D01*
X136681Y187130D01*
X136656Y187141D01*
X136635Y187151D01*
X136625Y187161D01*
X136620D01*
X136493Y187242D01*
X136381Y187339D01*
X136289Y187436D01*
X136207Y187533D01*
X136146Y187615D01*
X136120Y187651D01*
X136100Y187686D01*
X136085Y187712D01*
X136074Y187732D01*
X136064Y187742D01*
Y187747D01*
X135998Y187895D01*
X135947Y188048D01*
X135911Y188196D01*
X135886Y188334D01*
X135876Y188395D01*
X135871Y188456D01*
X135865Y188507D01*
Y188548D01*
X135860Y188584D01*
Y188614D01*
Y188630D01*
Y188635D01*
X135871Y188818D01*
X135891Y188992D01*
X135906Y189068D01*
X135927Y189140D01*
X135942Y189211D01*
X135962Y189272D01*
X135983Y189328D01*
X135998Y189379D01*
X136018Y189425D01*
X136034Y189461D01*
X136044Y189487D01*
X136054Y189512D01*
X136064Y189522D01*
Y189527D01*
X136146Y189665D01*
X136233Y189782D01*
X136329Y189879D01*
X136416Y189966D01*
X136498Y190027D01*
X136533Y190053D01*
X136559Y190078D01*
X136584Y190093D01*
X136605Y190104D01*
X136615Y190114D01*
X136620D01*
X136753Y190185D01*
X136890Y190236D01*
X137028Y190272D01*
X137151Y190297D01*
X137207Y190308D01*
X137258Y190313D01*
X137304Y190318D01*
X137339D01*
X137370Y190323D01*
X137416D01*
X137579Y190313D01*
D02*
G37*
G36*
X135350Y187768D02*
X135340Y187630D01*
X135320Y187508D01*
X135284Y187406D01*
X135243Y187319D01*
X135207Y187253D01*
X135172Y187207D01*
X135151Y187176D01*
X135141Y187166D01*
X135055Y187095D01*
X134958Y187044D01*
X134851Y187008D01*
X134754Y186982D01*
X134662Y186967D01*
X134621Y186962D01*
X134585D01*
X134560Y186957D01*
X134519D01*
X134437Y186962D01*
X134361Y186972D01*
X134290Y186987D01*
X134228Y187003D01*
X134182Y187018D01*
X134142Y187033D01*
X134121Y187044D01*
X134111Y187049D01*
X134045Y187090D01*
X133984Y187135D01*
X133932Y187181D01*
X133887Y187227D01*
X133851Y187268D01*
X133820Y187304D01*
X133805Y187324D01*
X133800Y187334D01*
Y187008D01*
X133428D01*
Y189364D01*
X133825D01*
Y188048D01*
X133830Y187951D01*
X133836Y187870D01*
X133846Y187793D01*
X133856Y187737D01*
X133871Y187686D01*
X133881Y187656D01*
X133887Y187630D01*
X133892Y187625D01*
X133922Y187574D01*
X133958Y187523D01*
X133994Y187482D01*
X134029Y187452D01*
X134060Y187421D01*
X134086Y187401D01*
X134106Y187390D01*
X134111Y187385D01*
X134167Y187355D01*
X134228Y187334D01*
X134284Y187319D01*
X134335Y187309D01*
X134381Y187304D01*
X134422Y187299D01*
X134453D01*
X134539Y187304D01*
X134611Y187319D01*
X134672Y187339D01*
X134728Y187365D01*
X134769Y187390D01*
X134794Y187411D01*
X134815Y187426D01*
X134820Y187431D01*
X134861Y187487D01*
X134891Y187548D01*
X134917Y187615D01*
X134932Y187676D01*
X134942Y187737D01*
X134947Y187783D01*
Y187814D01*
Y187819D01*
Y187824D01*
Y189364D01*
X135350D01*
Y187768D01*
D02*
G37*
G36*
X132744Y189910D02*
Y189364D01*
X133081D01*
Y189058D01*
X132744D01*
Y187666D01*
Y187559D01*
X132734Y187467D01*
X132729Y187390D01*
X132719Y187329D01*
X132709Y187288D01*
X132703Y187258D01*
X132693Y187237D01*
Y187232D01*
X132668Y187186D01*
X132642Y187151D01*
X132612Y187115D01*
X132586Y187090D01*
X132561Y187069D01*
X132540Y187054D01*
X132525Y187049D01*
X132520Y187044D01*
X132474Y187023D01*
X132418Y187008D01*
X132362Y186998D01*
X132311Y186993D01*
X132260Y186987D01*
X132224Y186982D01*
X132188D01*
X132061Y186987D01*
X132005Y186993D01*
X131954Y187003D01*
X131908Y187008D01*
X131877Y187013D01*
X131852Y187018D01*
X131847D01*
X131898Y187355D01*
X131949Y187345D01*
X131994Y187339D01*
X132030Y187329D01*
X132061D01*
X132086Y187324D01*
X132122D01*
X132178Y187329D01*
X132214Y187334D01*
X132239Y187339D01*
X132249Y187345D01*
X132280Y187365D01*
X132300Y187396D01*
X132316Y187416D01*
X132321Y187426D01*
X132331Y187452D01*
X132336Y187487D01*
X132341Y187548D01*
X132346Y187579D01*
Y187605D01*
Y187620D01*
Y187625D01*
Y189058D01*
X131898D01*
Y189364D01*
X132346D01*
Y190195D01*
X132744Y189910D01*
D02*
G37*
G36*
X139429Y170239D02*
X139536Y170229D01*
X139633Y170208D01*
X139720Y170188D01*
X139791Y170168D01*
X139842Y170147D01*
X139863Y170142D01*
X139878Y170137D01*
X139883Y170132D01*
X139888D01*
X139980Y170086D01*
X140057Y170035D01*
X140128Y169984D01*
X140184Y169933D01*
X140230Y169892D01*
X140266Y169851D01*
X140286Y169831D01*
X140291Y169821D01*
X140337Y169744D01*
X140373Y169668D01*
X140398Y169591D01*
X140413Y169525D01*
X140424Y169464D01*
X140434Y169418D01*
Y169387D01*
Y169382D01*
Y169377D01*
X140429Y169296D01*
X140424Y169224D01*
X140413Y169158D01*
X140398Y169102D01*
X140383Y169051D01*
X140373Y169020D01*
X140368Y168995D01*
X140363Y168990D01*
X140327Y168928D01*
X140291Y168872D01*
X140245Y168826D01*
X140199Y168780D01*
X140158Y168745D01*
X140128Y168719D01*
X140108Y168699D01*
X140097Y168694D01*
X140021Y168648D01*
X139934Y168607D01*
X139842Y168566D01*
X139756Y168536D01*
X139679Y168510D01*
X139648Y168500D01*
X139618Y168490D01*
X139592Y168485D01*
X139577Y168480D01*
X139567Y168474D01*
X139562D01*
X139531Y168464D01*
X139490Y168454D01*
X139404Y168439D01*
X139363Y168429D01*
X139332Y168418D01*
X139312Y168413D01*
X139302D01*
X139190Y168388D01*
X139093Y168362D01*
X139011Y168337D01*
X138945Y168316D01*
X138889Y168301D01*
X138853Y168291D01*
X138827Y168286D01*
X138822Y168281D01*
X138751Y168255D01*
X138690Y168225D01*
X138639Y168194D01*
X138598Y168163D01*
X138567Y168138D01*
X138547Y168117D01*
X138532Y168102D01*
X138526Y168097D01*
X138491Y168051D01*
X138465Y168000D01*
X138450Y167949D01*
X138435Y167898D01*
X138430Y167852D01*
X138425Y167816D01*
Y167791D01*
Y167781D01*
X138430Y167725D01*
X138440Y167669D01*
X138460Y167623D01*
X138476Y167582D01*
X138496Y167546D01*
X138516Y167521D01*
X138526Y167505D01*
X138532Y167500D01*
X138572Y167459D01*
X138623Y167419D01*
X138669Y167383D01*
X138715Y167358D01*
X138756Y167337D01*
X138787Y167322D01*
X138807Y167312D01*
X138817Y167306D01*
X138883Y167286D01*
X138955Y167271D01*
X139021Y167255D01*
X139082Y167250D01*
X139133Y167245D01*
X139174Y167240D01*
X139210D01*
X139353Y167250D01*
X139480Y167271D01*
X139592Y167301D01*
X139684Y167342D01*
X139756Y167378D01*
X139786Y167393D01*
X139812Y167409D01*
X139827Y167419D01*
X139842Y167429D01*
X139847Y167439D01*
X139852D01*
X139929Y167526D01*
X139990Y167618D01*
X140041Y167720D01*
X140077Y167816D01*
X140102Y167903D01*
X140113Y167944D01*
X140118Y167975D01*
X140123Y168005D01*
Y168026D01*
X140128Y168036D01*
Y168041D01*
X140551Y167944D01*
X140536Y167847D01*
X140510Y167760D01*
X140485Y167674D01*
X140454Y167597D01*
X140424Y167526D01*
X140388Y167459D01*
X140347Y167403D01*
X140312Y167347D01*
X140276Y167301D01*
X140245Y167261D01*
X140209Y167225D01*
X140184Y167199D01*
X140158Y167179D01*
X140143Y167164D01*
X140133Y167154D01*
X140128Y167148D01*
X140062Y167103D01*
X139985Y167062D01*
X139909Y167021D01*
X139832Y166990D01*
X139679Y166944D01*
X139531Y166914D01*
X139460Y166899D01*
X139399Y166893D01*
X139342Y166888D01*
X139292Y166883D01*
X139251Y166878D01*
X139195D01*
X139072Y166883D01*
X138955Y166899D01*
X138853Y166919D01*
X138761Y166939D01*
X138690Y166960D01*
X138659Y166970D01*
X138634Y166980D01*
X138613Y166990D01*
X138598Y166995D01*
X138593Y167000D01*
X138588D01*
X138491Y167051D01*
X138409Y167108D01*
X138333Y167169D01*
X138277Y167220D01*
X138226Y167271D01*
X138190Y167312D01*
X138170Y167337D01*
X138164Y167347D01*
X138113Y167434D01*
X138078Y167521D01*
X138047Y167602D01*
X138032Y167684D01*
X138022Y167750D01*
X138011Y167801D01*
Y167822D01*
Y167837D01*
Y167842D01*
Y167847D01*
X138016Y167944D01*
X138032Y168036D01*
X138047Y168112D01*
X138067Y168179D01*
X138093Y168235D01*
X138108Y168275D01*
X138124Y168296D01*
X138129Y168306D01*
X138180Y168372D01*
X138236Y168434D01*
X138297Y168485D01*
X138358Y168530D01*
X138414Y168566D01*
X138460Y168592D01*
X138491Y168607D01*
X138496Y168612D01*
X138501D01*
X138603Y168658D01*
X138715Y168699D01*
X138832Y168735D01*
X138945Y168770D01*
X139042Y168796D01*
X139082Y168806D01*
X139123Y168816D01*
X139154Y168821D01*
X139174Y168826D01*
X139190Y168831D01*
X139195D01*
X139307Y168857D01*
X139409Y168882D01*
X139490Y168903D01*
X139562Y168923D01*
X139613Y168939D01*
X139654Y168954D01*
X139674Y168959D01*
X139684Y168964D01*
X139745Y168990D01*
X139796Y169015D01*
X139837Y169041D01*
X139873Y169066D01*
X139903Y169086D01*
X139924Y169102D01*
X139934Y169112D01*
X139939Y169117D01*
X139965Y169158D01*
X139985Y169199D01*
X140000Y169239D01*
X140011Y169280D01*
X140016Y169316D01*
X140021Y169341D01*
Y169362D01*
Y169367D01*
X140016Y169423D01*
X140006Y169474D01*
X139990Y169520D01*
X139975Y169556D01*
X139960Y169586D01*
X139944Y169612D01*
X139934Y169627D01*
X139929Y169632D01*
X139893Y169673D01*
X139852Y169709D01*
X139807Y169739D01*
X139766Y169765D01*
X139730Y169785D01*
X139699Y169800D01*
X139679Y169806D01*
X139674Y169811D01*
X139613Y169831D01*
X139547Y169846D01*
X139485Y169857D01*
X139424Y169867D01*
X139378D01*
X139337Y169872D01*
X139302D01*
X139190Y169867D01*
X139087Y169846D01*
X139001Y169826D01*
X138924Y169795D01*
X138868Y169770D01*
X138827Y169744D01*
X138802Y169724D01*
X138792Y169719D01*
X138725Y169652D01*
X138669Y169576D01*
X138628Y169489D01*
X138593Y169408D01*
X138562Y169331D01*
X138547Y169265D01*
X138542Y169245D01*
X138537Y169224D01*
X138532Y169214D01*
Y169209D01*
X138521D01*
X138108Y169306D01*
X138129Y169413D01*
X138154Y169505D01*
X138185Y169591D01*
X138221Y169663D01*
X138251Y169724D01*
X138277Y169770D01*
X138297Y169795D01*
X138302Y169806D01*
X138363Y169882D01*
X138435Y169948D01*
X138506Y170004D01*
X138572Y170050D01*
X138628Y170086D01*
X138680Y170112D01*
X138710Y170127D01*
X138715Y170132D01*
X138720D01*
X138817Y170168D01*
X138919Y170198D01*
X139021Y170219D01*
X139113Y170229D01*
X139190Y170239D01*
X139225D01*
X139256Y170244D01*
X139312D01*
X139429Y170239D01*
D02*
G37*
G36*
X136140Y166929D02*
X135767D01*
Y167225D01*
X135757D01*
X135711Y167164D01*
X135665Y167113D01*
X135614Y167067D01*
X135568Y167031D01*
X135528Y167000D01*
X135497Y166980D01*
X135477Y166970D01*
X135467Y166965D01*
X135395Y166934D01*
X135324Y166914D01*
X135257Y166899D01*
X135191Y166888D01*
X135140Y166883D01*
X135094Y166878D01*
X135058D01*
X134946Y166883D01*
X134844Y166899D01*
X134753Y166924D01*
X134671Y166949D01*
X134605Y166975D01*
X134554Y167000D01*
X134538Y167006D01*
X134523Y167016D01*
X134518Y167021D01*
X134513D01*
X134426Y167082D01*
X134355Y167154D01*
X134288Y167225D01*
X134237Y167291D01*
X134197Y167358D01*
X134166Y167409D01*
X134156Y167429D01*
X134146Y167444D01*
X134141Y167449D01*
Y167454D01*
X134095Y167567D01*
X134059Y167684D01*
X134038Y167801D01*
X134018Y167908D01*
X134008Y168000D01*
Y168041D01*
X134003Y168077D01*
Y168102D01*
Y168128D01*
Y168138D01*
Y168143D01*
X134008Y168270D01*
X134023Y168388D01*
X134044Y168495D01*
X134064Y168587D01*
X134090Y168663D01*
X134100Y168694D01*
X134110Y168719D01*
X134120Y168740D01*
X134125Y168755D01*
X134130Y168760D01*
Y168765D01*
X134181Y168862D01*
X134237Y168949D01*
X134299Y169020D01*
X134355Y169081D01*
X134406Y169127D01*
X134447Y169163D01*
X134477Y169183D01*
X134482Y169188D01*
X134487D01*
X134574Y169239D01*
X134671Y169275D01*
X134758Y169306D01*
X134844Y169321D01*
X134916Y169331D01*
X134977Y169341D01*
X135028D01*
X135104Y169336D01*
X135181Y169326D01*
X135252Y169311D01*
X135319Y169290D01*
X135436Y169239D01*
X135538Y169183D01*
X135579Y169153D01*
X135619Y169122D01*
X135650Y169097D01*
X135676Y169071D01*
X135701Y169051D01*
X135716Y169035D01*
X135722Y169025D01*
X135727Y169020D01*
X135737D01*
Y170188D01*
X136140D01*
Y166929D01*
D02*
G37*
G36*
X149196Y164961D02*
X148752D01*
X147523Y168219D01*
X147982D01*
X148829Y165848D01*
X148854Y165766D01*
X148885Y165680D01*
X148905Y165593D01*
X148926Y165516D01*
X148941Y165450D01*
X148956Y165399D01*
X148961Y165379D01*
Y165364D01*
X148967Y165358D01*
Y165353D01*
X148977D01*
X148997Y165450D01*
X149007Y165501D01*
X149012Y165542D01*
X149023Y165578D01*
X149033Y165603D01*
X149038Y165624D01*
Y165629D01*
X149053Y165685D01*
X149069Y165731D01*
X149084Y165777D01*
X149094Y165812D01*
X149104Y165848D01*
X149115Y165868D01*
X149120Y165884D01*
Y165889D01*
X149941Y168219D01*
X150415D01*
X149196Y164961D01*
D02*
G37*
G36*
X151797Y168214D02*
X151889Y168204D01*
X151971Y168184D01*
X152037Y168168D01*
X152098Y168148D01*
X152144Y168128D01*
X152169Y168117D01*
X152180Y168112D01*
X152256Y168072D01*
X152328Y168026D01*
X152389Y167975D01*
X152440Y167929D01*
X152480Y167883D01*
X152511Y167847D01*
X152532Y167827D01*
X152537Y167817D01*
X152583Y167745D01*
X152623Y167669D01*
X152654Y167592D01*
X152679Y167521D01*
X152700Y167455D01*
X152710Y167409D01*
X152715Y167388D01*
X152720Y167373D01*
Y167368D01*
Y167363D01*
X152312Y167301D01*
X152292Y167398D01*
X152261Y167485D01*
X152231Y167562D01*
X152195Y167623D01*
X152164Y167669D01*
X152134Y167704D01*
X152113Y167730D01*
X152108Y167735D01*
X152042Y167786D01*
X151976Y167827D01*
X151904Y167852D01*
X151838Y167873D01*
X151782Y167883D01*
X151736Y167893D01*
X151695D01*
X151608Y167888D01*
X151527Y167873D01*
X151461Y167847D01*
X151404Y167827D01*
X151358Y167801D01*
X151323Y167776D01*
X151302Y167761D01*
X151297Y167755D01*
X151246Y167699D01*
X151211Y167638D01*
X151185Y167577D01*
X151170Y167516D01*
X151154Y167465D01*
X151149Y167424D01*
Y167393D01*
Y167388D01*
Y167383D01*
X151160Y167291D01*
X151180Y167210D01*
X151206Y167138D01*
X151241Y167082D01*
X151277Y167036D01*
X151302Y167001D01*
X151323Y166980D01*
X151333Y166975D01*
X151409Y166929D01*
X151496Y166893D01*
X151593Y166873D01*
X151680Y166853D01*
X151767Y166842D01*
X151802D01*
X151833Y166837D01*
X151971D01*
X152016Y166516D01*
X151670D01*
X151603Y166511D01*
X151542Y166506D01*
X151486Y166491D01*
X151440Y166480D01*
X151399Y166465D01*
X151374Y166450D01*
X151353Y166445D01*
X151348Y166440D01*
X151297Y166409D01*
X151251Y166373D01*
X151216Y166338D01*
X151185Y166302D01*
X151160Y166271D01*
X151144Y166246D01*
X151134Y166230D01*
X151129Y166225D01*
X151103Y166174D01*
X151083Y166118D01*
X151068Y166062D01*
X151058Y166011D01*
X151052Y165965D01*
X151047Y165930D01*
Y165909D01*
Y165899D01*
X151052Y165828D01*
X151063Y165761D01*
X151073Y165705D01*
X151088Y165654D01*
X151109Y165613D01*
X151119Y165578D01*
X151129Y165557D01*
X151134Y165552D01*
X151170Y165501D01*
X151206Y165455D01*
X151246Y165415D01*
X151282Y165379D01*
X151318Y165353D01*
X151343Y165333D01*
X151364Y165323D01*
X151369Y165318D01*
X151425Y165287D01*
X151486Y165267D01*
X151542Y165251D01*
X151593Y165241D01*
X151639Y165236D01*
X151675Y165231D01*
X151705D01*
X151797Y165236D01*
X151879Y165256D01*
X151950Y165282D01*
X152011Y165313D01*
X152062Y165338D01*
X152098Y165364D01*
X152118Y165384D01*
X152129Y165389D01*
X152185Y165455D01*
X152231Y165532D01*
X152271Y165613D01*
X152302Y165695D01*
X152328Y165761D01*
X152343Y165823D01*
X152353Y165843D01*
Y165858D01*
X152358Y165868D01*
Y165874D01*
X152756Y165812D01*
X152741Y165710D01*
X152715Y165619D01*
X152690Y165537D01*
X152659Y165465D01*
X152628Y165409D01*
X152603Y165364D01*
X152588Y165338D01*
X152583Y165328D01*
X152526Y165256D01*
X152460Y165195D01*
X152399Y165139D01*
X152343Y165098D01*
X152287Y165063D01*
X152246Y165037D01*
X152220Y165022D01*
X152210Y165017D01*
X152123Y164981D01*
X152037Y164955D01*
X151950Y164935D01*
X151874Y164925D01*
X151807Y164915D01*
X151751Y164910D01*
X151705D01*
X151588Y164915D01*
X151486Y164930D01*
X151389Y164950D01*
X151307Y164971D01*
X151236Y164991D01*
X151185Y165012D01*
X151170Y165022D01*
X151154Y165027D01*
X151149Y165032D01*
X151144D01*
X151058Y165083D01*
X150976Y165139D01*
X150910Y165195D01*
X150859Y165251D01*
X150813Y165302D01*
X150782Y165343D01*
X150762Y165369D01*
X150757Y165379D01*
X150711Y165465D01*
X150675Y165557D01*
X150655Y165644D01*
X150634Y165726D01*
X150624Y165797D01*
X150619Y165853D01*
Y165874D01*
Y165889D01*
Y165899D01*
Y165904D01*
X150624Y165981D01*
X150629Y166047D01*
X150645Y166108D01*
X150655Y166164D01*
X150670Y166210D01*
X150685Y166241D01*
X150690Y166266D01*
X150696Y166271D01*
X150726Y166332D01*
X150757Y166389D01*
X150792Y166435D01*
X150828Y166475D01*
X150859Y166506D01*
X150884Y166531D01*
X150905Y166547D01*
X150910Y166552D01*
X150961Y166593D01*
X151017Y166623D01*
X151073Y166649D01*
X151124Y166669D01*
X151165Y166684D01*
X151200Y166695D01*
X151221Y166705D01*
X151231D01*
Y166715D01*
X151149Y166751D01*
X151078Y166791D01*
X151017Y166837D01*
X150966Y166878D01*
X150925Y166919D01*
X150900Y166950D01*
X150879Y166970D01*
X150874Y166980D01*
X150828Y167052D01*
X150797Y167123D01*
X150772Y167189D01*
X150757Y167256D01*
X150747Y167312D01*
X150741Y167352D01*
Y167383D01*
Y167393D01*
X150747Y167480D01*
X150762Y167567D01*
X150777Y167638D01*
X150797Y167704D01*
X150823Y167755D01*
X150838Y167796D01*
X150854Y167817D01*
X150859Y167827D01*
X150905Y167893D01*
X150961Y167954D01*
X151017Y168000D01*
X151073Y168041D01*
X151119Y168077D01*
X151160Y168097D01*
X151185Y168112D01*
X151190Y168117D01*
X151195D01*
X151277Y168153D01*
X151364Y168179D01*
X151450Y168194D01*
X151527Y168209D01*
X151598Y168214D01*
X151649Y168219D01*
X151700D01*
X151797Y168214D01*
D02*
G37*
G36*
X132871Y166929D02*
X132876Y166914D01*
X132886Y166899D01*
X132901Y166848D01*
X132911Y166827D01*
X132922Y166807D01*
X132927Y166791D01*
Y166786D01*
X132962Y166700D01*
X132978Y166664D01*
X132993Y166628D01*
X133003Y166603D01*
X133013Y166582D01*
X133024Y166567D01*
Y166562D01*
X133064Y166485D01*
X133090Y166460D01*
X133110Y166434D01*
X133131Y166414D01*
X133146Y166399D01*
X133156Y166394D01*
X133161Y166388D01*
X133192Y166368D01*
X133228Y166353D01*
X133294Y166332D01*
X133325Y166327D01*
X133350Y166322D01*
X133370D01*
X133437Y166327D01*
X133493Y166343D01*
X133513Y166348D01*
X133534Y166353D01*
X133544Y166358D01*
X133549D01*
X133636Y166021D01*
X133580Y166011D01*
X133523Y166001D01*
X133498Y165996D01*
X133477D01*
X133467Y165991D01*
X133462D01*
X133396Y165981D01*
X133340Y165975D01*
X133299D01*
X133238Y165981D01*
X133182Y165986D01*
X133131Y165996D01*
X133090Y166011D01*
X133054Y166026D01*
X133029Y166037D01*
X133013Y166042D01*
X133008Y166047D01*
X132962Y166077D01*
X132922Y166113D01*
X132881Y166149D01*
X132845Y166190D01*
X132820Y166225D01*
X132799Y166256D01*
X132784Y166276D01*
X132779Y166281D01*
X132738Y166353D01*
X132697Y166424D01*
X132661Y166506D01*
X132626Y166582D01*
X132595Y166649D01*
X132575Y166705D01*
X132565Y166725D01*
X132560Y166740D01*
X132554Y166751D01*
Y166756D01*
X131601Y169285D01*
X132009D01*
X132478Y168000D01*
X132509Y167908D01*
X132539Y167837D01*
X132560Y167776D01*
X132575Y167730D01*
X132585Y167694D01*
X132595Y167669D01*
X132600Y167658D01*
Y167653D01*
X132610Y167618D01*
X132621Y167577D01*
X132641Y167485D01*
X132651Y167439D01*
X132661Y167403D01*
X132667Y167383D01*
Y167373D01*
X132677D01*
X132692Y167429D01*
X132707Y167485D01*
X132718Y167526D01*
X132728Y167567D01*
X132738Y167592D01*
X132743Y167618D01*
X132748Y167628D01*
Y167633D01*
X132764Y167674D01*
X132774Y167720D01*
X132809Y167816D01*
X132825Y167857D01*
X132835Y167893D01*
X132840Y167913D01*
X132845Y167924D01*
X133340Y169285D01*
X133768D01*
X132871Y166929D01*
D02*
G37*
G36*
X137405Y169831D02*
Y169285D01*
X137741D01*
Y168979D01*
X137405D01*
Y167587D01*
Y167480D01*
X137394Y167388D01*
X137389Y167312D01*
X137379Y167250D01*
X137369Y167210D01*
X137364Y167179D01*
X137354Y167159D01*
Y167154D01*
X137328Y167108D01*
X137302Y167072D01*
X137272Y167036D01*
X137246Y167011D01*
X137221Y166990D01*
X137200Y166975D01*
X137185Y166970D01*
X137180Y166965D01*
X137134Y166944D01*
X137078Y166929D01*
X137022Y166919D01*
X136971Y166914D01*
X136920Y166909D01*
X136884Y166904D01*
X136849D01*
X136721Y166909D01*
X136665Y166914D01*
X136614Y166924D01*
X136568Y166929D01*
X136538Y166934D01*
X136512Y166939D01*
X136507D01*
X136558Y167276D01*
X136609Y167266D01*
X136655Y167261D01*
X136690Y167250D01*
X136721D01*
X136747Y167245D01*
X136782D01*
X136838Y167250D01*
X136874Y167255D01*
X136900Y167261D01*
X136910Y167266D01*
X136940Y167286D01*
X136961Y167317D01*
X136976Y167337D01*
X136981Y167347D01*
X136991Y167373D01*
X136996Y167409D01*
X137002Y167470D01*
X137007Y167500D01*
Y167526D01*
Y167541D01*
Y167546D01*
Y168979D01*
X136558D01*
Y169285D01*
X137007D01*
Y170117D01*
X137405Y169831D01*
D02*
G37*
%LPC*%
G36*
X135104Y169015D02*
X135069D01*
X134997Y169010D01*
X134926Y169000D01*
X134870Y168979D01*
X134814Y168959D01*
X134773Y168939D01*
X134742Y168918D01*
X134722Y168908D01*
X134717Y168903D01*
X134666Y168857D01*
X134620Y168811D01*
X134579Y168760D01*
X134548Y168709D01*
X134523Y168663D01*
X134508Y168627D01*
X134497Y168602D01*
X134492Y168592D01*
X134467Y168510D01*
X134447Y168429D01*
X134436Y168347D01*
X134426Y168275D01*
X134421Y168209D01*
X134416Y168153D01*
Y168133D01*
Y168117D01*
Y168112D01*
Y168107D01*
X134421Y168005D01*
X134426Y167913D01*
X134441Y167832D01*
X134457Y167760D01*
X134472Y167704D01*
X134482Y167658D01*
X134492Y167633D01*
X134497Y167623D01*
X134533Y167551D01*
X134569Y167485D01*
X134610Y167434D01*
X134645Y167388D01*
X134681Y167352D01*
X134707Y167327D01*
X134727Y167312D01*
X134732Y167306D01*
X134788Y167271D01*
X134849Y167245D01*
X134906Y167225D01*
X134962Y167215D01*
X135008Y167204D01*
X135043Y167199D01*
X135079D01*
X135140Y167204D01*
X135201Y167210D01*
X135303Y167235D01*
X135395Y167276D01*
X135467Y167317D01*
X135523Y167358D01*
X135563Y167398D01*
X135589Y167424D01*
X135599Y167434D01*
X135655Y167531D01*
X135701Y167643D01*
X135732Y167760D01*
X135752Y167873D01*
X135762Y167970D01*
X135767Y168015D01*
Y168051D01*
X135773Y168087D01*
Y168107D01*
Y168122D01*
Y168128D01*
X135767Y168225D01*
X135757Y168311D01*
X135747Y168388D01*
X135727Y168454D01*
X135711Y168510D01*
X135701Y168551D01*
X135691Y168576D01*
X135686Y168587D01*
X135650Y168658D01*
X135609Y168724D01*
X135568Y168775D01*
X135528Y168821D01*
X135492Y168857D01*
X135461Y168882D01*
X135441Y168898D01*
X135436Y168903D01*
X135375Y168939D01*
X135308Y168969D01*
X135247Y168990D01*
X135191Y169000D01*
X135140Y169010D01*
X135104Y169015D01*
D02*
G37*
G36*
X133779Y179643D02*
X133076D01*
X132984Y179638D01*
X132897Y179633D01*
X132816Y179618D01*
X132744Y179597D01*
X132678Y179577D01*
X132612Y179551D01*
X132555Y179521D01*
X132504Y179495D01*
X132464Y179470D01*
X132423Y179439D01*
X132392Y179413D01*
X132362Y179393D01*
X132341Y179373D01*
X132326Y179362D01*
X132321Y179352D01*
X132316Y179347D01*
X132270Y179291D01*
X132229Y179225D01*
X132193Y179153D01*
X132163Y179082D01*
X132117Y178929D01*
X132086Y178776D01*
X132076Y178705D01*
X132071Y178638D01*
X132066Y178582D01*
X132061Y178526D01*
X132056Y178485D01*
Y178449D01*
Y178429D01*
Y178424D01*
X132061Y178307D01*
X132066Y178195D01*
X132081Y178093D01*
X132096Y178001D01*
X132117Y177909D01*
X132137Y177832D01*
X132158Y177761D01*
X132183Y177700D01*
X132209Y177644D01*
X132229Y177593D01*
X132249Y177552D01*
X132270Y177521D01*
X132285Y177496D01*
X132300Y177476D01*
X132306Y177465D01*
X132311Y177460D01*
X132362Y177404D01*
X132418Y177358D01*
X132479Y177317D01*
X132540Y177282D01*
X132606Y177256D01*
X132668Y177231D01*
X132795Y177195D01*
X132856Y177180D01*
X132912Y177170D01*
X132963Y177164D01*
X133004Y177159D01*
X133040Y177154D01*
X133779D01*
Y179643D01*
D02*
G37*
G36*
X137477Y189951D02*
X137421D01*
X137299Y189945D01*
X137191Y189925D01*
X137089Y189900D01*
X137008Y189869D01*
X136936Y189838D01*
X136885Y189813D01*
X136865Y189803D01*
X136850Y189793D01*
X136845Y189787D01*
X136839D01*
X136748Y189721D01*
X136671Y189650D01*
X136605Y189573D01*
X136549Y189497D01*
X136503Y189430D01*
X136472Y189379D01*
X136462Y189359D01*
X136452Y189344D01*
X136447Y189333D01*
Y189328D01*
X136401Y189211D01*
X136365Y189094D01*
X136340Y188977D01*
X136319Y188864D01*
X136309Y188767D01*
Y188727D01*
X136304Y188691D01*
Y188665D01*
Y188645D01*
Y188630D01*
Y188625D01*
X136309Y188477D01*
X136324Y188344D01*
X136350Y188227D01*
X136375Y188125D01*
X136391Y188079D01*
X136401Y188043D01*
X136411Y188007D01*
X136426Y187977D01*
X136432Y187957D01*
X136442Y187941D01*
X136447Y187931D01*
Y187926D01*
X136503Y187824D01*
X136569Y187732D01*
X136635Y187651D01*
X136697Y187589D01*
X136758Y187538D01*
X136804Y187503D01*
X136834Y187477D01*
X136839Y187472D01*
X136845D01*
X136942Y187421D01*
X137038Y187385D01*
X137135Y187355D01*
X137227Y187339D01*
X137304Y187329D01*
X137339Y187324D01*
X137365D01*
X137390Y187319D01*
X137421D01*
X137538Y187324D01*
X137645Y187345D01*
X137742Y187370D01*
X137829Y187396D01*
X137900Y187426D01*
X137951Y187446D01*
X137972Y187457D01*
X137987Y187467D01*
X137992Y187472D01*
X137997D01*
X138084Y187538D01*
X138165Y187610D01*
X138232Y187686D01*
X138288Y187758D01*
X138334Y187824D01*
X138364Y187875D01*
X138375Y187895D01*
X138385Y187911D01*
X138390Y187921D01*
Y187926D01*
X138436Y188043D01*
X138471Y188161D01*
X138497Y188278D01*
X138512Y188385D01*
X138523Y188482D01*
X138528Y188523D01*
X138533Y188558D01*
Y188584D01*
Y188609D01*
Y188619D01*
Y188625D01*
X138528Y188772D01*
X138512Y188910D01*
X138487Y189028D01*
X138461Y189135D01*
X138451Y189175D01*
X138441Y189216D01*
X138426Y189252D01*
X138415Y189283D01*
X138405Y189303D01*
X138400Y189318D01*
X138395Y189328D01*
Y189333D01*
X138339Y189441D01*
X138273Y189532D01*
X138206Y189609D01*
X138145Y189675D01*
X138089Y189726D01*
X138043Y189762D01*
X138013Y189787D01*
X138007Y189793D01*
X138002D01*
X137905Y189843D01*
X137803Y189884D01*
X137706Y189910D01*
X137615Y189930D01*
X137538Y189940D01*
X137503Y189945D01*
X137477Y189951D01*
D02*
G37*
%LPD*%
D16*
X118110Y196850D02*
X157480D01*
X118110Y157480D02*
Y196850D01*
X157480Y157480D02*
Y196850D01*
X118110Y157480D02*
X157480D01*
M02*
