G04 Layer_Color=15132400*
%FSLAX25Y25*%
%MOIN*%
G70*
G01*
G75*
%ADD15C,0.01000*%
%ADD16C,0.00394*%
%ADD19C,0.00591*%
D15*
X124409Y169291D02*
Y173228D01*
Y169291D02*
X132283D01*
Y173228D01*
D16*
X146791Y173878D02*
G03*
X146791Y173878I-197J0D01*
G01*
X139646Y180827D02*
X146181D01*
Y174291D02*
Y180827D01*
X139646Y174291D02*
X146181D01*
X139646D02*
Y180827D01*
X118110Y196850D02*
X157480D01*
X118110Y157480D02*
Y196850D01*
X157480Y157480D02*
Y196850D01*
X118110Y157480D02*
X157480D01*
D19*
X150363Y195669D02*
Y192520D01*
Y195669D02*
X151712D01*
X152162Y195519D01*
X152312Y195369D01*
X152462Y195069D01*
Y194769D01*
X152312Y194469D01*
X152162Y194319D01*
X151712Y194169D01*
X150363D01*
X151412D02*
X152462Y192520D01*
X153317Y194919D02*
Y195069D01*
X153467Y195369D01*
X153617Y195519D01*
X153917Y195669D01*
X154516D01*
X154816Y195519D01*
X154966Y195369D01*
X155116Y195069D01*
Y194769D01*
X154966Y194469D01*
X154666Y194019D01*
X153167Y192520D01*
X155266D01*
X136614Y195669D02*
Y192520D01*
Y195669D02*
X137964D01*
X138414Y195519D01*
X138564Y195369D01*
X138714Y195069D01*
Y194769D01*
X138564Y194469D01*
X138414Y194319D01*
X137964Y194169D01*
X136614D01*
X137664D02*
X138714Y192520D01*
X139718Y195669D02*
X141368D01*
X140468Y194469D01*
X140918D01*
X141218Y194319D01*
X141368Y194169D01*
X141517Y193719D01*
Y193419D01*
X141368Y192970D01*
X141068Y192670D01*
X140618Y192520D01*
X140168D01*
X139718Y192670D01*
X139568Y192820D01*
X139418Y193120D01*
X144882Y161810D02*
Y158661D01*
Y161810D02*
X146231D01*
X146681Y161660D01*
X146831Y161511D01*
X146981Y161211D01*
Y160911D01*
X146831Y160611D01*
X146681Y160461D01*
X146231Y160311D01*
X144882D01*
X145931D02*
X146981Y158661D01*
X147686Y161211D02*
X147986Y161361D01*
X148436Y161810D01*
Y158661D01*
X153150Y169291D02*
X156299D01*
Y171091D01*
X153750Y171436D02*
X153600Y171736D01*
X153150Y172185D01*
X156299D01*
X152249Y161061D02*
X152099Y161361D01*
X151799Y161660D01*
X151499Y161810D01*
X150900D01*
X150600Y161660D01*
X150300Y161361D01*
X150150Y161061D01*
X150000Y160611D01*
Y159861D01*
X150150Y159411D01*
X150300Y159111D01*
X150600Y158811D01*
X150900Y158661D01*
X151499D01*
X151799Y158811D01*
X152099Y159111D01*
X152249Y159411D01*
X153434Y161810D02*
X155083D01*
X154184Y160611D01*
X154633D01*
X154933Y160461D01*
X155083Y160311D01*
X155233Y159861D01*
Y159561D01*
X155083Y159111D01*
X154783Y158811D01*
X154333Y158661D01*
X153884D01*
X153434Y158811D01*
X153284Y158961D01*
X153134Y159261D01*
X154218Y183108D02*
X154068Y183408D01*
X153768Y183708D01*
X153468Y183858D01*
X152868D01*
X152568Y183708D01*
X152268Y183408D01*
X152119Y183108D01*
X151969Y182658D01*
Y181908D01*
X152119Y181458D01*
X152268Y181158D01*
X152568Y180859D01*
X152868Y180709D01*
X153468D01*
X153768Y180859D01*
X154068Y181158D01*
X154218Y181458D01*
X155102Y183258D02*
X155402Y183408D01*
X155852Y183858D01*
Y180709D01*
X140044Y161061D02*
X139895Y161361D01*
X139595Y161660D01*
X139295Y161810D01*
X138695D01*
X138395Y161660D01*
X138095Y161361D01*
X137945Y161061D01*
X137795Y160611D01*
Y159861D01*
X137945Y159411D01*
X138095Y159111D01*
X138395Y158811D01*
X138695Y158661D01*
X139295D01*
X139595Y158811D01*
X139895Y159111D01*
X140044Y159411D01*
X142429Y161810D02*
X140929Y159711D01*
X143178D01*
X142429Y161810D02*
Y158661D01*
X145556Y194919D02*
X145406Y195219D01*
X145106Y195519D01*
X144807Y195669D01*
X144207D01*
X143907Y195519D01*
X143607Y195219D01*
X143457Y194919D01*
X143307Y194469D01*
Y193719D01*
X143457Y193269D01*
X143607Y192970D01*
X143907Y192670D01*
X144207Y192520D01*
X144807D01*
X145106Y192670D01*
X145406Y192970D01*
X145556Y193269D01*
X146591Y194919D02*
Y195069D01*
X146741Y195369D01*
X146891Y195519D01*
X147191Y195669D01*
X147791D01*
X148091Y195519D01*
X148240Y195369D01*
X148390Y195069D01*
Y194769D01*
X148240Y194469D01*
X147941Y194019D01*
X146441Y192520D01*
X148540D01*
M02*
